<?xml version="1.0" encoding="utf-8"?>
<!-- Generator: Adobe Illustrator 16.0.0, SVG Export Plug-In . SVG Version: 6.00 Build 0)  -->
<!DOCTYPE svg PUBLIC "-//W3C//DTD SVG 1.1//EN" "http://www.w3.org/Graphics/SVG/1.1/DTD/svg11.dtd">
<svg version="1.1" id="Layer_1" xmlns="http://www.w3.org/2000/svg" xmlns:xlink="http://www.w3.org/1999/xlink" x="0px" y="0px"
	 width="50px" height="50px" viewBox="0 0 50 50" enable-background="new 0 0 50 50" xml:space="preserve">
<g>
	<path fill-rule="evenodd" clip-rule="evenodd" d="M23.61,19.276c1.313-0.806,2.634-0.836,4.078-0.502
		c0.879,0.204,1.809,0.19,2.715,0.274c0.02,0.05,3.178-0.495,4.643-1.06c1.207-0.465,1.207-1.449,0.131-2.162
		c-0.447-0.298-0.963-0.543-1.484-0.674c-3.418-0.861-6.699-0.457-9.782,1.257c-0.583,0.324-1.145,0.797-1.521,1.337
		c-0.257,0.37-0.175,0.977-0.244,1.478C22.64,19.253,23.263,19.489,23.61,19.276z"/>
	<path fill-rule="evenodd" clip-rule="evenodd" d="M25,0C11.193,0,0,11.193,0,25c0,0.623,0.023,1.24,0.068,1.852
		c2.839-2.033,5.676-4.023,8.451-6.094c0.962-0.719,1.228-1.797,0.725-2.961c-0.671-1.551-1.351-3.098-2.036-4.644
		c-0.771-1.74-0.188-2.622,1.698-2.277c1.133,0.208,2.241,0.741,3.263,1.303c0.912,0.501,1.706,1.227,2.527,1.884
		c1.242,0.994,2.613,1.264,4.125,0.794c1.439-0.448,2.877-0.905,4.31-1.379c3.904-1.292,7.861-2.117,12.003-1.473
		c3.191,0.495,6.291,1.253,8.947,3.211c1.484,1.095,2.658,2.432,3.066,4.692c-2.475-1.71-4.77-1.003-7.041-0.254
		c-1.865,0.615-3.701,1.321-5.555,1.973c-1.119,0.393-2.232,0.81-3.375,1.123c-3.004,0.823-5.993,0.247-8.988-0.144
		c-2.662-0.348-4.51,0.892-5.013,3.511c-0.298,1.558-0.226,3.184-0.369,4.774c-0.129,1.451-0.17,2.938-0.531,4.335
		c-0.412,1.596-1.884,2.376-3.655,2.264c-1.486-0.095-2.526-0.897-2.796-2.544c-0.226-1.379-0.163-2.813-0.15-4.22
		c0.006-0.713,0.182-1.425,0.281-2.136c-0.12-0.02-0.24-0.037-0.361-0.055c-0.29,1.693-0.78,3.385-0.807,5.084
		c-0.022,1.404-0.573,2.167-1.747,2.58c-1.234,0.433-2.511,0.742-3.77,1.107c0.088,0.168,0.18,0.334,0.274,0.501
		c-0.104-0.161-0.204-0.325-0.304-0.488C7.541,44.892,15.673,50,25,50c13.808,0,25-11.192,25-25C50,11.193,38.809,0,25,0z
		 M35.777,42.143c-0.436,0.784-0.756,1.646-2.285,1.83c-0.807,0.096-1.402-0.359-1.879-1.635c-0.824-2.207-1.521-4.482-2-6.793
		c-0.211-1.014,0.289-1.41,0.738-1.721c1.307-0.904,2.744-1.621,4.154-2.368c0.891-0.474,1.418-0.054,1.559,0.849
		c0.266,1.716,0.477,3.438,0.76,5.51C37.006,39.379,36.602,40.66,35.777,42.143z"/>
</g>
</svg>
