<svg xmlns="http://www.w3.org/2000/svg" xmlns:xlink="http://www.w3.org/1999/xlink" viewBox="0 0 600 600"><defs><style>.cls-1,.cls-6{fill:none;}.cls-2{isolation:isolate;}.cls-10,.cls-3{fill:#cad5e1;}.cls-3{opacity:0.5;}.cls-4{fill:#333;}.cls-5{fill:#fff;}.cls-6{stroke:#333;stroke-linecap:round;stroke-miterlimit:10;stroke-width:3px;}.cls-7{clip-path:url(#clip-path);}.cls-8{fill:#383838;opacity:0.2;mix-blend-mode:multiply;}.cls-9{clip-path:url(#clip-path-2);}.cls-11{clip-path:url(#clip-path-3);}.cls-12{clip-path:url(#clip-path-4);}</style><clipPath id="clip-path"><path class="cls-1" d="M503.07,422.6c20-15,.82-103.26-44.77-118.46-30-10-50-4.14-56.49,8.6-6.06,12-6.56,41.79,10.49,67C426.59,400.87,483.09,437.56,503.07,422.6Z"/></clipPath><clipPath id="clip-path-2"><path class="cls-1" d="M208,346.65c40.18-69.07,78.34-121.14,113.43-154.79s58.31-40.64,71.68-40.64c7.4,0,13.64,2.25,18,6.49.81,1,1.58,2,2.34,3.14,4.81,7,13,32.29,15.43,64.56,2.11,28.32.45,70.86-19.44,112.67A14,14,0,0,1,397,346l-182.78,1.1Z"/></clipPath><clipPath id="clip-path-3"><path class="cls-1" d="M104,347.74c.06-.43.13-.86.2-1.29,4.82-26.91,31.28-58.2,58.2-58.2a36.07,36.07,0,0,1,15.74,3.66,12.12,12.12,0,0,1,7,10.09c1.44,11.95-8.9,29.64-25.16,43-1.07.89-2.05,1.67-3,2.39Z"/></clipPath><clipPath id="clip-path-4"><path class="cls-1" d="M159.75,348c-3.61,9.16-2.61,42.61,16.52,63.25s55.59,54.34,86.61,40.55-8.21-99.44-11.57-105.21-17.58-24.17-45.8-24.17S163.35,338.83,159.75,348Z"/></clipPath></defs><title>画板 1 副本 4</title><g class="cls-2"><g id="图层_1" data-name="图层 1"><path class="cls-3" d="M370.46,349.25s22.4,71.67,98.23,71.67c57.42,0-30.56-71.67-30.56-71.67Z"/><path class="cls-4" d="M503.07,422.6c20-15,.82-103.26-44.77-118.46-30-10-50-4.14-56.49,8.6-6.06,12-6.56,41.79,10.49,67C426.6,400.87,483.11,437.57,503.07,422.6Z"/><path class="cls-4" d="M406.45,347.42l-248.91,1.5-55.2.33-20,.12S140,207.74,217.09,171.72c75.42-35.24,123.82-26.32,137.7-24.53,31.73-7.12,47.33-5.46,60,12.81C424.89,174.69,449.89,266.89,406.45,347.42Z"/><path class="cls-5" d="M208,346.65c40.18-69.07,78.34-121.14,113.43-154.79s58.31-40.64,71.68-40.64c7.4,0,13.64,2.25,18,6.49.81,1,1.58,2,2.34,3.14,4.81,7,13,32.29,15.43,64.56,2.11,28.32.45,70.86-19.44,112.67A14,14,0,0,1,397,346l-182.78,1.1Z"/><line class="cls-6" x1="44.72" y1="347.98" x2="545.95" y2="347.98"/><g class="cls-7"><path class="cls-8" d="M412.48,335.22s7.07,42.15,38.66,62.64c27.46,17.81,45.28,18.55,58.7,11.89-2.35,53-128,5.67-128,5.67l-1.37-80.2Z"/></g><g class="cls-9"><path class="cls-10" d="M429.64,239.2S419.17,318.75,398,336.1c-7.51,6.14-25.4,6.26-25.4,6.26s-27.4,2-65.3,2-59.85-2-59.85-2L245,347.08l183.16,7.45L439,243.64Z"/><path class="cls-10" d="M278.25,238.17s-44,69.51-42.87,85.88S244,348.58,244,348.58l-40.18-21.42Z"/></g><path class="cls-4" d="M393.13,152.72c7,0,12.82,2.08,16.94,6,.76,1,1.48,1.93,2.21,3,4.71,6.83,12.79,31.83,15.17,63.82,2.09,28.14.44,70.4-19.3,111.91A12.51,12.51,0,0,1,397,344.48l-182.73,1.1-3.71-.26c39.66-67.91,77.32-119.16,112-152.38,27-25.93,52.13-40.22,70.64-40.22m0-3c-33.5,0-97.87,43.38-187.62,198.26l8.64.6L397,347.48a15.46,15.46,0,0,0,13.87-8.76c37.26-78.34,13.67-164.56,3.89-178.72-.82-1.19-1.65-2.3-2.5-3.35h0c-4.43-4.27-10.82-6.93-19.11-6.93Z"/><path class="cls-5" d="M104,347.74c.06-.43.13-.86.2-1.29,4.82-26.91,31.28-58.2,58.2-58.2a36.07,36.07,0,0,1,15.74,3.66,12.12,12.12,0,0,1,7,10.09c1.44,11.95-8.9,29.64-25.16,43-1.07.89-2.05,1.67-3,2.39Z"/><g class="cls-11"><path class="cls-10" d="M183.79,309.22s-16.28,32.16-38.4,36,21.69,11.68,21.69,11.68l25.59-31.88Z"/></g><path class="cls-5" d="M224.69,245.48c0,10.54-3.47,19.83-8.76,25.36-3.21,3.37-7.1,5.33-11.29,5.33-11.07,0-20-13.74-20-30.69s9-30.69,20-30.69a13.92,13.92,0,0,1,6.51,1.65C219,220.58,224.69,232,224.69,245.48Z"/><path class="cls-4" d="M224.69,245.48c0,10.54-3.47,19.83-8.76,25.36-10-1.16-17.8-13.22-17.8-27.93,0-12.25,5.44-22.67,13-26.47C219,220.58,224.69,232,224.69,245.48Z"/><ellipse class="cls-5" cx="210.39" cy="231.01" rx="6.63" ry="8.19"/><path class="cls-3" d="M131.38,349.37s1.42,86.37,76.64,90.39S186.81,348,186.81,348Z"/><circle class="cls-5" cx="215.75" cy="246.43" r="3.1"/><path class="cls-4" d="M159.75,348c-3.61,9.16-2.61,42.61,16.52,63.25s55.59,54.34,86.61,40.55-8.21-99.44-11.57-105.21-17.58-24.17-45.8-24.17S163.35,338.83,159.75,348Z"/><g class="cls-12"><path class="cls-8" d="M161.74,344s4.52,64.75,62.95,91.13c32.07,14.49,49.31.47,49.31.47l17.4,6.44-40.2,33.69L135.44,404.19"/></g><path class="cls-4" d="M162.44,286.75v3a34.6,34.6,0,0,1,15.09,3.51,10.71,10.71,0,0,1,6.16,8.92c1.38,11.47-8.74,28.61-24.62,41.7-.9.74-1.75,1.42-2.56,2.05l-50.7.3c2.39-12.65,9.84-26.68,20-37.62,11.31-12.16,24.31-18.86,36.63-18.86v-3m0,0c-28.68,0-54.95,33-59.67,59.44-.19,1.06-.33,2.08-.43,3.06l55.2-.33c1.16-.88,2.3-1.79,3.44-2.73,24.94-20.55,33.74-48,17.85-55.63a37.46,37.46,0,0,0-16.39-3.81Z"/></g></g></svg>