<svg xmlns="http://www.w3.org/2000/svg" xmlns:xlink="http://www.w3.org/1999/xlink" viewBox="0 0 600 472"><defs><style>.cls-1{fill:none;}.cls-2{isolation:isolate;}.cls-3{clip-path:url(#clip-path);}.cls-4{fill:#333;}.cls-5{fill:#fff;}.cls-6,.cls-9{fill:#383838;}.cls-7{clip-path:url(#clip-path-2);}.cls-8{fill:#cad5e1;}.cls-9{opacity:0.2;mix-blend-mode:multiply;}.cls-10{clip-path:url(#clip-path-3);}.cls-11{clip-path:url(#clip-path-4);}.cls-12{clip-path:url(#clip-path-5);}.cls-13{fill:#5e5e5e;}</style><clipPath id="clip-path"><rect class="cls-1" y="49.48" width="593.46" height="422.52"/></clipPath><clipPath id="clip-path-2"><path class="cls-1" d="M303.76,392.31c-5.22,40.13,7.7,65.76-4.4,95.93-1,2.39-15.81,2.68-37.8,1.74-10.17-15.18-20.95-40.1-30.18-80.75-26.7-117.54,59-153.51,90.21-175.15,25.44-17.64,40.93-43.67,46.23-53.65a16.18,16.18,0,0,1,1.87,1.63c13.08,13.19,9.46,55.05-5.59,90.77S310.33,341.82,303.76,392.31Z"/></clipPath><clipPath id="clip-path-3"><polygon class="cls-1" points="561.05 53.9 438.54 114 409.25 59.76 561.05 53.9"/></clipPath><clipPath id="clip-path-4"><polygon class="cls-1" points="561.05 53.9 424.89 49.48 424.89 59.15 561.05 53.9"/></clipPath><clipPath id="clip-path-5"><path class="cls-1" d="M189.5,321.81c-20.81,22.64-40.46,37-52,27s-2.42-33.33,18.4-56,46-31.29,55-23S210.32,299.17,189.5,321.81Z"/></clipPath></defs><title>画板 1 副本 2</title><g class="cls-2"><g id="图层_1" data-name="图层 1"><rect width="600" height="472"/><g class="cls-3"><path class="cls-4" d="M302.64,381.89c.31,12.71,30.82,33.94,43.62,61.29S351,478.23,351,478.23H293.46l3.61-96.34Z"/><path class="cls-4" d="M303.76,392.31c-5.22,40.13,7.7,65.76-4.4,95.93-4,9.92-247.21-16.37-247.21-16.37S35.55,449.24-.48,443.38.51,380,.51,380s41.34-25.9,74.11-25.33a668.31,668.31,0,0,1,55.44-77.88l.81-1c31.6-38.05,73.33-78.68,116.71-93.79,56-19.53,73.09-4.56,73.09-4.56s35.95-8.64,49,4.55,9.46,55.05-5.59,90.77S310.33,341.82,303.76,392.31Z"/><path class="cls-5" d="M189.5,321.81c-20.81,22.64-40.46,37-52,27s-2.42-33.33,18.4-56,46-31.29,55-23S210.32,299.17,189.5,321.81Z"/><circle class="cls-5" cx="241.26" cy="240.17" r="17.56"/><circle class="cls-6" cx="245.99" cy="238.24" r="14.61"/><circle class="cls-5" cx="242.26" cy="235.08" r="6.26"/><circle class="cls-5" cx="248.37" cy="246.36" r="4.02"/><path class="cls-5" d="M303.76,392.31c-5.22,40.13,7.7,65.76-4.4,95.93-1,2.39-15.81,2.68-37.8,1.74-10.17-15.18-20.95-40.1-30.18-80.75-26.7-117.54,59-153.51,90.21-175.15,25.44-17.64,40.93-43.67,46.23-53.65a16.18,16.18,0,0,1,1.87,1.63c13.08,13.19,9.46,55.05-5.59,90.77S310.33,341.82,303.76,392.31Z"/><g class="cls-7"><path class="cls-8" d="M256.65,276.25s-33.26,52.11-15.39,116c7.26,25.94,35.2,56.69,49.41,49.28s1.71-56.92,20.53-77.81,29.94,121.35,29.94,121.35l-139,3.25,16.68-188.58Z"/></g><path class="cls-4" d="M223.7,400.48s54.37,19.42,69.76,77.75l-80.81,8.69-5.2-62.16Z"/><path class="cls-9" d="M74.62,354.71s-21.15,59.9-21.15,87.13c0,0-3.18-41.36,19.39-92.43Z"/><polygon class="cls-5" points="561.05 53.9 438.54 114 409.25 59.76 561.05 53.9"/><g class="cls-10"><polygon class="cls-8" points="561.05 53.9 427.87 105.48 419.61 85.72 561.05 53.9"/></g><polygon class="cls-5" points="561.05 53.9 424.89 49.48 424.89 59.15 561.05 53.9"/><polygon class="cls-5" points="561.05 53.9 382.92 101.7 409.25 59.76 561.05 53.9"/><g class="cls-11"><polygon class="cls-8" points="561.05 53.9 421.54 55.81 420.52 61.13 561.05 53.9"/></g><g class="cls-12"><path class="cls-8" d="M132.85,332.32s.57,13.62,10.34,16.07,23.36-2.67,45.26-25.45l-7.71,24-46.1,13.79-18.56-26.69Z"/></g><path class="cls-13" d="M420.73,346.47c-1.83-6.76-5.56-12.81-10-18.12a86.47,86.47,0,0,0-15.22-14c-11.18-8.15-23.69-14.25-36.54-19.19q-2.82-1.08-5.66-2.08l-.54.86c1.95.69,3.91,1.4,5.85,2.14,12.79,4.92,25.23,11,36.3,19.07A85,85,0,0,1,410,329c4.34,5.23,8,11.18,9.78,17.74,2,6.55.61,13.59-2.24,19.71a42.59,42.59,0,0,1-13.15,15.33,79.86,79.86,0,0,1-17.91,9.85,142.33,142.33,0,0,1-19.58,6.22,250.11,250.11,0,0,1-40.69,6c-27.4,1.92-55,.75-82.28-2.28A546.71,546.71,0,0,1,163,386.26c-13.25-3.61-26.37-7.73-39.22-12.59a298.79,298.79,0,0,1-37.49-17c-12-6.6-23.57-14.22-33.56-23.61a86.87,86.87,0,0,1-13.25-15.6,59.59,59.59,0,0,1-5.26-9.88c.76-.39,1.52-.79,2.29-1.17a280.21,280.21,0,0,1,38.1-15.54,354.66,354.66,0,0,1,54.6-13l.84-1,.13-.15A355.89,355.89,0,0,0,74.3,289.92a269.48,269.48,0,0,0-38.16,15.76l-2.22,1.18a50.54,50.54,0,0,1-2.49-8.07,48.09,48.09,0,0,1,0-20.27,59,59,0,0,1,3-9.78q1.88-4.78,4.18-9.38a147.8,147.8,0,0,1,23.74-33.42,247.93,247.93,0,0,1,30.52-27.58,378.53,378.53,0,0,1,34-23.25c23.47-14.33,48.13-26.62,73.28-37.71s50.89-20.87,76.92-29.75Q296.57,101,316.32,95c13.16-4,26.39-7.73,39.74-11.07-13.36,3.27-26.61,7-39.8,10.88s-26.3,8-39.34,12.45c-26.05,8.82-51.8,18.58-77,29.6a621.57,621.57,0,0,0-73.44,37.58,383.18,383.18,0,0,0-34.13,23.23,244.2,244.2,0,0,0-30.67,27.63A148.81,148.81,0,0,0,37.78,259q-2.33,4.64-4.22,9.46a58.92,58.92,0,0,0-3,9.92,48.78,48.78,0,0,0,0,20.66,51.1,51.1,0,0,0,2.57,8.3c-5.06,2.71-10,5.6-14.85,8.72q-4.34,2.82-8.46,5.92a92.76,92.76,0,0,0-7.93,6.6,127.46,127.46,0,0,1,16.67-12.08c4.83-3,9.81-5.82,14.87-8.43a61.73,61.73,0,0,0,5.31,10,87.81,87.81,0,0,0,13.4,15.77c10.07,9.47,21.67,17.13,33.74,23.75a296.34,296.34,0,0,0,37.61,17c12.88,4.88,26,9,39.31,12.63a545.78,545.78,0,0,0,81.07,15.34c27.34,3,55,4.23,82.45,2.3a250.54,250.54,0,0,0,40.85-6,141.93,141.93,0,0,0,19.71-6.26,80.94,80.94,0,0,0,18.14-10,43.51,43.51,0,0,0,13.44-15.69,34.51,34.51,0,0,0,3-10A24.73,24.73,0,0,0,420.73,346.47Z"/></g></g></g></svg>