<svg xmlns="http://www.w3.org/2000/svg" xmlns:xlink="http://www.w3.org/1999/xlink" viewBox="0 0 600 600"><defs><style>.cls-1,.cls-4{fill:none;}.cls-2{isolation:isolate;}.cls-11,.cls-3{fill:#383838;}.cls-4{stroke:#383838;stroke-miterlimit:10;}.cls-5{fill:#fff;}.cls-6{fill:#302f18;}.cls-12,.cls-7{fill:#8f8b49;}.cls-8{clip-path:url(#clip-path);}.cls-9{fill:#cad5e1;}.cls-10{clip-path:url(#clip-path-2);}.cls-11,.cls-12{opacity:0.2;mix-blend-mode:multiply;}.cls-13{clip-path:url(#clip-path-3);}.cls-14{clip-path:url(#clip-path-4);}</style><clipPath id="clip-path"><path class="cls-1" d="M285.8,456.94c13.65-8.74,48.44-39.72,54.2-130.35,1.86-29.36-6.22-47.75-12.72-62.53-7.61-17.32-13.11-29.83.48-50.74,7.15-11,17.17-15.92,32.47-15.92,11.95,0,26.09,3.07,41.06,6.33,18.2,4,38.84,8.44,60.17,8.44,2.39,0,4.79-.06,7.11-.17,52.86-2.56,76.66-24,84.26-32.79-1.31,18.43-14.77,49.82-49.65,72.53-15.11,9.84-29.81,15-44,20-26.16,9.2-48.76,17.14-64.51,50.61C372.36,369.71,371.5,431.46,371.5,440,365.79,442.49,332.54,456,285.8,456.94Z"/></clipPath><clipPath id="clip-path-2"><path class="cls-1" d="M554.4,174.72A24.8,24.8,0,0,0,553,167c-6-16-33-21-44-28s-11.8-28.4-46-45c-103-50-244,28-244,28C161,93,72.31,88.7,81.35,117.43S160,185,159,210c-.72,18-19,36-27,101s19,113,19,113c46.86,26.43,91.79,34.42,128.82,34.5h0l.08,0-.08,0h.52C335.5,458.5,373,441,373,441s-1-67,23-118,65-42,108-70C541.25,228.74,555.24,194,554.4,174.72Zm-89.16,35.9-1,0Zm-83.65-12.46-2.3-.4ZM462,210.66h0Zm-3.45,0-1.06,0Zm-3.95-.12h0Zm-3.67-.19-1-.07Zm-3.3-.25-1.11-.09Zm-3.39-.31-1-.1Zm-4.17-.45h0Zm-3.22-.42-1-.13Zm-3.22-.45-1.09-.16Zm-3.35-.52-.91-.14Zm-4-.67-.37-.06Zm-3.11-.56-1-.19ZM420,206.1l-1.08-.21Zm-3.29-.64-.82-.17Zm-3.8-.78-.68-.14Zm-3-.63-1.15-.24Zm-3.05-.65-1.13-.24Zm-3.1-.67-3.79-.82ZM400,201.9l-2.71-.58Zm-3.5-.75-2.1-.45Zm-3-.64-2.34-.49Zm-2.83-.59-2.76-.56Zm-3.4-.69-2.08-.4Zm-2.94-.57-1.9-.35Zm-5.37-1-2.59-.41Zm-3.28-.51-1.87-.26Zm-2.72-.37-1.75-.22Zm-2.53-.31-2.31-.23Zm-2.46-.25-2.4-.18Zm-3.11-.22-1.67-.08Zm-2.48-.1c-.55,0-1.09,0-1.64,0C361.28,195.91,361.82,195.92,362.37,195.94Zm-2.33,0c-.79,0-1.57,0-2.34,0C358.47,195.92,359.25,195.91,360,195.9Zm-27,8.88c-.55.49-1.1,1-1.63,1.54C332,205.78,332.51,205.27,333.06,204.78ZM357.33,196c-.65,0-1.3.06-1.94.11C356,196,356.68,196,357.33,196Zm-2.63.17c-.57.05-1.13.11-1.69.18C353.57,196.25,354.13,196.19,354.7,196.14Zm-2.29.25c-.74.1-1.47.21-2.19.34C350.94,196.6,351.67,196.49,352.41,196.39Zm-2.44.39c-.64.12-1.27.25-1.89.4C348.7,197,349.33,196.9,350,196.78Zm-2.49.55c-.54.13-1.07.27-1.59.43C346.41,197.6,346.94,197.46,347.48,197.33Zm-2.13.58c-.68.22-1.36.44-2,.7C344,198.35,344.67,198.13,345.35,197.91Zm-2.17.75c-.61.24-1.22.49-1.81.76C342,199.15,342.57,198.9,343.18,198.66Zm-2.35,1c-.49.23-1,.47-1.45.72C339.86,200.14,340.34,199.9,340.83,199.67Zm-1.94,1c-.62.35-1.24.71-1.84,1.1C337.65,201.36,338.27,201,338.89,200.65ZM337,201.8q-.86.55-1.68,1.17Q336.11,202.36,337,201.8Zm-2.17,1.55c-.43.33-.85.68-1.27,1C334,204,334.37,203.68,334.8,203.35Zm-6.89,7.12c-.48.66-1,1.33-1.41,2C327,211.8,327.43,211.13,327.91,210.47Zm3.48-4.1c-.52.52-1,1.07-1.51,1.63C330.38,207.44,330.87,206.89,331.39,206.37Zm-1.95,2.16c-.37.45-.74.9-1.1,1.38C328.7,209.43,329.07,209,329.44,208.53Zm172.92,42c-15,9.74-29.57,14.88-43.71,19.85-25.38,8.92-49.35,17.35-65.36,51.38-12.57,26.71-18.23,57.73-20.77,79A354,354,0,0,0,370,439c-7.35,3.07-37.41,14.56-79.27,16.26,15.78-12.06,45.49-45.52,50.76-128.6,1.89-29.73-6.28-48.31-12.84-63.24-7.7-17.51-12.78-29.08.37-49.32,6.84-10.53,16.47-15.23,31.21-15.23,11.79,0,25.85,3.06,40.74,6.29,18.28,4,39,8.48,60.48,8.48,2.42,0,4.84-.06,7.2-.17,34.53-1.68,56.5-11.46,68.86-19.36a80.08,80.08,0,0,0,13.3-10.55C547.86,202,534.11,229.81,502.36,250.49Z"/></clipPath><clipPath id="clip-path-3"><path class="cls-1" d="M472.21,431.07c-4.91-23.1-19.15-39.64-31.81-36.95-5.76,1.22-10.2,6.22-12.86,13.49-5.76,15.71-19.56,27.1-35.92,30.57L270.3,464a26.5,26.5,0,0,0-20.41,31.42h0a26.5,26.5,0,0,0,31.42,20.41L379,495a6.89,6.89,0,1,1,2.87,13.48l-78.09,16.6a9.8,9.8,0,0,0-7.55,11.62h0a9.8,9.8,0,0,0,11.63,7.55L386,527.68a26.49,26.49,0,0,0,20.41-31.42h0a26.49,26.49,0,0,0-31.42-20.4l-97.7,20.76a6.89,6.89,0,0,1-2.87-13.48l121.32-25.78c16.37-3.48,33.6,1.3,45.25,13.32,5.39,5.55,11.48,8.32,17.24,7.09C470.84,475.08,477.12,454.17,472.21,431.07Z"/></clipPath><clipPath id="clip-path-4"><path class="cls-1" d="M235.76,186.44C254,225.06,386.52,170,368.5,127.5,354,93.29,212.5,137.29,235.76,186.44Z"/></clipPath></defs><title>画板 1</title><g class="cls-2"><g id="图层_1" data-name="图层 1"><path class="cls-3" d="M554.4,174.72c-.3.5-20.43,32.61-85.9,35.78-62,3-117.51-35.68-142,2-26,40,16,51,12,114-7.05,111-57.83,131.66-58.67,132h0c-37-.08-82-8.07-128.82-34.5,0,0-27-48-19-113s26.28-83,27-101c1-25-68.6-63.84-77.65-92.57S161,93,219,122c0,0,141-78,244-28,34.2,16.6,35,38,46,45s38,12,44,28A24.8,24.8,0,0,1,554.4,174.72Z"/><path class="cls-4" d="M554.4,174.72c-.3.5-20.43,32.61-85.9,35.78-62,3-117.51-35.68-142,2-26,40,16,51,12,114-7.05,111-57.83,131.66-58.67,132"/><path class="cls-3" d="M400.5,297.5c13,0,74.5,104.5,48.5,134.5-22.81,26.32-90.5-44.5-90.5-44.5S387.5,297.5,400.5,297.5Z"/><path class="cls-5" d="M235.76,186.44C254,225.06,386.52,170,368.5,127.5,354,93.29,212.5,137.29,235.76,186.44Z"/><circle class="cls-5" cx="420.5" cy="141.5" r="22"/><circle class="cls-3" cx="418.75" cy="144.25" r="16.25"/><circle class="cls-5" cx="415.4" cy="139.95" r="7.17"/><circle class="cls-5" cx="423.53" cy="151.9" r="3.82"/><path class="cls-1" d="M219,122S360,44,463,94c34.2,16.6,35,38,46,45s38,12,44,28-6,58-49,86-84,19-108,70-23,118-23,118-105,49-222-17c0,0-27-48-19-113s26.28-83,27-101c1-25-77-84-77-104C82,96,161,93,219,122Z"/><path class="cls-3" d="M111.87,387.85a117.46,117.46,0,0,0-9.54,7.66,41.17,41.17,0,0,0-7.6,8.8,15.13,15.13,0,0,0-1.92,4.95,11.62,11.62,0,0,0,.25,5,18.05,18.05,0,0,0,2.23,5c.46.86,1.07,1.64,1.62,2.51s1.21,1.66,1.78,2.6A21.41,21.41,0,0,1,95.77,423a17,17,0,0,1-2.65-1.92,13.85,13.85,0,0,1-4-5.53,12.77,12.77,0,0,1-.62-7.11,17.52,17.52,0,0,1,2.69-6.37,32.8,32.8,0,0,1,9.36-8.86A46.09,46.09,0,0,1,111.87,387.85Z"/><path class="cls-3" d="M70.18,402.85a67.73,67.73,0,0,0-3.05,6.75,27.31,27.31,0,0,0-1.68,6.76,15,15,0,0,0,1,6.53c.72,2.19,2.28,4,3.78,6.12a12.42,12.42,0,0,1-6-5,12.69,12.69,0,0,1-1.71-7.94,18.6,18.6,0,0,1,2.63-7.46A19.89,19.89,0,0,1,70.18,402.85Z"/><path class="cls-3" d="M107.11,460.78a56.78,56.78,0,0,0,9.74,9,72.24,72.24,0,0,0,11.23,6.95c1,.49,2,1,3,1.47l3.07,1.31c2,1,4.15,1.58,6.23,2.41l6.38,2.1c2.16.6,4.33,1.17,6.5,1.84-2.25-.24-4.48-.57-6.73-.88s-4.44-.88-6.65-1.42A75.22,75.22,0,0,1,127,479a53.76,53.76,0,0,1-11.66-7.26c-.85-.79-1.73-1.53-2.53-2.36s-1.59-1.67-2.28-2.61A20.66,20.66,0,0,1,107.11,460.78Z"/><path class="cls-3" d="M119.7,487.57c2.24,1.73,4.45,3.28,6.75,4.74a67.87,67.87,0,0,0,7.06,4,57.57,57.57,0,0,0,7.58,3c2.6.89,5.28,1.47,8,2.14a36.35,36.35,0,0,1-8.38-.62,38,38,0,0,1-8.11-2.5,32.53,32.53,0,0,1-7.32-4.33A21,21,0,0,1,119.7,487.57Z"/><path class="cls-6" d="M175.8,451c11.78,5.92,24.3,10.06,36.89,13.67,3.14.95,6.34,1.67,9.52,2.46,1.59.37,3.17.8,4.77,1.14l4.82,1c6.38,1.45,12.87,2.41,19.32,3.48,6.49.8,12.95,1.82,19.49,2.27,3.26.26,6.51.64,9.77.82l9.8.53c1.63.09,3.26.22,4.9.28l4.9.1,9.82.3c6.54.09,13.1,0,19.68.2h.07a1.42,1.42,0,0,1,1.37,1.47,1.41,1.41,0,0,1-1.29,1.36c-3.29.31-6.58.59-9.89.82s-6.61.51-9.92.55l-9.93.07-5,0c-1.66,0-3.32-.15-5-.23l-9.93-.58c-3.31-.19-6.59-.68-9.89-1-6.6-.62-13.14-1.77-19.69-2.79-3.26-.59-6.5-1.3-9.75-1.95s-6.47-1.43-9.68-2.23l-4.82-1.23c-1.6-.42-3.18-.93-4.77-1.39-3.17-.95-6.36-1.83-9.48-2.94s-6.28-2.09-9.36-3.31L198,462l-4.56-2A135.29,135.29,0,0,1,175.8,451Z"/><path class="cls-6" d="M472.39,425a33.19,33.19,0,0,1,7.47,3.53,28.46,28.46,0,0,1,6.28,5.29,16.58,16.58,0,0,1,3.8,7.19,13.83,13.83,0,0,1-.58,8,21.31,21.31,0,0,1-4.29,6.88,17.77,17.77,0,0,1-1.41,1.47,19.46,19.46,0,0,1-1.48,1.39c-1.07.86-2.06,1.78-3.19,2.54a70.86,70.86,0,0,1-14.32,7.85,123,123,0,0,0,12.86-9.33c3.92-3.35,7.4-7.23,9-11.62a12.52,12.52,0,0,0,.46-6.69,13.15,13.15,0,0,0-1.13-3.26c-.23-.53-.56-1-.83-1.57s-.66-1-1-1.5A45.3,45.3,0,0,0,472.39,425Z"/><path class="cls-6" d="M475.14,405.91a25.6,25.6,0,0,1,9.35,1.06,31.84,31.84,0,0,1,8.63,4c.69.4,1.3.9,1.95,1.36a20.43,20.43,0,0,1,1.85,1.49l1.76,1.6c.57.56,1.07,1.17,1.6,1.75a34.57,34.57,0,0,1,2.88,3.75c.87,1.31,1.57,2.72,2.3,4.09-1-1.18-1.94-2.43-3-3.58s-2-2.3-3.19-3.31a44.53,44.53,0,0,0-7.16-5.62A45,45,0,0,0,484,408.4,47.93,47.93,0,0,0,475.14,405.91Z"/><path class="cls-6" d="M229.71,487.81c14.25,1.54,28.53,2.4,42.83,2.72s28.59.18,42.86-.74,28.5-2.16,42.63-4.3c7.09-.89,14.12-2.21,21.16-3.38,3.53-.54,7-1.35,10.52-2.05l.55,2.71c-3.51.72-7,1.55-10.56,2.11-7.08,1.22-14.14,2.56-21.28,3.41-3.56.46-7.11,1-10.68,1.39L337,490.78c-3.57.41-7.15.62-10.73.89s-7.16.56-10.76.65c-14.34.75-28.71.75-43.06.22S243.78,490.72,229.71,487.81Z"/><path class="cls-6" d="M441.31,442.12a74.85,74.85,0,0,1-14.8,14.42c-2.74,2.1-5.6,4-8.48,5.88l-4.38,2.7-4.5,2.5a127.5,127.5,0,0,1-18.79,8.25,133.41,133.41,0,0,1-19.74,5.28l4.87-1.5c1.62-.51,3.27-.92,4.85-1.55,3.17-1.19,6.38-2.26,9.47-3.64a148.21,148.21,0,0,0,18.08-9.07,134.33,134.33,0,0,0,16.58-11.47,183.11,183.11,0,0,0,15-13.28l.06-.05a1.17,1.17,0,0,1,1.76,1.53Z"/><path class="cls-5" d="M285.8,456.94c13.65-8.74,48.44-39.72,54.2-130.35,1.86-29.36-6.22-47.75-12.72-62.53-7.61-17.32-13.11-29.83.48-50.74,7.15-11,17.17-15.92,32.47-15.92,11.95,0,26.09,3.07,41.06,6.33,18.2,4,38.84,8.44,60.17,8.44,2.39,0,4.79-.06,7.11-.17,52.86-2.56,76.66-24,84.26-32.79-1.31,18.43-14.77,49.82-49.65,72.53-15.11,9.84-29.81,15-44,20-26.16,9.2-48.76,17.14-64.51,50.61C372.36,369.71,371.5,431.46,371.5,440,365.79,442.49,332.54,456,285.8,456.94Z"/><path class="cls-7" d="M305.82,543.5A8.8,8.8,0,0,1,304,526.09l78.09-16.6a7.89,7.89,0,0,0-1.64-15.61,8.23,8.23,0,0,0-1.64.17l-97.7,20.77a25.94,25.94,0,0,1-5.33.56,25.6,25.6,0,0,1-24.91-20.2A25.5,25.5,0,0,1,270.51,465l121.31-25.79c16.87-3.58,30.92-15.54,36.66-31.2,2.63-7.19,6.94-11.76,12.13-12.86a12,12,0,0,1,2.53-.27c11.6,0,23.67,15.67,28.09,36.45,2.34,11,2.2,21.85-.4,30.51-2.54,8.45-7.11,13.78-12.86,15a11.81,11.81,0,0,1-2.53.27h0c-4.52,0-9.29-2.45-13.78-7.08a49.52,49.52,0,0,0-35.44-14.73,51.75,51.75,0,0,0-10.74,1.13L274.16,482.16a7.9,7.9,0,0,0,1.64,15.62,7.72,7.72,0,0,0,1.65-.18l97.7-20.76a25.11,25.11,0,0,1,5.32-.57,25.61,25.61,0,0,1,24.91,20.2,25.5,25.5,0,0,1-19.63,30.24L307.66,543.3A8.86,8.86,0,0,1,305.82,543.5Z"/><path class="cls-6" d="M443.14,395.83c10.95,0,22.86,15.66,27.11,35.66,2.31,10.85,2.17,21.51-.38,30-2.43,8.09-6.73,13.17-12.1,14.32a11.3,11.3,0,0,1-2.33.24c-4.25,0-8.77-2.34-13.06-6.78a50.55,50.55,0,0,0-36.16-15,52.92,52.92,0,0,0-10.94,1.15L274,481.19a8.88,8.88,0,0,0-6.85,10.54,8.91,8.91,0,0,0,10.54,6.85l97.7-20.77a24.5,24.5,0,0,1,10.19,47.92l-78.09,16.6a8.2,8.2,0,0,1-1.63.17,7.83,7.83,0,0,1-7.62-6.18,7.82,7.82,0,0,1,6-9.26l78.08-16.59a8.89,8.89,0,0,0-3.69-17.4l-97.7,20.77a24.49,24.49,0,0,1-10.19-47.91L392,440.14c17.21-3.66,31.53-15.86,37.38-31.84,2.52-6.86,6.57-11.2,11.41-12.23a11.28,11.28,0,0,1,2.32-.24m0-2a12.69,12.69,0,0,0-2.74.29c-5.76,1.22-10.2,6.22-12.86,13.49-5.76,15.71-19.56,27.1-35.92,30.57L270.3,464a26.5,26.5,0,0,0-20.41,31.42h0a26.51,26.51,0,0,0,25.89,21,26.86,26.86,0,0,0,5.53-.58L379,495a7.19,7.19,0,0,1,1.44-.15,6.89,6.89,0,0,1,1.43,13.63l-78.09,16.6a9.8,9.8,0,0,0-7.55,11.62h0a9.81,9.81,0,0,0,9.58,7.77,9.66,9.66,0,0,0,2.05-.22L386,527.68a26.49,26.49,0,0,0,20.41-31.42h0a26.43,26.43,0,0,0-31.42-20.4l-97.7,20.76a6.47,6.47,0,0,1-1.44.15,6.89,6.89,0,0,1-1.43-13.63l121.32-25.78a50.1,50.1,0,0,1,10.53-1.11,48.21,48.21,0,0,1,34.72,14.43c4.54,4.68,9.58,7.38,14.5,7.38a13.28,13.28,0,0,0,2.74-.29c12.66-2.69,18.94-23.6,14-46.7-4.56-21.44-17.16-37.24-29.07-37.24Z"/><g class="cls-8"><path class="cls-9" d="M545.32,202.18S530.92,249.86,445,270.31c-28.42,6.76-54.44-6.14-54.44-6.14s15.38,13.05,46.39,12.88c18.16-.1,101.59-39.76,101.59-39.76l6.8-35.11Z"/><path class="cls-9" d="M352.65,381.65s17-57.29,58.15-85.73c29.31-20.24-33.27,166.87-33.27,166.87L360.59,453Z"/></g><path class="cls-3" d="M550.81,183.59c-2.95,18.37-16.7,46.22-48.45,66.9-15,9.74-29.57,14.88-43.71,19.85-25.38,8.92-49.35,17.35-65.36,51.38-12.57,26.71-18.23,57.73-20.77,79A354,354,0,0,0,370,439c-7.35,3.07-37.41,14.56-79.27,16.26,15.78-12.06,45.49-45.52,50.76-128.6,1.89-29.73-6.28-48.31-12.84-63.24-7.7-17.51-12.78-29.08.37-49.32,6.84-10.53,16.47-15.23,31.21-15.23,11.79,0,25.85,3.06,40.74,6.29,18.28,4,39,8.48,60.48,8.48,2.42,0,4.84-.06,7.2-.17,34.53-1.68,56.5-11.46,68.86-19.36a80.08,80.08,0,0,0,13.3-10.55m3.59-8.87c-.3.5-20.43,32.61-85.9,35.78-2.36.11-4.7.17-7.05.17-38.73,0-74.52-14.77-101.22-14.77-14.06,0-25.6,4.1-33.73,16.6-26,40,16,51,12,114-7.05,111-57.83,131.66-58.67,132h.52C335.5,458.5,373,441,373,441s-1-67,23-118,65-42,108-70c37.25-24.26,51.24-59,50.4-78.28Z"/><g class="cls-10"><path class="cls-11" d="M259.83,410s.89,37.86,15.15,48.53,26.53,2.08,26.53,2.08l4.68-13.51Z"/><path class="cls-11" d="M130.17,319.44s2.42,101.37,60.21,122.88S153.23,451,153.23,451L119.7,355.16Z"/><path class="cls-11" d="M80.05,123s61.38,56.3,93.21,70.63c19.35,8.71-40.21,83.38-40.21,83.38Z"/><path class="cls-11" d="M221.74,120.54s-1.3-.25-11.75,12.24c16.53-24.56,22.53-20.89,22.53-20.89Z"/></g><path class="cls-3" d="M335,340c19,17,52.5,126.5,25.5,137.5-41.93,17.08-101-68-101-68S321.56,328,335,340Z"/><path class="cls-12" d="M459.63,469.08c-6,6.18-13.81-.48-23.73-8.38-6.38-5.09-18.84-8.19-13.48-20.45,3.05-7,21.74-6.31,30.74,2.7S465,463.58,459.63,469.08Z"/><path class="cls-7" d="M325.84,520.42l-3-13.75a4.91,4.91,0,0,1,9.62-1.95l3,13.73-3.78,5.26Z"/><path class="cls-6" d="M327.65,501.79h0a3.93,3.93,0,0,1,3.82,3.15l2.91,13.28-3,4.18-4.66-2.63-2.91-13.28a3.91,3.91,0,0,1,3-4.61,3.57,3.57,0,0,1,.8-.09m0-2a6.22,6.22,0,0,0-1.21.13,5.9,5.9,0,0,0-4.58,7l3.1,14.18,7,3.95,4.56-6.35-3.1-14.16a5.9,5.9,0,0,0-5.77-4.72Z"/><g class="cls-13"><polygon class="cls-12" points="249.31 508.8 421.11 471.51 432.96 525.02 282.05 559.76 249.31 508.8"/></g><g class="cls-14"><path class="cls-9" d="M236.14,160.5s-10,26.91,13.06,34,54.95-2.59,79.69-13.42c29.84-13.06,22.43-1.84,22.43-1.84l-107.79,38L215.3,183.59Z"/></g></g></g></svg>