<?xml version="1.0" encoding="utf-8"?>
<!-- Generator: Adobe Illustrator 23.1.0, SVG Export Plug-In . SVG Version: 6.00 Build 0)  -->
<svg version="1.1" id="图层_1" xmlns="http://www.w3.org/2000/svg" xmlns:xlink="http://www.w3.org/1999/xlink" x="0px" y="0px"
	 viewBox="0 0 571 407.1" style="enable-background:new 0 0 571 407.1;" xml:space="preserve">
<style type="text/css">
	.st0{clip-path:url(#SVGID_2_);}
	.st1{clip-path:url(#SVGID_4_);}
	.st2{fill:#FFFFFF;}
	.st3{fill:#CAD5E1;}
	.st4{fill:#383838;}
	.st5{opacity:0.2;fill:#383838;enable-background:new    ;}
	.st6{fill:#F6D1C7;}
	.st7{fill:#EFB1A1;}
	.st8{fill:#FF7979;}
	.st9{clip-path:url(#SVGID_6_);}
	.st10{clip-path:url(#SVGID_8_);}
</style>
<title>画板 1 副本</title>
<g>
	<defs>
		<rect id="SVGID_1_" width="571" height="407.1"/>
	</defs>
	<clipPath id="SVGID_2_">
		<use xlink:href="#SVGID_1_"  style="overflow:visible;"/>
	</clipPath>
	<g class="st0">
		<g>
			<g>
				<defs>
					<rect id="SVGID_3_" y="40.9" width="559.8" height="509"/>
				</defs>
				<clipPath id="SVGID_4_">
					<use xlink:href="#SVGID_3_"  style="overflow:visible;"/>
				</clipPath>
				<g class="st1">
					<rect x="73.9" y="237.6" class="st2" width="336.6" height="169.5"/>
					<path class="st3" d="M410.5,266.6c0,0-9.9,113.1-163.6,135.3c0,0,59.7,6.2,119.8-19l44.8-45.2L410.5,266.6z"/>
					<path class="st3" d="M399.8,248.1l-76.3,78.7c0,0,63.6-1.9,87.9-71.2L399.8,248.1z"/>
					<path class="st3" d="M91.7,294c0,0-10.2,36.5,1.7,53.5s49.2,33.4,51.5,74.8S70.2,356,70.2,356l3.7-59.3L91.7,294z"/>
					<path class="st4" d="M148.1,548.4c-26.5,0-59.4-9.9-85.7-25.9c-23-13.9-52.2-39-61-79.4V193c2.1-3.8,22.4-39.8,56.6-75.3
						c21.1-21.9,43.3-39.4,66-51.9c28.3-15.6,57.4-23.5,86.5-23.5c3.6,0,7.3,0.1,10.9,0.4c59.3,4,102.7,20.1,129.1,47.8
						c21.1,22.2,25.4,45.9,27.2,56l0.4,2.2l0.5,0.4c16.8,12.3,37,35.5,40.2,50.6c6,27.8-8.4,75.8-8.6,76.3l-1.2,4.1l3.5-2.4
						c0.6-0.4,60.4-40.9,94.2-40.9c5.3,0,9.7,1,13,3c4.7,2.8,8.2,10,10.1,20.8c3.2,18.9,1.3,47-5,75.3
						c-6.7,29.8-17.5,55.1-29.5,69.7H365.1c-3.2-14.7-15.5-25.6-16-26.1l-0.8-0.7l-0.9,0.5c-12.5,7.1-26.4,11.5-38.4,14.4
						C402.8,362,410,269.8,410.5,250.1l0.4-14.2l-3.3,13.4c-4.1,13.9-10.7,27-19.5,38.5c-19.5,25.5-46.1,38.4-79.1,38.4
						c-68.5,0-98.3-42.8-114.3-65.7c-4.3-6.1-7.3-10.6-10.1-12.8c-4.3-3.4-9.2-4.9-15.8-4.9c-1.4,0-2.8,0.1-4.4,0.2
						c-26.8,2.1-51.2,16.3-67,38.9c-13,18.6-18.1,40.5-13.4,57.3c5.2,18.3,21.9,29.6,39.6,41.5c16.4,11,33.3,22.5,42.6,40.4
						c11.5,22.2,20.3,47.8,23.4,68.3c2.9,18.7,2.6,43.1-14.8,53.6C168.7,546.5,159.6,548.4,148.1,548.4z"/>
					<path class="st4" d="M210.6,43.9c3.6,0,7.2,0.1,10.8,0.4c58.9,3.9,102,19.9,128.1,47.3c20.8,21.8,25,45.3,26.8,55.3
						c0.1,0.6,0.2,1.1,0.3,1.6l0.2,1.2l1,0.7c16.6,12.1,36.4,34.9,39.6,49.7c5,23-4.3,60.3-7.5,72c1.2-7.2,1.9-14.5,2.1-21.9v-0.4
						l0.7-27.5l-6.6,26.7c-4,13.8-10.6,26.7-19.4,38.1c-8,10.6-18.1,19.4-29.7,25.9c-14.1,7.8-30.3,11.8-48.2,11.8
						c-67.7,0-97.2-42.3-113-65.1c-4.3-6.2-7.5-10.7-10.4-13.1c-4.5-3.6-9.9-5.3-16.8-5.3c-1.4,0-2.9,0.1-4.5,0.2
						C136.9,243.6,112,258,96,281c-13.2,18.9-18.4,41.4-13.6,58.5c5.3,18.9,22.3,30.3,40.2,42.4c16.2,10.9,33,22.3,42.1,39.8
						c11.5,22.1,20.2,47.5,23.3,67.8c2.8,18.2,2.6,42-14.1,52.1c-5.7,3.4-14.6,5.2-25.8,5.2c-26.3,0-58.8-9.8-84.9-25.7
						C40.5,507.5,11.7,482.7,3,443V193.4c15.7-27,34.5-52,56.1-74.6c21-21.8,43.1-39.2,65.6-51.6C152.8,51.7,181.7,43.9,210.6,43.9
						 M506.8,238.3c5,0,9.2,0.9,12.3,2.8c4.3,2.5,7.6,9.4,9.4,19.8c3.2,18.7,1.3,46.6-5,74.7c-6.6,29.2-17,54-28.8,68.6H366.2
						c-3.7-14.6-15.7-25.3-16.2-25.7l-1.6-1.4l-1.9,1c-3.1,1.7-6.2,3.3-9.4,4.7c46.2-26.2,64-69.3,70.7-100.1l5.6-3.8
						C414,278.5,473.4,238.2,506.8,238.3 M210.6,40.9C81.7,40.9,0,192.6,0,192.6v250.7c15.7,72.5,99.4,106.6,148.1,106.6
						c11.5,0,21.1-1.9,27.3-5.7c32.6-19.6,11.6-86.1-8.1-123.9S95,373.2,85.3,338.7s23.1-89.9,79.1-94.2c1.5-0.1,2.9-0.2,4.3-0.2
						c5.6,0,10.4,1.1,14.9,4.6c12.8,10.1,38.3,78.8,125.3,78.8c80.8,0,100.1-78.1,100.1-78.1c-0.2,8-0.9,129.1-131.5,150.2
						c0,0,39.1-1.4,70.6-19.2c0,0,13.1,11.5,15.8,26.5h132.3c34.6-41,49.4-154.1,24.5-168.6c-3.8-2.2-8.5-3.2-13.8-3.2
						c-34.7,0-95,41.2-95,41.2s14.8-48.6,8.6-77.1c-3.5-15.9-24.5-39.5-40.8-51.5c-3.4-18.2-13.6-97-158-106.7
						C217.9,41,214.2,40.9,210.6,40.9L210.6,40.9z"/>
					<path class="st5" d="M217.9,235.8c0,0,5.2,88,93.8,88c85.7,0,65-88,65-88H217.9z"/>
					<path class="st2" d="M155.3,216.6c-0.6,0-1.1,0-1.7-0.1c-15.9-1.3-27.4-19.7-25.7-41.2c1.6-20.6,14.9-36.7,30.1-36.7
						c0.6,0,1.1,0,1.7,0.1c15.9,1.3,27.4,19.7,25.7,41.2C183.9,200.5,170.6,216.6,155.3,216.6z"/>
					<path class="st4" d="M158,140.1c0.5,0,1.1,0,1.6,0.1c15.1,1.2,26,18.9,24.4,39.6c-1.5,20-14.2,35.4-28.6,35.4
						c-0.5,0-1.1,0-1.6-0.1c-15.1-1.2-26-18.9-24.4-39.6C130.9,155.6,143.6,140.1,158,140.1 M158,137.1L158,137.1
						c-16.1,0-30,16.7-31.6,38.1c-0.8,10.6,1.4,20.9,6.4,28.9c5.1,8.3,12.5,13.2,20.8,13.9c0.6,0,1.2,0.1,1.8,0.1
						c16.1,0,30-16.7,31.6-38.1c1.8-22.3-10.4-41.5-27.1-42.8C159.2,137.2,158.6,137.1,158,137.1z"/>
					
						<ellipse transform="matrix(7.845910e-02 -0.9969 0.9969 7.845910e-02 -28.9722 325.8127)" class="st4" cx="161.7" cy="178.6" rx="28.9" ry="19.4"/>
					<ellipse class="st2" cx="164.8" cy="169" rx="9.4" ry="12"/>
					<circle class="st2" cx="158.7" cy="194.5" r="5.7"/>
					<path class="st2" d="M75.4,198.1C94.6,212,58.9,274,58.9,274S34.9,314.3,0,298.2s12.7-75.5,12.7-75.5S48,178.4,75.4,198.1z"/>
					<path class="st6" d="M312.6,319.9c-61,0-105.2-43.9-127.2-86.7c3.3,1.3,6.8,1.9,10.3,1.9c3.3,0,10.9-2.4,22.6-6.1
						c25.5-8.1,68.2-21.7,105.7-21.7c54.6,0,63,5.7,73,21.8c4.3,6.9,2.5,25.5-7.9,44.8c-7.2,13.4-28.8,44.7-72.6,46
						C315.2,319.9,313.9,319.9,312.6,319.9z"/>
					<path class="st4" d="M324,208.7c53.9,0,62,5.5,71.7,21.1c3.9,6.4,2,24.8-7.9,43.3c-6.4,12.1-15.6,22.6-26.7,30.6
						c-13.1,9.2-28.6,14.3-44.6,14.6c-1.3,0-2.6,0.1-3.8,0.1c-58.8,0-101.8-41.3-124.2-82.7c2.4,0.5,4.8,0.8,7.3,0.8
						c3.4,0,9.8-2,23-6.2C244.1,222.3,286.7,208.7,324,208.7 M324,205.7c-54.1,0-118.2,27.8-128.3,27.8s-14-4.4-14-4.4
						c20.1,41.9,64.8,92.3,130.9,92.3c1.3,0,2.6,0,3.9-0.1c68.2-2,92.2-76,81.7-93.1S378.1,205.7,324,205.7L324,205.7z"/>
					<path class="st7" d="M312.6,319.9c-59.9,0-97.5-41-115-66.4c4.5-2.3,12.8-5.3,25-5.3c3.8,0,7.6,0.3,11.3,0.8
						c8.9,1.1,17.5,3.9,25.3,8.4c6.7,3.5,13,6.9,26.9,7.7c1.5,0.1,2.9,0.1,4.3,0.1c6.9-0.1,13.7-1,20.3-2.7c4.6-1,8.6-1.9,13-1.9
						c5.4,0,10.8,1.4,17.1,4.4c22,10.3,25.5,29.7,23.8,37.9c-13.8,10.7-30,16.4-48.2,17C315.2,319.9,313.9,319.9,312.6,319.9z"/>
					<path class="st4" d="M222.6,249.7c3.7,0,7.4,0.3,11.1,0.8c8.7,1.1,17.2,3.8,24.8,8.2c6.9,3.6,13.3,7.1,27.5,7.9
						c1.5,0.1,3,0.1,4.4,0.1c7-0.1,13.9-1,20.7-2.7c4.5-1,8.4-1.9,12.7-1.9c5.1,0,10.4,1.3,16.5,4.2c11.9,5.6,17.6,13.7,20.2,19.5
						c3,6.6,3.5,12.6,2.9,16.3c-13.5,10.3-29.3,15.8-46.9,16.3c-1.3,0-2.6,0.1-3.9,0.1c-24.2,0-47.2-6.9-68.3-20.6
						c-16.6-10.8-32-25.9-44.5-43.7C204.4,252,211.9,249.7,222.6,249.7 M222.6,246.7c-14.3,0-23.3,4-27.2,6.2
						c23.7,35,63.4,68.5,117.2,68.5c1.3,0,2.6,0,3.9-0.1c18-0.3,35.4-6.5,49.5-17.6c2.1-8.6-1.5-29.3-24.5-40.1
						c-7.2-3.4-12.7-4.5-17.8-4.5c-10.2,0-18.3,4.6-33.4,4.6c-1.3,0-2.8,0-4.3-0.1c-26-1.4-24.7-12.2-52-16
						C230.3,247,226.5,246.7,222.6,246.7L222.6,246.7z"/>
					<path class="st2" d="M216.6,246.6C216.6,246.6,216.6,246.6,216.6,246.6l-8.5-14.3l0.1-0.1l13.2-3.4l0.1,0.1L216.6,246.6
						C216.7,246.6,216.7,246.6,216.6,246.6z"/>
					<path class="st4" d="M219.5,230.8l-3.3,12.1l-5.8-9.8L219.5,230.8 M221.5,227.2c-0.1,0-0.3,0-0.4,0.1l-13.2,3.5
						c-0.8,0.2-1.4,1.1-1.2,1.9c0,0.2,0.1,0.3,0.2,0.4l8.4,14.3c0.4,0.8,1.4,1,2.2,0.6c0.4-0.2,0.6-0.5,0.7-0.9l4.9-17.7
						c0.2-0.8-0.3-1.7-1.1-1.9C221.7,227.2,221.6,227.2,221.5,227.2L221.5,227.2z"/>
					<path class="st2" d="M246.9,240.9C246.8,240.9,246.8,240.9,246.9,240.9l-9.6-17.8V223l14.5-4.1l0.1,0.1L246.9,240.9
						C246.9,240.8,246.9,240.9,246.9,240.9z"/>
					<path class="st4" d="M250,221l-3.6,15.8l-6.9-12.9L250,221 M251.9,217.4c-0.1,0-0.3,0-0.4,0.1l-14.5,4.1
						c-0.8,0.2-1.4,1.1-1.1,1.9c0,0.1,0.1,0.2,0.1,0.3l9.5,17.7c0.3,0.5,0.8,0.8,1.4,0.8c0.7,0,1.4-0.5,1.5-1.2l5-21.8
						c0.2-0.9-0.3-1.7-1.2-1.9C252.1,217.4,252,217.4,251.9,217.4L251.9,217.4z"/>
					<path class="st2" d="M280.2,234.3C280.2,234.3,280.2,234.3,280.2,234.3l-11.4-19.7l0.1-0.1l16.6-3.3l0.1,0.1l-5.4,23
						C280.3,234.3,280.3,234.4,280.2,234.3L280.2,234.3z"/>
					<path class="st4" d="M283.7,213.1l-4,17.3l-8.5-14.8L283.7,213.1 M285.6,209.7c-0.1,0-0.2,0-0.3,0l-16.6,3.4
						c-0.9,0.2-1.4,1-1.3,1.9c0,0.2,0.1,0.3,0.2,0.5l11.3,19.6c0.3,0.5,0.8,0.8,1.4,0.8c0.7,0,1.4-0.5,1.6-1.2l5.4-23
						c0.2-0.9-0.3-1.7-1.2-1.9C285.9,209.7,285.7,209.7,285.6,209.7L285.6,209.7z"/>
					<path class="st2" d="M309.9,228.6C309.8,228.6,309.8,228.6,309.9,228.6l-7.7-19.8l0.1-0.1l14.3-1.1l0.1,0.1l-6.7,20.9
						C310,228.5,309.9,228.6,309.9,228.6z"/>
					<path class="st4" d="M314.6,209.1l-4.8,15.1l-5.5-14.3L314.6,209.1 M316.6,206h-0.1l-14.3,1.2c-0.9,0.1-1.5,0.8-1.5,1.7
						c0,0.2,0,0.3,0.1,0.4l7.6,19.9c0.3,0.8,1.2,1.2,2.1,0.9c0.5-0.2,0.8-0.5,0.9-1l6.7-20.9c0.3-0.8-0.2-1.7-1-2
						C316.9,206.1,316.8,206,316.6,206L316.6,206z"/>
					<path class="st2" d="M337.2,225.5C337.1,225.5,337.1,225.5,337.2,225.5l-6-18.1l0.1-0.1l10.7,0.2l0.1,0.1L337.2,225.5
						C337.3,225.5,337.3,225.5,337.2,225.5L337.2,225.5z"/>
					<path class="st4" d="M333.2,208.9l6.9,0.1l-3.1,11.5L333.2,208.9 M331.2,205.9c-0.9,0-1.6,0.7-1.6,1.6c0,0.2,0,0.3,0.1,0.5
						l5.9,18c0.2,0.7,0.8,1.1,1.5,1.1c0.7,0,1.4-0.5,1.5-1.2l4.8-17.8c0.2-0.8-0.3-1.7-1.1-1.9c-0.1,0-0.3-0.1-0.4-0.1L331.2,205.9
						L331.2,205.9z"/>
					<path class="st2" d="M358.6,227.6C358.6,227.6,358.6,227.6,358.6,227.6l-4.4-19.3l0.1-0.1l10.6,1.2l0.1,0.1L358.6,227.6
						L358.6,227.6z"/>
					<path class="st4" d="M356.2,209.9l6.9,0.8l-4.1,11.7L356.2,209.9 M354.4,206.7c-0.9,0-1.6,0.7-1.6,1.6c0,0.1,0,0.2,0,0.3
						l4.3,19.2c0.2,0.8,1.1,1.4,1.9,1.1c0.5-0.1,0.9-0.5,1.1-1l6.4-18.1c0.3-0.8-0.1-1.7-1-2c-0.1,0-0.2-0.1-0.4-0.1l-10.6-1.2
						L354.4,206.7z"/>
					<path class="st2" d="M381.4,229.4L381.4,229.4l-2.1-16l0.1-0.1l6,3c0,0,0,0.1,0,0.1c0,0,0,0,0,0L381.4,229.4L381.4,229.4z"/>
					<path class="st4" d="M381.2,215.8l2.6,1.3l-1.8,5.6L381.2,215.8 M379.5,211.8c-0.9,0-1.6,0.7-1.6,1.6c0,0.1,0,0.1,0,0.2l2,16
						c0.1,0.9,0.9,1.5,1.8,1.4c0.6-0.1,1.1-0.5,1.3-1.1l4-13c0.2-0.7-0.1-1.5-0.8-1.9l-6-3C379.9,211.9,379.7,211.8,379.5,211.8
						L379.5,211.8z"/>
					<path class="st2" d="M394.4,237.5c-0.1,0-0.1,0-0.1-0.1l-1.3-12.7c0-0.1,0.1-0.1,0.1-0.1l5,6.8l-3.5,6L394.4,237.5z"/>
					<path class="st4" d="M395,229.8l1.2,1.7l-0.9,1.5L395,229.8 M393,223.1c-0.9,0-1.6,0.7-1.6,1.5c0,0.1,0,0.1,0,0.2l1.4,12.7
						c0.1,0.9,0.9,1.5,1.8,1.4c0.5-0.1,0.9-0.3,1.2-0.8l3.5-5.9c0.3-0.5,0.3-1.2-0.1-1.7l-4.9-6.8C394,223.3,393.5,223.1,393,223.1
						L393,223.1z"/>
					<path class="st2" d="M226,285.5C226,285.5,226,285.5,226,285.5l-8.6-8.1v-0.1l13.6-8h0.1l-5,16.2
						C226.1,285.4,226,285.5,226,285.5z"/>
					<path class="st4" d="M228.5,272.4l-3.2,10.4l-5.6-5.3L228.5,272.4 M231,267.7c-0.3,0-0.6,0.1-0.8,0.2l-13.6,8
						c-0.8,0.4-1,1.4-0.6,2.2c0.1,0.1,0.2,0.2,0.3,0.3l8.6,8.1c0.6,0.6,1.6,0.6,2.2-0.1c0.2-0.2,0.3-0.4,0.4-0.6l5-16.1
						c0.3-0.8-0.2-1.7-1-2C231.3,267.8,231.1,267.8,231,267.7L231,267.7z"/>
					<path class="st2" d="M246.5,300.9L246.5,300.9L234,292v-0.1l14.8-13.7h0.1L246.5,300.9C246.6,300.9,246.5,300.9,246.5,300.9z"
						/>
					<path class="st4" d="M247.1,281.8l-1.7,16.4l-9.1-6.5L247.1,281.8 M248.8,276.6c-0.4,0-0.8,0.2-1.1,0.4L233,290.8
						c-0.6,0.6-0.7,1.6-0.1,2.2c0.1,0.1,0.2,0.2,0.2,0.2l12.4,8.9c0.3,0.2,0.6,0.3,0.9,0.3c0.8,0,1.5-0.6,1.6-1.4l2.3-22.6
						c0.1-0.9-0.5-1.7-1.4-1.7C249,276.7,248.9,276.7,248.8,276.6L248.8,276.6z"/>
					<path class="st2" d="M269.3,311.9L269.3,311.9l-13.8-6.1v-0.1l12.5-18h0c0.1,0,0.1,0,0.1,0.1l1.4,24.1L269.3,311.9z"/>
					<path class="st4" d="M266.8,291.9l1,17.7l-10.1-4.5L266.8,291.9 M267.9,286.1c-0.5,0-1,0.3-1.3,0.7l-12.5,18
						c-0.5,0.7-0.3,1.7,0.4,2.2c0.1,0.1,0.2,0.1,0.3,0.1l13.8,6.1c0.2,0.1,0.4,0.1,0.6,0.1c0.9,0,1.6-0.7,1.6-1.6c0,0,0,0,0-0.1
						l-1.4-24.1C269.5,286.7,268.8,286,267.9,286.1L267.9,286.1z"/>
					<path class="st2" d="M281.4,316l-0.1-0.1l9.1-20.3c0,0,0.1,0,0.1,0c0,0,0,0,0,0l4.8,22.9l-0.1,0.1L281.4,316z"/>
					<path class="st4" d="M290.1,300.1l3.5,16.6l-10.1-1.9L290.1,300.1 M290.6,294c-0.6,0-1.2,0.4-1.4,0.9l-9.1,20.3
						c-0.4,0.8,0,1.7,0.8,2.1c0.1,0.1,0.2,0.1,0.4,0.1l13.9,2.6h0.3c0.9,0,1.6-0.7,1.6-1.6c0-0.1,0-0.2,0-0.3l-4.8-22.9
						C292,294.5,291.3,293.9,290.6,294L290.6,294z"/>
					<path class="st2" d="M307.5,319C307.5,319,307.5,319,307.5,319l5.7-21.9c0,0,0-0.1,0.1-0.1l8.8,21.6l-0.1,0.1L307.5,319z"/>
					<path class="st4" d="M313.5,301.6l6.3,15.7l-10.5,0.1L313.5,301.6 M313.2,295.5c-0.7,0-1.4,0.5-1.5,1.2l-5.8,21.8
						c-0.2,0.8,0.3,1.7,1.1,1.9c0.1,0,0.3,0.1,0.4,0.1l0,0l14.4-0.2c0.9,0,1.6-0.7,1.6-1.6c0-0.2,0-0.4-0.1-0.6l-8.7-21.6
						C314.4,295.9,313.9,295.5,313.2,295.5L313.2,295.5z"/>
					<path class="st2" d="M336.4,316.7C336.4,316.7,336.3,316.7,336.4,316.7l3.9-24.3c0,0,0-0.1,0.1-0.1l10.7,18.8v0.1L336.4,316.7
						L336.4,316.7z"/>
					<path class="st4" d="M341.1,296.6l7.8,13.9l-10.7,4L341.1,296.6 M340.3,290.8c-0.8,0-1.5,0.6-1.6,1.3l-3.9,24.2
						c-0.1,0.9,0.4,1.7,1.3,1.8c0.1,0,0.2,0,0.3,0c0.2,0,0.4,0,0.5-0.1l14.6-5.4c0.8-0.3,1.2-1.2,0.9-2c0-0.1-0.1-0.2-0.1-0.2
						l-10.6-18.8C341.4,291.1,340.9,290.8,340.3,290.8L340.3,290.8z"/>
					<path class="st2" d="M363,303.8C363,303.8,362.9,303.8,363,303.8l2.3-21.7c0,0,0-0.1,0.1-0.1l7.4,13c0,0,0,0.1,0,0.1L363,303.8
						L363,303.8z"/>
					<path class="st4" d="M366.3,286.6l4.6,8.1l-6.1,5.5L366.3,286.6 M365.4,280.5c-0.8,0-1.5,0.6-1.6,1.4l-2.4,21.6
						c-0.1,0.9,0.5,1.7,1.4,1.8c0.1,0,0.1,0,0.2,0c0.4,0,0.7-0.2,1-0.4l9.8-8.7c0.6-0.5,0.7-1.3,0.3-2l-7.4-12.9
						C366.4,280.8,365.9,280.5,365.4,280.5L365.4,280.5z"/>
					<path class="st2" d="M382.9,282.8c-0.1,0-0.1-0.1-0.1-0.1V270c0-0.1,0-0.1,0.1-0.1l4.8,6c0,0,0,0.1,0,0.1l-4.7,6.7L382.9,282.8
						z"/>
					<path class="st4" d="M384.3,274l1.6,2l-1.6,2.2V274 M382.9,268.4c-0.9,0-1.6,0.7-1.6,1.6c0,0,0,0,0,0v12.7
						c0,0.9,0.7,1.6,1.6,1.6c0,0,0,0,0,0c0.5,0,1-0.2,1.3-0.7l4.8-6.7c0.4-0.6,0.4-1.3,0-1.9l-4.8-6
						C383.8,268.6,383.4,268.4,382.9,268.4L382.9,268.4z"/>
					<polygon class="st2" points="394.5,261 394.6,261.3 394.5,261.7 					"/>
					<path class="st4" d="M393.7,257.1c-0.4,0-0.7,0.3-0.7,0.7c0,0,0,0,0,0v8.2c0,0.4,0.3,0.7,0.7,0.7c0,0,0,0,0,0
						c0.3,0,0.5-0.2,0.6-0.4l1.7-4.3c0.2-0.4,0.2-0.9-0.1-1.3l-1.7-3.2C394.1,257.2,393.9,257.1,393.7,257.1L393.7,257.1z"/>
					<path class="st8" d="M528.5,182.6c5.4-10.6,20.9-19.9,27.7-13.6c12.2,11.4-8.9,45.2-31.6,47.2c-16.8,1.5-28.4-40.4-17.3-47
						S526,175.5,528.5,182.6z"/>
					<g>
						<defs>
							<path id="SVGID_5_" d="M420.4,199.3c-3.5-15.9-24.5-39.5-40.8-51.5c-3.4-18.2-13.6-97-158-106.7C86.4,32.1,0,192.6,0,192.6
								v250.7C19.4,533,142.8,563.8,175.4,544.2s11.5-86.1-8-123.9S95,373.2,85.3,338.7s23.1-89.9,79.1-94.2
								c7.4-0.6,13.6,0,19.2,4.4c12.8,10.1,38.3,78.8,125.3,78.8c80.8,0,100.1-78.1,100.1-78.1c-0.2,8-0.9,129.1-131.5,150.2
								c0,0,39.1-1.4,70.6-19.2c0,0,13.1,11.5,15.8,26.5h132.3c34.6-41,49.4-154.1,24.5-168.6c-28.6-16.7-108.9,38-108.9,38
								S426.5,227.8,420.4,199.3z"/>
						</defs>
						<clipPath id="SVGID_6_">
							<use xlink:href="#SVGID_5_"  style="overflow:visible;"/>
						</clipPath>
						<g class="st9">
							<path class="st5" d="M379.5,147.9c-6.2-3.4-12.9-5.6-19.9-6.6c10.3,0,21.2,5,21.2,5L379.5,147.9z"/>
							<path class="st5" d="M411.8,276.4c0,0-4.1,68.5-63.7,104.2s29.8,31.8,29.8,31.8S414.6,358.8,411.8,276.4z"/>
							<path class="st5" d="M534.6,329c0,0-29.8,65.5-76.1,86.6l63.9-4.5L534.6,329z"/>
							<path class="st5" d="M-9.3,443.5c0,0,51.4,96.4,148.9,88.9s54.5-77.1,54.5-77.1l39.7,22.7l-32,90.8L98.6,557.7L-7.5,508.1
								L-9.3,443.5z"/>
						</g>
					</g>
					<g>
						<defs>
							<path id="SVGID_7_" d="M75.4,198.1C94.6,212,58.9,274,58.9,274S34.9,314.3,0,298.2s12.7-75.5,12.7-75.5S48,178.4,75.4,198.1z
								"/>
						</defs>
						<clipPath id="SVGID_8_">
							<use xlink:href="#SVGID_7_"  style="overflow:visible;"/>
						</clipPath>
						<g class="st10">
							<path class="st3" d="M67.8,260c0,0-38.2,68.5-82.6,25.5l-3.9,4.4l32.6,23.6l56.3-22.7L67.8,260z"/>
						</g>
					</g>
				</g>
			</g>
		</g>
	</g>
</g>
</svg>
