<svg xmlns="http://www.w3.org/2000/svg" style="zoom: 1;"><symbol id="mastodon-svg-logo-full" viewBox="0 0 713.35878 175.8678">

   
    <path style="fill:#ffffff; stroke:none;" d="M0 0L0 89L368 89L368 0L0 0z"/>
    <path style="fill:#b6b6b6; stroke:none;" d="M64 2L65 3L64 2z"/>
    <path style="fill:#000000; stroke:none;" d="M65 2C65.4291 7.39225 66.8879 12.5679 67 18C49.5991 19.3733 33.5326 25.4622 22.9275 40C19.0859 45.2662 17.2366 51.2141 14.4576 57C10.4806 65.2798 7.0063 70.4833 7 80C16.0786 73.0581 22.4314 64.3327 34 61C32.5201 59.057 30.8302 57.5284 29.2106 55.7099C25.7664 51.8424 26.7598 45.349 32.9969 48.3372C37.1445 50.3243 39.0855 54.5996 42.4637 57.4406C45.4254 59.9312 48.5131 60.8595 51 64C44.3448 66.7708 38.3419 70.6246 32 74L32 76C41.3293 80.883 51.3557 84.021 62 82.7137C71.6104 81.5334 81.2993 76.495 91 78.8472C99.5599 80.9228 114.107 92.0968 122.146 82.6968C126.86 77.1852 125.259 67.281 123.254 61C119.399 48.9269 111.11 38.3156 101 30.76C95.7332 26.8238 89.0651 24.1709 84.3256 19.6211C77.4731 13.043 74.9394 4.94561 65 2z"/>
    <path style="fill:#585858; stroke:none;" d="M67 2L68 3L67 2z"/>
    <path style="fill:#bcbcbc; stroke:none;" d="M68 2L69 3L68 2z"/>
    <path style="fill:#626262; stroke:none;" d="M64 3L64 6C64.6961 4.44631 64.6961 4.5537 64 3z"/>
    <path style="fill:#454545; stroke:none;" d="M69 3L70 4L69 3z"/>
    <path style="fill:#c3c3c3; stroke:none;" d="M70 3L71 4L70 3z"/>
    <path style="fill:#797979; stroke:none;" d="M71 4L72 5L71 4z"/>
    <path style="fill:#484848; stroke:none;" d="M72 5L73 6L72 5z"/>
    <path style="fill:#c9c9c9; stroke:none;" d="M73 5L74 6L73 5z"/>
    <path style="fill:#b4b4b4; stroke:none;" d="M64.3333 6.66666C64.2778 6.72222 64.2222 7.77776 64.6667 7.33334C64.7222 7.27776 64.7778 6.22222 64.3333 6.66666z"/>
    <path style="fill:#222222; stroke:none;" d="M65 6L65 10C65.7102 8.24052 65.7102 7.75949 65 6z"/>
    <path style="fill:#303030; stroke:none;" d="M73 6L74 7L73 6z"/>
    <path style="fill:#aaaaaa; stroke:none;" d="M74 6L75 7L74 6z"/>
    <path style="fill:#9e9e9e; stroke:none;" d="M75 7L76 8L75 7z"/>
    <path style="fill:#a4a4a4; stroke:none;" d="M76 8L77 9L76 8z"/>
    <path style="fill:#343434; stroke:none;" d="M76 9L77 10L76 9z"/>
    <path style="fill:#c4c4c4; stroke:none;" d="M77 9L78 10L77 9z"/>
    <path style="fill:#636363; stroke:none;" d="M65 10L66 11L65 10z"/>
    <path style="fill:#4d4d4d; stroke:none;" d="M77 10L78 11L77 10z"/>
    <path style="fill:#8f8f8f; stroke:none;" d="M65 11L66 12L65 11z"/>
    <path style="fill:#292929; stroke:none;" d="M66 11L66 14C66.6961 12.4463 66.6961 12.5537 66 11z"/>
    <path style="fill:#7b7b7b; stroke:none;" d="M78 11L79 12L78 11z"/>
    <path style="fill:#e6e6e6; stroke:none;" d="M65.3333 12.6667C65.2778 12.7222 65.2222 13.7778 65.6667 13.3333C65.7222 13.2778 65.7778 12.2222 65.3333 12.6667z"/>
    <path style="fill:#c1c1c1; stroke:none;" d="M79 12L80 13L79 12z"/>
    <path style="fill:#4b4b4b; stroke:none;" d="M79 13L80 14L79 13z"/>
    <path style="fill:#636363; stroke:none;" d="M66 14L66 18C66.7102 16.2405 66.7102 15.7595 66 14z"/>
    <path style="fill:#959595; stroke:none;" d="M80 14L81 15L80 14z"/>
    <path style="fill:#5f5f5f; stroke:none;" d="M81 16L82 17L81 16z"/>
    <path style="fill:#bcbcbc; stroke:none;" d="M60 17C62.0521 17.8743 63.7472 17.9528 66 18C63.9479 17.1258 62.2528 17.0472 60 17z"/>
    <path style="fill:#9f9f9f; stroke:none;" d="M82 17L83 18L82 17z"/>
    <path style="fill:#848484; stroke:none;" d="M173 17C176.959 18.6611 181.737 18 186 18C182.041 16.3389 177.263 17 173 17z"/>
    <path style="fill:#cecece; stroke:none;" d="M211 17L212 18L211 17z"/>
    <path style="fill:#848484; stroke:none;" d="M212 17C215.697 18.5515 220.017 18 224 18C220.303 16.4485 215.983 17 212 17z"/>
    <path style="fill:#c3c3c3; stroke:none;" d="M224 17L225 18L224 17z"/>
    <path style="fill:#b8b8b8; stroke:none;" d="M231 17L232 18L231 17z"/>
    <path style="fill:#848484; stroke:none;" d="M232 17C235.697 18.5515 240.017 18 244 18C240.303 16.4485 235.983 17 232 17z"/>
    <path style="fill:#c4c4c4; stroke:none;" d="M244 17L245 18L244 17z"/>
    <path style="fill:#848484; stroke:none;" d="M267 17C270.432 18.4403 274.3 18 278 18C274.568 16.5597 270.7 17 267 17z"/>
    <path style="fill:#c6c6c6; stroke:none;" d="M301 17L302 18L301 17z"/>
    <path style="fill:#848484; stroke:none;" d="M302 17C305.163 18.3274 308.586 17.9996 312 18C308.837 16.6726 305.414 17.0004 302 17z"/>
    <path style="fill:#bebebe; stroke:none;" d="M337 17L338 18L337 17z"/>
    <path style="fill:#848484; stroke:none;" d="M338 17C341.697 18.5515 346.017 18 350 18C346.303 16.4485 341.983 17 338 17z"/>
    <path style="fill:#d0d0d0; stroke:none;" d="M350 17L351 18L350 17z"/>
    <path style="fill:#d3d3d3; stroke:none;" d="M54 18C55.2483 18.6848 55.5484 18.7488 57 19C55.7517 18.3152 55.4516 18.2512 54 18z"/>
    <path style="fill:#959595; stroke:none;" d="M57.6667 18.3333C57.2222 18.7778 58.2778 18.7222 58.3333 18.6667C58.7778 18.2222 57.7222 18.2778 57.6667 18.3333z"/>
    <path style="fill:#606060; stroke:none;" d="M59.6667 18.3333C59.2222 18.7778 60.2778 18.7222 60.3333 18.6667C60.7778 18.2222 59.7222 18.2778 59.6667 18.3333z"/>
    <path style="fill:#363636; stroke:none;" d="M61.6667 18.3333C61.2222 18.7778 62.2778 18.7222 62.3333 18.6667C62.7778 18.2222 61.7222 18.2778 61.6667 18.3333z"/>
    <path style="fill:#c3c3c3; stroke:none;" d="M83 18L84 19L83 18z"/>
    <path style="fill:#9d9d9d; stroke:none;" d="M172.333 18.6667C172.278 18.7223 172.222 19.7778 172.667 19.3333C172.722 19.2778 172.778 18.2222 172.333 18.6667z"/>
    <path style="fill:#000000; stroke:none;" d="M173 18C173.792 23.3567 176.193 27.9435 177.986 33C182.43 45.5351 187.499 58.1745 191 71L204 71C201.254 52.6672 190.173 36.0402 186 18L173 18z"/>
    <path style="fill:#a0a0a0; stroke:none;" d="M186 18L187 19L186 18z"/>
    <path style="fill:#5e5e5e; stroke:none;" d="M211 18L212 19L211 18z"/>
    <path style="fill:#000000; stroke:none;" d="M208 60C211.806 55.285 213.3 48.6314 215.424 43C218.464 34.9406 223.24 26.6464 224 18C220.736 18 215.344 17.0031 212.56 19.0278C209.94 20.9333 208.839 26.1231 207.623 29C205.693 33.5694 202.369 38.9241 202.37 44C202.372 49.2349 205.902 55.2903 208 60z"/>
    <path style="fill:#202020; stroke:none;" d="M224.333 18.6667C224.278 18.7223 224.222 19.7777 224.667 19.3333C224.722 19.2778 224.778 18.2222 224.333 18.6667z"/>
    <path style="fill:#000000; stroke:none;" d="M231 18C228.588 26.8354 224.796 35.4257 221.576 44C219.403 49.789 217.484 56.9311 220.009 62.9846C226.087 77.5507 251.646 70.1297 258.397 59.9599C262.563 53.6839 260 40.3243 260 33C255.415 37.7253 255.104 44.6996 251.351 49.9961C247.808 54.9957 234.093 62.4148 233.414 50.9846C233.213 47.6102 235.18 44.0814 236.319 41C239.087 33.5113 242.829 25.9313 244 18L231 18z"/>
    <path style="fill:#494949; stroke:none;" d="M244.333 18.6667C244.278 18.7223 244.222 19.7778 244.667 19.3333C244.722 19.2778 244.778 18.2222 244.333 18.6667z"/>
    <path style="fill:#787878; stroke:none;" d="M266 18L266 70C267.769 65.7849 267 60.5355 267 56L267 31C267 26.7396 267.661 21.9586 266 18z"/>
    <path style="fill:#000000; stroke:none;" d="M267 18L267 71C270.32 71 274.717 71.7123 277.7 69.9722C280.623 68.267 282.643 64.6748 284.576 62C288.924 55.9803 294.114 49.8615 297 43C304.23 46.9869 301 63.6397 301 71C305.044 71 310.342 71.8877 313.816 69.3966C317.428 66.8059 318.916 62.1318 323.015 60.0278C327.618 57.6645 334.948 59 340 59L340 50C336.578 49.9717 333.363 49.6245 330 49C335.32 38.3185 347.213 29.7538 350 18C346.472 18 341.614 17.1537 338.325 18.6034C334.779 20.1659 332.442 24.9821 330.291 28C325.186 35.1627 318.921 42.1274 315 50L313 50C310.591 39.8802 312 28.3669 312 18C308.881 18.0003 305 17.4443 302.174 19.0278C298.842 20.8945 296.743 24.9981 294.576 28C290.207 34.0496 284.694 39.9953 282 47C274.668 42.9571 278 25.4867 278 18L267 18z"/>
    <path style="fill:#787878; stroke:none;" d="M278 18L279 19L278 18z"/>
    <path style="fill:#c9c9c9; stroke:none;" d="M300 18L301 19L300 18z"/>
    <path style="fill:#383838; stroke:none;" d="M301 18L302 19L301 18z"/>
    <path style="fill:#9d9d9d; stroke:none;" d="M312 18L313 19L312 18z"/>
    <path style="fill:#cfcfcf; stroke:none;" d="M336 18L337 19L336 18z"/>
    <path style="fill:#5e5e5e; stroke:none;" d="M350.333 18.6667C350.278 18.7222 350.222 19.7777 350.667 19.3333C350.722 19.2777 350.778 18.2222 350.333 18.6667z"/>
    <path style="fill:#e1e1e1; stroke:none;" d="M351.333 18.6667C351.278 18.7222 351.222 19.7778 351.667 19.3333C351.722 19.2777 351.778 18.2222 351.333 18.6667z"/>
    <path style="fill:#bcbcbc; stroke:none;" d="M51 19C52.2484 19.6848 52.5484 19.7488 54 20C52.7517 19.3152 52.4516 19.2512 51 19z"/>
    <path style="fill:#454545; stroke:none;" d="M54.6667 19.3333C54.2222 19.7778 55.2778 19.7222 55.3333 19.6667C55.7778 19.2222 54.7222 19.2778 54.6667 19.3333z"/>
    <path style="fill:#323232; stroke:none;" d="M83 19C83.5451 20.6352 83.3648 20.4549 85 21C84.4549 19.3648 84.6352 19.5451 83 19z"/>
    <path style="fill:#cccccc; stroke:none;" d="M84 19L85 20L84 19z"/>
    <path style="fill:#363636; stroke:none;" d="M186.333 19.6667C186.278 19.7223 186.222 20.7777 186.667 20.3333C186.722 20.2778 186.778 19.2222 186.333 19.6667z"/>
    <path style="fill:#b4b4b4; stroke:none;" d="M210 19L211 20L210 19z"/>
    <path style="fill:#9d9d9d; stroke:none;" d="M230 19L231 20L230 19z"/>
    <path style="fill:#474747; stroke:none;" d="M278 19L278 46C280.541 39.9449 280.541 25.0551 278 19z"/>
    <path style="fill:#626262; stroke:none;" d="M300 19L301 20L300 19z"/>
    <path style="fill:#727272; stroke:none;" d="M312 19L312 48C313.328 44.8344 313 41.4186 313 38C313 32.1132 314.292 24.4623 312 19z"/>
    <path style="fill:#585858; stroke:none;" d="M336 19L337 20L336 19z"/>
    <path style="fill:#b2b2b2; stroke:none;" d="M48.6667 20.3333C48.2222 20.7778 49.2778 20.7222 49.3333 20.6667C49.7778 20.2222 48.7222 20.2778 48.6667 20.3333z"/>
    <path style="fill:#7a7a7a; stroke:none;" d="M50 20L51 21L50 20z"/>
    <path style="fill:#3f3f3f; stroke:none;" d="M51 20L52 21L51 20z"/>
    <path style="fill:#bababa; stroke:none;" d="M85 20L86 21L85 20z"/>
    <path style="fill:#c3c3c3; stroke:none;" d="M187 20L188 21L187 20z"/>
    <path style="fill:#747474; stroke:none;" d="M210 20L211 21L210 20z"/>
    <path style="fill:#727272; stroke:none;" d="M224 20L225 21L224 20z"/>
    <path style="fill:#434343; stroke:none;" d="M230 20L231 21L230 20z"/>
    <path style="fill:#777777; stroke:none;" d="M244 20L245 21L244 20z"/>
    <path style="fill:#8c8c8c; stroke:none;" d="M299 20L300 21L299 20z"/>
    <path style="fill:#8d8d8d; stroke:none;" d="M335 20L336 21L335 20z"/>
    <path style="fill:#b6b6b6; stroke:none;" d="M350 20L351 21L350 20z"/>
    <path style="fill:#bdbdbd; stroke:none;" d="M355.667 20.3333C355.222 20.7779 356.278 20.7221 356.333 20.6667C356.778 20.2223 355.722 20.2777 355.667 20.3333z"/>
    <path style="fill:#b8b8b8; stroke:none;" d="M46 21L47 22L46 21z"/>
    <path style="fill:#787878; stroke:none;" d="M47 21L48 22L47 21z"/>
    <path style="fill:#313131; stroke:none;" d="M48 21L49 22L48 21z"/>
    <path style="fill:#808080; stroke:none;" d="M86 21L87 22L86 21z"/>
    <path style="fill:#464646; stroke:none;" d="M173 21L174 22L173 21z"/>
    <path style="fill:#888888; stroke:none;" d="M187 21L188 22L187 21z"/>
    <path style="fill:#1b1b1b; stroke:none;" d="M210.333 21.6667C210.278 21.7223 210.222 22.7778 210.667 22.3333C210.722 22.2778 210.778 21.2222 210.333 21.6667z"/>
    <path style="fill:#cecece; stroke:none;" d="M224 21L225 22L224 21z"/>
    <path style="fill:#2e2e2e; stroke:none;" d="M243 21L244 22L243 21z"/>
    <path style="fill:#b9b9b9; stroke:none;" d="M244 21L245 22L244 21z"/>
    <path style="fill:#b5b5b5; stroke:none;" d="M298 21L299 22L298 21z"/>
    <path style="fill:#2b2b2b; stroke:none;" d="M299 21L300 22L299 21z"/>
    <path style="fill:#b8b8b8; stroke:none;" d="M334 21L335 22L334 21z"/>
    <path style="fill:#8f8f8f; stroke:none;" d="M349 21L350 22L349 21z"/>
    <path style="fill:#909090; stroke:none;" d="M354 21L355 22L354 21z"/>
    <path style="fill:#000000; stroke:none;" d="M355 21C351.995 25.4037 347.219 29.8991 345.564 35C344.371 38.6754 345 43.1852 345 47L345 71L357 71L357 21L355 21z"/>
    <path style="fill:#939393; stroke:none;" d="M357 21L358 22L357 21z"/>
    <path style="fill:#9a9a9a; stroke:none;" d="M44 22L45 23L44 22z"/>
    <path style="fill:#3e3e3e; stroke:none;" d="M45 22L46 23L45 22z"/>
    <path style="fill:#929292; stroke:none;" d="M88 22L89 23L88 22z"/>
    <path style="fill:#9f9f9f; stroke:none;" d="M173 22L174 23L173 22z"/>
    <path style="fill:#2e2e2e; stroke:none;" d="M187.333 22.6667C187.278 22.7223 187.222 23.7777 187.667 23.3333C187.722 23.2778 187.778 22.2222 187.333 22.6667z"/>
    <path style="fill:#9a9a9a; stroke:none;" d="M209 22L210 23L209 22z"/>
    <path style="fill:#3a3a3a; stroke:none;" d="M223 22L224 23L223 22z"/>
    <path style="fill:#7c7c7c; stroke:none;" d="M229 22L230 23L229 22z"/>
    <path style="fill:#5e5e5e; stroke:none;" d="M243 22L244 23L243 22z"/>
    <path style="fill:#4e4e4e; stroke:none;" d="M298 22L299 23L298 22z"/>
    <path style="fill:#d3d3d3; stroke:none;" d="M333 22L334 23L333 22z"/>
    <path style="fill:#3c3c3c; stroke:none;" d="M334 22L335 23L334 22z"/>
    <path style="fill:#575757; stroke:none;" d="M348 22L349 23L348 22z"/>
    <path style="fill:#b2b2b2; stroke:none;" d="M353 22L354 23L353 22z"/>
    <path style="fill:#6c6c6c; stroke:none;" d="M357 22L357 71C358.769 66.7849 358 61.5355 358 57L358 34C358 30.0172 358.552 25.6987 357 22z"/>
    <path style="fill:#d2d2d2; stroke:none;" d="M41 23L42 24L41 23z"/>
    <path style="fill:#848484; stroke:none;" d="M42 23L43 24L42 23z"/>
    <path style="fill:#2e2e2e; stroke:none;" d="M89 23L90 24L89 23z"/>
    <path style="fill:#a5a5a5; stroke:none;" d="M90 23L91 24L90 23z"/>
    <path style="fill:#bababa; stroke:none;" d="M188 23L189 24L188 23z"/>
    <path style="fill:#303030; stroke:none;" d="M209.333 23.6667C209.278 23.7223 209.222 24.7778 209.667 24.3333C209.722 24.2778 209.778 23.2222 209.333 23.6667z"/>
    <path style="fill:#949494; stroke:none;" d="M223 23L224 24L223 23z"/>
    <path style="fill:#929292; stroke:none;" d="M243 23L244 24L243 23z"/>
    <path style="fill:#747474; stroke:none;" d="M297 23L298 24L297 23z"/>
    <path style="fill:#737373; stroke:none;" d="M333 23L334 24L333 23z"/>
    <path style="fill:#444444; stroke:none;" d="M353 23L354 24L353 23z"/>
    <path style="fill:#7e7e7e; stroke:none;" d="M40 24L41 25L40 24z"/>
    <path style="fill:#4e4e4e; stroke:none;" d="M91 24L92 25L91 24z"/>
    <path style="fill:#c3c3c3; stroke:none;" d="M92 24L93 25L92 24z"/>
    <path style="fill:#535353; stroke:none;" d="M174 24L175 25L174 24z"/>
    <path style="fill:#7c7c7c; stroke:none;" d="M188 24L189 25L188 24z"/>
    <path style="fill:#c9c9c9; stroke:none;" d="M208 24L209 25L208 24z"/>
    <path style="fill:#bebebe; stroke:none;" d="M228 24L229 25L228 24z"/>
    <path style="fill:#424242; stroke:none;" d="M242 24L243 25L242 24z"/>
    <path style="fill:#cfcfcf; stroke:none;" d="M243 24L244 25L243 24z"/>
    <path style="fill:#a0a0a0; stroke:none;" d="M296 24L297 25L296 24z"/>
    <path style="fill:#9d9d9d; stroke:none;" d="M332 24L333 25L332 24z"/>
    <path style="fill:#b4b4b4; stroke:none;" d="M347 24L348 25L347 24z"/>
    <path style="fill:#656565; stroke:none;" d="M352 24L353 25L352 24z"/>
    <path style="fill:#919191; stroke:none;" d="M38 25L39 26L38 25z"/>
    <path style="fill:#787878; stroke:none;" d="M93 25L94 26L93 25z"/>
    <path style="fill:#aaaaaa; stroke:none;" d="M174 25L175 26L174 25z"/>
    <path style="fill:#272727; stroke:none;" d="M188.333 25.6667C188.278 25.7222 188.222 26.7778 188.667 26.3333C188.722 26.2777 188.778 25.2222 188.333 25.6667z"/>
    <path style="fill:#7f7f7f; stroke:none;" d="M208 25L209 26L208 25z"/>
    <path style="fill:#575757; stroke:none;" d="M222 25L223 26L222 25z"/>
    <path style="fill:#5c5c5c; stroke:none;" d="M228 25L229 26L228 25z"/>
    <path style="fill:#747474; stroke:none;" d="M242 25L243 26L242 25z"/>
    <path style="fill:#d3d3d3; stroke:none;" d="M295 25L296 26L295 25z"/>
    <path style="fill:#3a3a3a; stroke:none;" d="M296 25L297 26L296 25z"/>
    <path style="fill:#bebebe; stroke:none;" d="M331 25L332 26L331 25z"/>
    <path style="fill:#7c7c7c; stroke:none;" d="M346 25L347 26L346 25z"/>
    <path style="fill:#909090; stroke:none;" d="M351 25L352 26L351 25z"/>
    <path style="fill:#bbbbbb; stroke:none;" d="M36 26L37 27L36 26z"/>
    <path style="fill:#363636; stroke:none;" d="M37 26L38 27L37 26z"/>
    <path style="fill:#2b2b2b; stroke:none;" d="M94 26L95 27L94 26z"/>
    <path style="fill:#afafaf; stroke:none;" d="M95 26L96 27L95 26z"/>
    <path style="fill:#b1b1b1; stroke:none;" d="M189 26L190 27L189 26z"/>
    <path style="fill:#222222; stroke:none;" d="M208.333 26.6667C208.278 26.7222 208.222 27.7778 208.667 27.3333C208.722 27.2777 208.778 26.2222 208.333 26.6667z"/>
    <path style="fill:#b1b1b1; stroke:none;" d="M222 26L223 27L222 26z"/>
    <path style="fill:#ababab; stroke:none;" d="M242 26L243 27L242 26z"/>
    <path style="fill:#5c5c5c; stroke:none;" d="M295 26L296 27L295 26z"/>
    <path style="fill:#535353; stroke:none;" d="M331 26L332 27L331 26z"/>
    <path style="fill:#3c3c3c; stroke:none;" d="M345 26L346 27L345 26z"/>
    <path style="fill:#c6c6c6; stroke:none;" d="M350 26L351 27L350 26z"/>
    <path style="fill:#2c2c2c; stroke:none;" d="M351 26L352 27L351 26z"/>
    <path style="fill:#6f6f6f; stroke:none;" d="M35 27L36 28L35 27z"/>
    <path style="fill:#696969; stroke:none;" d="M96 27L97 28L96 27z"/>
    <path style="fill:#606060; stroke:none;" d="M175 27L176 28L175 27z"/>
    <path style="fill:#6f6f6f; stroke:none;" d="M189 27L190 28L189 27z"/>
    <path style="fill:#aeaeae; stroke:none;" d="M207 27L208 28L207 27z"/>
    <path style="fill:#303030; stroke:none;" d="M221 27L222 28L221 27z"/>
    <path style="fill:#9c9c9c; stroke:none;" d="M227 27L228 28L227 27z"/>
    <path style="fill:#585858; stroke:none;" d="M241 27L242 28L241 27z"/>
    <path style="fill:#898989; stroke:none;" d="M294 27L295 28L294 27z"/>
    <path style="fill:#818181; stroke:none;" d="M330 27L331 28L330 27z"/>
    <path style="fill:#454545; stroke:none;" d="M350 27L351 28L350 27z"/>
    <path style="fill:#cbcbcb; stroke:none;" d="M33 28L34 29L33 28z"/>
    <path style="fill:#2e2e2e; stroke:none;" d="M34 28L35 29L34 28z"/>
    <path style="fill:#2c2c2c; stroke:none;" d="M97 28L98 29L97 28z"/>
    <path style="fill:#b2b2b2; stroke:none;" d="M98 28L99 29L98 28z"/>
    <path style="fill:#b4b4b4; stroke:none;" d="M175 28L176 29L175 28z"/>
    <path style="fill:#2a2a2a; stroke:none;" d="M176.333 28.6667C176.278 28.7222 176.222 29.7778 176.667 29.3333C176.722 29.2777 176.778 28.2222 176.333 28.6667z"/>
    <path style="fill:#202020; stroke:none;" d="M189.333 28.6667C189.278 28.7222 189.222 29.7778 189.667 29.3333C189.722 29.2777 189.778 28.2222 189.333 28.6667z"/>
    <path style="fill:#616161; stroke:none;" d="M207 28L208 29L207 28z"/>
    <path style="fill:#787878; stroke:none;" d="M221 28L222 29L221 28z"/>
    <path style="fill:#3e3e3e; stroke:none;" d="M227 28L228 29L227 28z"/>
    <path style="fill:#8d8d8d; stroke:none;" d="M241 28L242 29L241 28z"/>
    <path style="fill:#c2c2c2; stroke:none;" d="M293 28L294 29L293 28z"/>
    <path style="fill:#2b2b2b; stroke:none;" d="M294 28L295 29L294 28z"/>
    <path style="fill:#a4a4a4; stroke:none;" d="M329 28L330 29L329 28M344 28L345 29L344 28z"/>
    <path style="fill:#6b6b6b; stroke:none;" d="M349 28L350 29L349 28z"/>
    <path style="fill:#959595; stroke:none;" d="M32 29L33 30L32 29z"/>
    <path style="fill:#7a7a7a; stroke:none;" d="M99 29L100 30L99 29z"/>
    <path style="fill:#6e6e6e; stroke:none;" d="M167 29L168 30L167 29z"/>
    <path style="fill:#000000; stroke:none;" d="M168 29C162.097 41.6215 155.04 57.1891 153 71L165 71C167.848 63.0405 174.346 53.6338 174.349 45C174.35 39.6809 171.194 34.161 170 29L168 29z"/>
    <path style="fill:#a7a7a7; stroke:none;" d="M190 29L191 30L190 29z"/>
    <path style="fill:#cdcdcd; stroke:none;" d="M221 29L222 30L221 29z"/>
    <path style="fill:#343434; stroke:none;" d="M240 29L241 30L240 29z"/>
    <path style="fill:#c0c0c0; stroke:none;" d="M241 29L242 30L241 29z"/>
    <path style="fill:#454545; stroke:none;" d="M293 29L294 30L293 29z"/>
    <path style="fill:#c4c4c4; stroke:none;" d="M328 29L329 30L328 29z"/>
    <path style="fill:#373737; stroke:none;" d="M329 29L330 30L329 29z"/>
    <path style="fill:#616161; stroke:none;" d="M343 29L344 30L343 29z"/>
    <path style="fill:#a4a4a4; stroke:none;" d="M348 29L349 30L348 29z"/>
    <path style="fill:#686868; stroke:none;" d="M31 30L32 31L31 30z"/>
    <path style="fill:#4a4a4a; stroke:none;" d="M100 30L101 31L100 30z"/>
    <path style="fill:#d3d3d3; stroke:none;" d="M101 30L102 31L101 30z"/>
    <path style="fill:#949494; stroke:none;" d="M170 30L171 31L170 30z"/>
    <path style="fill:#6f6f6f; stroke:none;" d="M176 30L177 31L176 30z"/>
    <path style="fill:#606060; stroke:none;" d="M190 30L191 31L190 30z"/>
    <path style="fill:#929292; stroke:none;" d="M206 30L207 31L206 30z"/>
    <path style="fill:#484848; stroke:none;" d="M220 30L221 31L220 30z"/>
    <path style="fill:#7c7c7c; stroke:none;" d="M226 30L227 31L226 30z"/>
    <path style="fill:#717171; stroke:none;" d="M240 30L241 31L240 30z"/>
    <path style="fill:#6d6d6d; stroke:none;" d="M292 30L293 31L292 30z"/>
    <path style="fill:#616161; stroke:none;" d="M328 30L329 31L328 30z"/>
    <path style="fill:#494949; stroke:none;" d="M30 31L31 32L30 31z"/>
    <path style="fill:#adadad; stroke:none;" d="M102 31L103 32L102 31z"/>
    <path style="fill:#969696; stroke:none;" d="M166 31L167 32L166 31z"/>
    <path style="fill:#414141; stroke:none;" d="M170 31L171 32L170 31z"/>
    <path style="fill:#bebebe; stroke:none;" d="M176 31L177 32L176 31z"/>
    <path style="fill:#373737; stroke:none;" d="M177.333 31.6667C177.278 31.7222 177.222 32.7778 177.667 32.3333C177.722 32.2777 177.778 31.2222 177.333 31.6667z"/>
    <path style="fill:#1b1b1b; stroke:none;" d="M190.333 31.6667C190.278 31.7222 190.222 32.7778 190.667 32.3333C190.722 32.2777 190.778 31.2222 190.333 31.6667z"/>
    <path style="fill:#232323; stroke:none;" d="M206.333 31.6667C206.278 31.7222 206.222 32.7778 206.667 32.3333C206.722 32.2777 206.778 31.2222 206.333 31.6667z"/>
    <path style="fill:#979797; stroke:none;" d="M220 31L221 32L220 31z"/>
    <path style="fill:#a5a5a5; stroke:none;" d="M240 31L241 32L240 31z"/>
    <path style="fill:#aaaaaa; stroke:none;" d="M291 31L292 32L291 31z"/>
    <path style="fill:#858585; stroke:none;" d="M327 31L328 32L327 31z"/>
    <path style="fill:#c9c9c9; stroke:none;" d="M342 31L343 32L342 31z"/>
    <path style="fill:#484848; stroke:none;" d="M347 31L348 32L347 31z"/>
    <path style="fill:#3b3b3b; stroke:none;" d="M29 32L30 33L29 32z"/>
    <path style="fill:#878787; stroke:none;" d="M103 32L104 33L103 32z"/>
    <path style="fill:#3c3c3c; stroke:none;" d="M166 32L167 33L166 32z"/>
    <path style="fill:#9d9d9d; stroke:none;" d="M191 32L192 33L191 32z"/>
    <path style="fill:#c8c8c8; stroke:none;" d="M205 32L206 33L205 32z"/>
    <path style="fill:#313131; stroke:none;" d="M219 32L220 33L219 32z"/>
    <path style="fill:#b9b9b9; stroke:none;" d="M225 32L226 33L225 32z"/>
    <path style="fill:#4c4c4c; stroke:none;" d="M239 32L240 33L239 32z"/>
    <path style="fill:#d4d4d4; stroke:none;" d="M240 32L241 33L240 32z"/>
    <path style="fill:#313131; stroke:none;" d="M291 32L292 33L291 32z"/>
    <path style="fill:#a9a9a9; stroke:none;" d="M326 32L327 33L326 32z"/>
    <path style="fill:#8b8b8b; stroke:none;" d="M341 32L342 33L341 32z"/>
    <path style="fill:#7b7b7b; stroke:none;" d="M346 32L347 33L346 32z"/>
    <path style="fill:#333333; stroke:none;" d="M28 33L29 34L28 33z"/>
    <path style="fill:#6d6d6d; stroke:none;" d="M104 33L105 34L104 33z"/>
    <path style="fill:#c9c9c9; stroke:none;" d="M165 33L166 34L165 33z"/>
    <path style="fill:#989898; stroke:none;" d="M171 33L172 34L171 33z"/>
    <path style="fill:#7b7b7b; stroke:none;" d="M177 33L178 34L177 33z"/>
    <path style="fill:#2c2c2c; stroke:none;" d="M191.333 33.6667C191.278 33.7222 191.222 34.7778 191.667 34.3333C191.722 34.2777 191.778 33.2222 191.333 33.6667z"/>
    <path style="fill:#737373; stroke:none;" d="M205 33L206 34L205 33z"/>
    <path style="fill:#686868; stroke:none;" d="M219 33L220 34L219 33z"/>
    <path style="fill:#5c5c5c; stroke:none;" d="M225 33L226 34L225 33z"/>
    <path style="fill:#8b8b8b; stroke:none;" d="M239 33L240 34L239 33z"/>
    <path style="fill:#5a5a5a; stroke:none;" d="M258 33L259 34L258 33z"/>
    <path style="fill:#7e7e7e; stroke:none;" d="M260 33L261 34L260 33z"/>
    <path style="fill:#565656; stroke:none;" d="M290 33L291 34L290 33z"/>
    <path style="fill:#d1d1d1; stroke:none;" d="M325 33L326 34L325 33z"/>
    <path style="fill:#454545; stroke:none;" d="M326 33L327 34L326 33z"/>
    <path style="fill:#464646; stroke:none;" d="M340 33L341 34L340 33z"/>
    <path style="fill:#bbbbbb; stroke:none;" d="M345 33L346 34L345 33z"/>
    <path style="fill:#3e3e3e; stroke:none;" d="M27 34L28 35L27 34z"/>
    <path style="fill:#585858; stroke:none;" d="M105 34L106 35L105 34z"/>
    <path style="fill:#787878; stroke:none;" d="M165 34L166 35L165 34z"/>
    <path style="fill:#444444; stroke:none;" d="M171 34L172 35L171 34z"/>
    <path style="fill:#c9c9c9; stroke:none;" d="M177 34L178 35L177 34z"/>
    <path style="fill:#444444; stroke:none;" d="M178.333 34.6667C178.278 34.7222 178.222 35.7778 178.667 35.3333C178.722 35.2777 178.778 34.2222 178.333 34.6667M218.333 34.6667C218.278 34.7222 218.222 35.7778 218.667 35.3333C218.722 35.2777 218.778 34.2222 218.333 34.6667z"/>
    <path style="fill:#b4b4b4; stroke:none;" d="M219 34L220 35L219 34z"/>
    <path style="fill:#bababa; stroke:none;" d="M239 34L240 35L239 34z"/>
    <path style="fill:#c6c6c6; stroke:none;" d="M257 34L258 35L257 34z"/>
    <path style="fill:#0f0f0f; stroke:none;" d="M260 34L260 58C262.349 52.4031 262.349 39.5969 260 34z"/>
    <path style="fill:#e0e0e0; stroke:none;" d="M261 34L261 58C263.349 52.4031 263.349 39.5969 261 34z"/>
    <path style="fill:#939393; stroke:none;" d="M289 34L290 35L289 34z"/>
    <path style="fill:#676767; stroke:none;" d="M325 34L326 35L325 34z"/>
    <path style="fill:#4b4b4b; stroke:none;" d="M26 35L27 36L26 35z"/>
    <path style="fill:#4e4e4e; stroke:none;" d="M106 35L107 36L106 35z"/>
    <path style="fill:#929292; stroke:none;" d="M192 35L193 36L192 35z"/>
    <path style="fill:#acacac; stroke:none;" d="M204 35L205 36L204 35z"/>
    <path style="fill:#999999; stroke:none;" d="M224 35L225 36L224 35z"/>
    <path style="fill:#656565; stroke:none;" d="M238 35L239 36L238 35z"/>
    <path style="fill:#696969; stroke:none;" d="M257 35L258 36L257 35z"/>
    <path style="fill:#d4d4d4; stroke:none;" d="M288 35L289 36L288 35z"/>
    <path style="fill:#8c8c8c; stroke:none;" d="M324 35L325 36L324 35z"/>
    <path style="fill:#b0b0b0; stroke:none;" d="M339 35L340 36L339 35z"/>
    <path style="fill:#585858; stroke:none;" d="M344 35L345 36L344 35z"/>
    <path style="fill:#686868; stroke:none;" d="M25 36L26 37L25 36z"/>
    <path style="fill:#484848; stroke:none;" d="M107 36L108 37L107 36z"/>
    <path style="fill:#ababab; stroke:none;" d="M164 36L165 37L164 36z"/>
    <path style="fill:#9d9d9d; stroke:none;" d="M172 36L173 37L172 36z"/>
    <path style="fill:#878787; stroke:none;" d="M178 36L179 37L178 36z"/>
    <path style="fill:#232323; stroke:none;" d="M192.333 36.6667C192.278 36.7222 192.222 37.7778 192.667 37.3333C192.722 37.2777 192.778 36.2222 192.333 36.6667z"/>
    <path style="fill:#525252; stroke:none;" d="M204 36L205 37L204 36z"/>
    <path style="fill:#838383; stroke:none;" d="M218 36L219 37L218 36z"/>
    <path style="fill:#3b3b3b; stroke:none;" d="M224 36L225 37L224 36z"/>
    <path style="fill:#cdcdcd; stroke:none;" d="M238.333 36.6667C238.278 36.7222 238.222 37.7778 238.667 37.3333C238.722 37.2777 238.778 36.2222 238.333 36.6667z"/>
    <path style="fill:#444444; stroke:none;" d="M288 36L289 37L288 36z"/>
    <path style="fill:#b8b8b8; stroke:none;" d="M323 36L324 37L323 36z"/>
    <path style="fill:#2d2d2d; stroke:none;" d="M324 36L325 37L324 36z"/>
    <path style="fill:#6f6f6f; stroke:none;" d="M338 36L339 37L338 36z"/>
    <path style="fill:#c7c7c7; stroke:none;" d="M343 36L343 70C345.802 63.3226 344 53.2153 344 46C344 42.5814 344.328 39.1656 343 36z"/>
    <path style="fill:#0d0d0d; stroke:none;" d="M344 36L344 71C345.441 67.5654 345 63.7024 345 60C345 52.7844 346.802 42.6777 344 36z"/>
    <path style="fill:#8e8e8e; stroke:none;" d="M24 37L25 38L24 37z"/>
    <path style="fill:#474747; stroke:none;" d="M108 37L109 38L108 37z"/>
    <path style="fill:#5a5a5a; stroke:none;" d="M164 37L165 38L164 37z"/>
    <path style="fill:#484848; stroke:none;" d="M172 37L173 38L172 37z"/>
    <path style="fill:#d4d4d4; stroke:none;" d="M178 37L179 38L178 37z"/>
    <path style="fill:#525252; stroke:none;" d="M179.333 37.6667C179.278 37.7222 179.222 38.7778 179.667 38.3333C179.722 38.2777 179.778 37.2222 179.333 37.6667z"/>
    <path style="fill:#323232; stroke:none;" d="M217 37L218 38L217 37z"/>
    <path style="fill:#d0d0d0; stroke:none;" d="M218 37L219 38L218 37z"/>
    <path style="fill:#cccccc; stroke:none;" d="M223 37L224 38L223 37z"/>
    <path style="fill:#383838; stroke:none;" d="M237 37L238 38L237 37z"/>
    <path style="fill:#a9a9a9; stroke:none;" d="M256 37L257 38L256 37z"/>
    <path style="fill:#7b7b7b; stroke:none;" d="M287 37L288 38L287 37z"/>
    <path style="fill:#4d4d4d; stroke:none;" d="M323 37L324 38L323 37z"/>
    <path style="fill:#373737; stroke:none;" d="M337 37L338 38L337 37z"/>
    <path style="fill:#bcbcbc; stroke:none;" d="M23 38L24 39L23 38z"/>
    <path style="fill:#494949; stroke:none;" d="M109 38L110 39L109 38z"/>
    <path style="fill:#cdcdcd; stroke:none;" d="M163 38L164 39L163 38z"/>
    <path style="fill:#878787; stroke:none;" d="M193 38L194 39L193 38z"/>
    <path style="fill:#8d8d8d; stroke:none;" d="M203 38L204 39L203 38z"/>
    <path style="fill:#5d5d5d; stroke:none;" d="M217 38L218 39L217 38z"/>
    <path style="fill:#7b7b7b; stroke:none;" d="M223 38L224 39L223 38z"/>
    <path style="fill:#828282; stroke:none;" d="M237 38L238 39L237 38z"/>
    <path style="fill:#474747; stroke:none;" d="M256 38L257 39L256 38z"/>
    <path style="fill:#bfbfbf; stroke:none;" d="M286 38L287 39L286 38z"/>
    <path style="fill:#707070; stroke:none;" d="M322 38L323 39L322 38z"/>
    <path style="fill:#c9c9c9; stroke:none;" d="M337 38L338 39L337 38z"/>
    <path style="fill:#2e2e2e; stroke:none;" d="M23 39L24 40L23 39z"/>
    <path style="fill:#525252; stroke:none;" d="M110 39L111 40L110 39z"/>
    <path style="fill:#8e8e8e; stroke:none;" d="M163 39L164 40L163 39z"/>
    <path style="fill:#a1a1a1; stroke:none;" d="M173 39L174 40L173 39z"/>
    <path style="fill:#929292; stroke:none;" d="M179 39L180 40L179 39z"/>
    <path style="fill:#1b1b1b; stroke:none;" d="M193.333 39.6667C193.278 39.7222 193.222 40.7778 193.667 40.3333C193.722 40.2777 193.778 39.2222 193.333 39.6667z"/>
    <path style="fill:#9d9d9d; stroke:none;" d="M217 39L218 40L217 39z"/>
    <path style="fill:#dddddd; stroke:none;" d="M237.333 39.6667C237.278 39.7222 237.222 40.7778 237.667 40.3333C237.722 40.2777 237.778 39.2222 237.333 39.6667z"/>
    <path style="fill:#353535; stroke:none;" d="M286 39L287 40L286 39z"/>
    <path style="fill:#9c9c9c; stroke:none;" d="M321 39L322 40L321 39z"/>
    <path style="fill:#929292; stroke:none;" d="M336 39L337 40L336 39z"/>
    <path style="fill:#626262; stroke:none;" d="M22 40L23 41L22 40z"/>
    <path style="fill:#646464; stroke:none;" d="M111 40L112 41L111 40z"/>
    <path style="fill:#3c3c3c; stroke:none;" d="M163 40L164 41L163 40z"/>
    <path style="fill:#4c4c4c; stroke:none;" d="M173 40L174 41L173 40z"/>
    <path style="fill:#343434; stroke:none;" d="M180 40L181 41L180 40z"/>
    <path style="fill:#cfcfcf; stroke:none;" d="M194 40L195 41L194 40z"/>
    <path style="fill:#cacaca; stroke:none;" d="M202 40L203 41L202 40z"/>
    <path style="fill:#444444; stroke:none;" d="M216 40L217 41L216 40z"/>
    <path style="fill:#b0b0b0; stroke:none;" d="M222 40L223 41L222 40z"/>
    <path style="fill:#515151; stroke:none;" d="M236 40L237 41L236 40z"/>
    <path style="fill:#8a8a8a; stroke:none;" d="M255 40L256 41L255 40z"/>
    <path style="fill:#6b6b6b; stroke:none;" d="M285 40L286 41L285 40z"/>
    <path style="fill:#cfcfcf; stroke:none;" d="M320 40L321 41L320 40z"/>
    <path style="fill:#353535; stroke:none;" d="M321 40L322 41L321 40z"/>
    <path style="fill:#5b5b5b; stroke:none;" d="M335 40L336 41L335 40z"/>
    <path style="fill:#a4a4a4; stroke:none;" d="M21 41L22 42L21 41z"/>
    <path style="fill:#797979; stroke:none;" d="M112 41L113 42L112 41z"/>
    <path style="fill:#b7b7b7; stroke:none;" d="M162 41L163 42L162 41z"/>
    <path style="fill:#606060; stroke:none;" d="M180 41L181 42L180 41z"/>
    <path style="fill:#7b7b7b; stroke:none;" d="M194 41L195 42L194 41z"/>
    <path style="fill:#6c6c6c; stroke:none;" d="M202 41L203 42L202 41z"/>
    <path style="fill:#777777; stroke:none;" d="M216 41L217 42L216 41z"/>
    <path style="fill:#5b5b5b; stroke:none;" d="M222 41L223 42L222 41z"/>
    <path style="fill:#9d9d9d; stroke:none;" d="M236 41L237 42L236 41z"/>
    <path style="fill:#acacac; stroke:none;" d="M284 41L285 42L284 41z"/>
    <path style="fill:#555555; stroke:none;" d="M320 41L321 42L320 41z"/>
    <path style="fill:#323232; stroke:none;" d="M334 41L335 42L334 41z"/>
    <path style="fill:#d2d2d2; stroke:none;" d="M20 42L21 43L20 42z"/>
    <path style="fill:#9e9e9e; stroke:none;" d="M113 42L114 43L113 42z"/>
    <path style="fill:#737373; stroke:none;" d="M162 42L163 43L162 42z"/>
    <path style="fill:#a4a4a4; stroke:none;" d="M174 42L175 43L174 42z"/>
    <path style="fill:#9e9e9e; stroke:none;" d="M180 42L181 43L180 42z"/>
    <path style="fill:#2d2d2d; stroke:none;" d="M215 42L216 43L215 42z"/>
    <path style="fill:#b9b9b9; stroke:none;" d="M216 42L217 43L216 42z"/>
    <path style="fill:#d2d2d2; stroke:none;" d="M221 42L222 43L221 42z"/>
    <path style="fill:#c5c5c5; stroke:none;" d="M254 42L255 43L254 42z"/>
    <path style="fill:#838383; stroke:none;" d="M319 42L320 43L319 42z"/>
    <path style="fill:#aeaeae; stroke:none;" d="M334 42L335 43L334 42z"/>
    <path style="fill:#747474; stroke:none;" d="M20 43L21 44L20 43z"/>
    <path style="fill:#c5c5c5; stroke:none;" d="M114 43L115 44L114 43z"/>
    <path style="fill:#cccccc; stroke:none;" d="M161 43L162 44L161 43z"/>
    <path style="fill:#515151; stroke:none;" d="M174 43L175 44L174 43z"/>
    <path style="fill:#e2e2e2; stroke:none;" d="M175 43L175 47C175.71 45.2405 175.71 44.7595 175 43z"/>
    <path style="fill:#3f3f3f; stroke:none;" d="M181 43L182 44L181 43z"/>
    <path style="fill:#c8c8c8; stroke:none;" d="M195 43L196 44L195 43z"/>
    <path style="fill:#d1d1d1; stroke:none;" d="M201.333 43.6667C201.278 43.7222 201.222 44.7778 201.667 44.3333C201.722 44.2777 201.778 43.2222 201.333 43.6667z"/>
    <path style="fill:#5b5b5b; stroke:none;" d="M215 43L216 44L215 43z"/>
    <path style="fill:#949494; stroke:none;" d="M221 43L222 44L221 43z"/>
    <path style="fill:#6f6f6f; stroke:none;" d="M235 43L236 44L235 43z"/>
    <path style="fill:#686868; stroke:none;" d="M254 43L255 44L254 43z"/>
    <path style="fill:#5c5c5c; stroke:none;" d="M283 43L284 44L283 43z"/>
    <path style="fill:#373737; stroke:none;" d="M297 43L298 44L297 43z"/>
    <path style="fill:#848484; stroke:none;" d="M298 43L299 44L298 43z"/>
    <path style="fill:#585858; stroke:none;" d="M299 43L300 44L299 43z"/>
    <path style="fill:#b7b7b7; stroke:none;" d="M318 43L319 44L318 43z"/>
    <path style="fill:#7c7c7c; stroke:none;" d="M333 43L334 44L333 43z"/>
    <path style="fill:#b6b6b6; stroke:none;" d="M19 44L20 45L19 44z"/>
    <path style="fill:#3c3c3c; stroke:none;" d="M114 44L115 45L114 44z"/>
    <path style="fill:#9c9c9c; stroke:none;" d="M161 44L162 45L161 44z"/>
    <path style="fill:#6d6d6d; stroke:none;" d="M181 44L182 45L181 44z"/>
    <path style="fill:#6f6f6f; stroke:none;" d="M195 44L196 45L195 44z"/>
    <path style="fill:#919191; stroke:none;" d="M215 44L216 45L215 44z"/>
    <path style="fill:#3b3b3b; stroke:none;" d="M221 44L222 45L221 44z"/>
    <path style="fill:#dcdcdc; stroke:none;" d="M235.333 44.6667C235.278 44.7222 235.222 45.7778 235.667 45.3333C235.722 45.2778 235.778 44.2222 235.333 44.6667z"/>
    <path style="fill:#9b9b9b; stroke:none;" d="M282 44L283 45L282 44z"/>
    <path style="fill:#acacac; stroke:none;" d="M297 44L298 45L297 44z"/>
    <path style="fill:#dbdbdb; stroke:none;" d="M299 44L299 70C301.477 64.097 301.477 49.903 299 44z"/>
    <path style="fill:#545454; stroke:none;" d="M300 44L300 71C302.541 64.9449 302.541 50.0551 300 44z"/>
    <path style="fill:#3c3c3c; stroke:none;" d="M318 44L319 45L318 44z"/>
    <path style="fill:#515151; stroke:none;" d="M332 44L333 45L332 44z"/>
    <path style="fill:#565656; stroke:none;" d="M19 45L20 46L19 45z"/>
    <path style="fill:#6e6e6e; stroke:none;" d="M115 45L116 46L115 45z"/>
    <path style="fill:#555555; stroke:none;" d="M161 45L162 46L161 45z"/>
    <path style="fill:#aaaaaa; stroke:none;" d="M181 45L182 46L181 45z"/>
    <path style="fill:#404040; stroke:none;" d="M214 45L215 46L214 45z"/>
    <path style="fill:#d1d1d1; stroke:none;" d="M215 45L216 46L215 45z"/>
    <path style="fill:#bcbcbc; stroke:none;" d="M220 45L221 46L220 45z"/>
    <path style="fill:#353535; stroke:none;" d="M234 45L235 46L234 45z"/>
    <path style="fill:#aaaaaa; stroke:none;" d="M253 45L254 46L253 45z"/>
    <path style="fill:#cdcdcd; stroke:none;" d="M281 45L282 46L281 45z"/>
    <path style="fill:#8c8c8c; stroke:none;" d="M296 45L297 46L296 45z"/>
    <path style="fill:#696969; stroke:none;" d="M317 45L318 46L317 45z"/>
    <path style="fill:#323232; stroke:none;" d="M331 45L332 46L331 45z"/>
    <path style="fill:#c5c5c5; stroke:none;" d="M332 45L333 46L332 45z"/>
    <path style="fill:#a5a5a5; stroke:none;" d="M18 46L19 47L18 46z"/>
    <path style="fill:#a8a8a8; stroke:none;" d="M116 46L117 47L116 46z"/>
    <path style="fill:#b8b8b8; stroke:none;" d="M160 46L161 47L160 46z"/>
    <path style="fill:#464646; stroke:none;" d="M174 46L175 47L174 46z"/>
    <path style="fill:#4b4b4b; stroke:none;" d="M182 46L183 47L182 46z"/>
    <path style="fill:#bfbfbf; stroke:none;" d="M196 46L197 47L196 46z"/>
    <path style="fill:#777777; stroke:none;" d="M202 46L203 47L202 46z"/>
    <path style="fill:#727272; stroke:none;" d="M214 46L215 47L214 46z"/>
    <path style="fill:#767676; stroke:none;" d="M220 46L221 47L220 46z"/>
    <path style="fill:#8d8d8d; stroke:none;" d="M234 46L235 47L234 46z"/>
    <path style="fill:#484848; stroke:none;" d="M253 46L254 47L253 46z"/>
    <path style="fill:#afafaf; stroke:none;" d="M279.667 46.3333C279.222 46.7777 280.278 46.7223 280.333 46.6667C280.778 46.2222 279.722 46.2778 279.667 46.3333z"/>
    <path style="fill:#4c4c4c; stroke:none;" d="M281 46L282 47L281 46z"/>
    <path style="fill:#5f5f5f; stroke:none;" d="M295 46L296 47L295 46z"/>
    <path style="fill:#a2a2a2; stroke:none;" d="M316 46L317 47L316 46z"/>
    <path style="fill:#919191; stroke:none;" d="M331 46L332 47L331 46z"/>
    <path style="fill:#4e4e4e; stroke:none;" d="M18 47L19 48L18 47z"/>
    <path style="fill:#4a4a4a; stroke:none;" d="M27 47L28 48L27 47z"/>
    <path style="fill:#959595; stroke:none;" d="M28 47C29.2484 47.6848 29.5484 47.7488 31 48C29.7516 47.3152 29.4516 47.2512 28 47z"/>
    <path style="fill:#616161; stroke:none;" d="M31 47L32 48L31 47z"/>
    <path style="fill:#333333; stroke:none;" d="M32 47L33 48L32 47z"/>
    <path style="fill:#838383; stroke:none;" d="M160 47L161 48L160 47z"/>
    <path style="fill:#a4a4a4; stroke:none;" d="M174 47L175 48L174 47z"/>
    <path style="fill:#7a7a7a; stroke:none;" d="M182 47L183 48L182 47z"/>
    <path style="fill:#646464; stroke:none;" d="M196 47L197 48L196 47z"/>
    <path style="fill:#cacaca; stroke:none;" d="M202 47L203 48L202 47z"/>
    <path style="fill:#aaaaaa; stroke:none;" d="M214 47L215 48L214 47z"/>
    <path style="fill:#a9a9a9; stroke:none;" d="M219.333 47.6667C219.278 47.7222 219.222 48.7777 219.667 48.3333C219.722 48.2777 219.778 47.2222 219.333 47.6667z"/>
    <path style="fill:#333333; stroke:none;" d="M294 47L295 48L294 47z"/>
    <path style="fill:#cacaca; stroke:none;" d="M295 47L296 48L295 47z"/>
    <path style="fill:#d3d3d3; stroke:none;" d="M315 47L316 48L315 47z"/>
    <path style="fill:#1a1a1a; stroke:none;" d="M330.333 47.6667C330.278 47.7222 330.222 48.7778 330.667 48.3333C330.722 48.2778 330.778 47.2223 330.333 47.6667z"/>
    <path style="fill:#cfcfcf; stroke:none;" d="M331 47L332 48L331 47z"/>
    <path style="fill:#a1a1a1; stroke:none;" d="M17 48L18 49L17 48z"/>
    <path style="fill:#3e3e3e; stroke:none;" d="M26 48L27 49L26 48z"/>
    <path style="fill:#c2c2c2; stroke:none;" d="M32 48L33 49L32 48z"/>
    <path style="fill:#686868; stroke:none;" d="M33 48L34 49L33 48z"/>
    <path style="fill:#676767; stroke:none;" d="M79.6667 48.3333C79.2222 48.7778 80.2778 48.7222 80.3333 48.6667C80.7778 48.2222 79.7222 48.2778 79.6667 48.3333z"/>
    <path style="fill:#949494; stroke:none;" d="M81 48C82.5061 48.683 83.3148 48.8259 85 49C83.494 48.317 82.6852 48.1741 81 48z"/>
    <path style="fill:#3c3c3c; stroke:none;" d="M85.6667 48.3333C85.2222 48.7778 86.2778 48.7222 86.3333 48.6667C86.7778 48.2222 85.7222 48.2778 85.6667 48.3333z"/>
    <path style="fill:#6a6a6a; stroke:none;" d="M117 48L118 49L117 48z"/>
    <path style="fill:#cdcdcd; stroke:none;" d="M159 48L160 49L159 48z"/>
    <path style="fill:#3a3a3a; stroke:none;" d="M160 48L161 49L160 48z"/>
    <path style="fill:#b5b5b5; stroke:none;" d="M182 48L183 49L182 48z"/>
    <path style="fill:#2c2c2c; stroke:none;" d="M183 48L184 49L183 48z"/>
    <path style="fill:#565656; stroke:none;" d="M213 48L214 49L213 48z"/>
    <path style="fill:#4c4c4c; stroke:none;" d="M233 48L234 49L233 48z"/>
    <path style="fill:#7d7d7d; stroke:none;" d="M252 48L253 49L252 48z"/>
    <path style="fill:#a8a8a8; stroke:none;" d="M294 48L295 49L294 48z"/>
    <path style="fill:#2d2d2d; stroke:none;" d="M312 48L313 49L312 48z"/>
    <path style="fill:#c9c9c9; stroke:none;" d="M313.667 48.3333C313.222 48.7777 314.278 48.7222 314.333 48.6667C314.778 48.2222 313.722 48.2778 313.667 48.3333z"/>
    <path style="fill:#4a4a4a; stroke:none;" d="M315 48L316 49L315 48z"/>
    <path style="fill:#7f7f7f; stroke:none;" d="M331 48L332 49L331 48z"/>
    <path style="fill:#cacaca; stroke:none;" d="M332 48C334.331 48.9845 336.457 48.9813 339 49C336.668 48.0154 334.543 48.0187 332 48z"/>
    <path style="fill:#555555; stroke:none;" d="M17 49L18 50L17 49z"/>
    <path style="fill:#adadad; stroke:none;" d="M26 49L27 50L26 49z"/>
    <path style="fill:#9c9c9c; stroke:none;" d="M34 49L35 50L34 49z"/>
    <path style="fill:#313131; stroke:none;" d="M35 49L36 50L35 49z"/>
    <path style="fill:#363636; stroke:none;" d="M77 49L78 50L77 49z"/>
    <path style="fill:#8e8e8e; stroke:none;" d="M78 49L79 50L78 49z"/>
    <path style="fill:#ffffff; stroke:none;" d="M79.044 50.0278C65.4779 57.2393 82.3009 70.1533 90 72.6404C92.6795 73.506 96.0948 74.5013 98.6821 72.8171C102.063 70.6162 101.025 65.1568 99.8665 62C97.218 54.7831 87.3654 45.6042 79.044 50.0278z"/>
    <path style="fill:#999999; stroke:none;" d="M87 49L88 50L87 49z"/>
    <path style="fill:#545454; stroke:none;" d="M88 49L89 50L88 49z"/>
    <path style="fill:#b6b6b6; stroke:none;" d="M118 49L119 50L118 49z"/>
    <path style="fill:#a1a1a1; stroke:none;" d="M159 49L160 50L159 49z"/>
    <path style="fill:#666666; stroke:none;" d="M173 49L174 50L173 49z"/>
    <path style="fill:#585858; stroke:none;" d="M183 49L184 50L183 49z"/>
    <path style="fill:#b4b4b4; stroke:none;" d="M197 49L198 50L197 49z"/>
    <path style="fill:#757575; stroke:none;" d="M203 49L204 50L203 49z"/>
    <path style="fill:#8b8b8b; stroke:none;" d="M213 49L214 50L213 49z"/>
    <path style="fill:#cecece; stroke:none;" d="M218 49L218 52C218.696 50.4463 218.696 50.5537 218 49z"/>
    <path style="fill:#686868; stroke:none;" d="M219 49L220 50L219 49z"/>
    <path style="fill:#aaaaaa; stroke:none;" d="M233 49L233 53C233.71 51.2406 233.71 50.7594 233 49z"/>
    <path style="fill:#d3d3d3; stroke:none;" d="M251 49L252 50L251 49z"/>
    <path style="fill:#7b7b7b; stroke:none;" d="M293 49L294 50L293 49z"/>
    <path style="fill:#2e2e2e; stroke:none;" d="M313.667 49.3333C313.222 49.7777 314.278 49.7222 314.333 49.6667C314.778 49.2222 313.722 49.2778 313.667 49.3333z"/>
    <path style="fill:#353535; stroke:none;" d="M332 49C334.331 49.9845 336.457 49.9813 339 50C336.668 49.0154 334.543 49.0187 332 49z"/>
    <path style="fill:#8c8c8c; stroke:none;" d="M339 49L340 50L339 49z"/>
    <path style="fill:#a7a7a7; stroke:none;" d="M16 50L17 51L16 50z"/>
    <path style="fill:#cdcdcd; stroke:none;" d="M26.3333 50.6667C26.2778 50.7222 26.2222 51.7778 26.6667 51.3333C26.7222 51.2778 26.7778 50.2222 26.3333 50.6667z"/>
    <path style="fill:#bdbdbd; stroke:none;" d="M35 50L36 51L35 50z"/>
    <path style="fill:#3b3b3b; stroke:none;" d="M36 50L37 51L36 50z"/>
    <path style="fill:#434343; stroke:none;" d="M76 50L77 51L76 50z"/>
    <path style="fill:#cacaca; stroke:none;" d="M77 50L78 51L77 50z"/>
    <path style="fill:#b3b3b3; stroke:none;" d="M89 50L90 51L89 50z"/>
    <path style="fill:#545454; stroke:none;" d="M90 50L91 51L90 50z"/>
    <path style="fill:#3b3b3b; stroke:none;" d="M118 50L119 51L118 50z"/>
    <path style="fill:#686868; stroke:none;" d="M159 50L160 51L159 50z"/>
    <path style="fill:#c0c0c0; stroke:none;" d="M173 50L174 51L173 50z"/>
    <path style="fill:#878787; stroke:none;" d="M183 50L184 51L183 50z"/>
    <path style="fill:#5a5a5a; stroke:none;" d="M197 50L198 51L197 50z"/>
    <path style="fill:#c5c5c5; stroke:none;" d="M203 50L204 51L203 50z"/>
    <path style="fill:#343434; stroke:none;" d="M212 50L213 51L212 50z"/>
    <path style="fill:#c1c1c1; stroke:none;" d="M213 50L214 51L213 50z"/>
    <path style="fill:#666666; stroke:none;" d="M251 50L252 51L251 50z"/>
    <path style="fill:#454545; stroke:none;" d="M292 50L293 51L292 50z"/>
    <path style="fill:#696969; stroke:none;" d="M16 51L17 52L16 51z"/>
    <path style="fill:#c3c3c3; stroke:none;" d="M36 51L37 52L36 51z"/>
    <path style="fill:#3a3a3a; stroke:none;" d="M37 51L38 52L37 51z"/>
    <path style="fill:#383838; stroke:none;" d="M75 51L76 52L75 51z"/>
    <path style="fill:#cacaca; stroke:none;" d="M76 51L77 52L76 51z"/>
    <path style="fill:#959595; stroke:none;" d="M91 51L92 52L91 51z"/>
    <path style="fill:#353535; stroke:none;" d="M92 51L93 52L92 51z"/>
    <path style="fill:#989898; stroke:none;" d="M119 51L120 52L119 51z"/>
    <path style="fill:#bbbbbb; stroke:none;" d="M158 51L159 52L158 51z"/>
    <path style="fill:#bfbfbf; stroke:none;" d="M183 51L184 52L183 51z"/>
    <path style="fill:#343434; stroke:none;" d="M184 51L185 52L184 51z"/>
    <path style="fill:#2f2f2f; stroke:none;" d="M204 51L205 52L204 51z"/>
    <path style="fill:#6e6e6e; stroke:none;" d="M212 51L213 52L212 51z"/>
    <path style="fill:#9c9c9c; stroke:none;" d="M250 51L251 52L250 51z"/>
    <path style="fill:#c4c4c4; stroke:none;" d="M292 51L293 52L292 51z"/>
    <path style="fill:#b7b7b7; stroke:none;" d="M15 52L16 53L15 52z"/>
    <path style="fill:#848484; stroke:none;" d="M26 52L27 53L26 52z"/>
    <path style="fill:#bdbdbd; stroke:none;" d="M37 52L38 53L37 52z"/>
    <path style="fill:#323232; stroke:none;" d="M38 52L39 53L38 52z"/>
    <path style="fill:#9f9f9f; stroke:none;" d="M75 52L76 53L75 52z"/>
    <path style="fill:#555555; stroke:none;" d="M93 52L94 53L93 52z"/>
    <path style="fill:#d4d4d4; stroke:none;" d="M120 52L121 53L120 52z"/>
    <path style="fill:#8b8b8b; stroke:none;" d="M158 52L159 53L158 52z"/>
    <path style="fill:#888888; stroke:none;" d="M172 52L173 53L172 52z"/>
    <path style="fill:#636363; stroke:none;" d="M184 52L185 53L184 52z"/>
    <path style="fill:#aaaaaa; stroke:none;" d="M198 52L199 53L198 52z"/>
    <path style="fill:#737373; stroke:none;" d="M204 52L205 53L204 52z"/>
    <path style="fill:#a3a3a3; stroke:none;" d="M212 52L213 53L212 52z"/>
    <path style="fill:#7a7a7a; stroke:none;" d="M218.333 52.6667C218.278 52.7222 218.222 53.7778 218.667 53.3333C218.722 53.2778 218.778 52.2222 218.333 52.6667z"/>
    <path style="fill:#adadad; stroke:none;" d="M249 52L250 53L249 52z"/>
    <path style="fill:#9a9a9a; stroke:none;" d="M291 52L292 53L291 52z"/>
    <path style="fill:#858585; stroke:none;" d="M15 53L16 54L15 53z"/>
    <path style="fill:#a2a2a2; stroke:none;" d="M38 53L39 54L38 53z"/>
    <path style="fill:#5d5d5d; stroke:none;" d="M74 53L75 54L74 53z"/>
    <path style="fill:#717171; stroke:none;" d="M94 53L95 54L94 53z"/>
    <path style="fill:#8a8a8a; stroke:none;" d="M120 53L121 54L120 53z"/>
    <path style="fill:#4e4e4e; stroke:none;" d="M158 53L159 54L158 53z"/>
    <path style="fill:#949494; stroke:none;" d="M184 53L185 54L184 53z"/>
    <path style="fill:#515151; stroke:none;" d="M198 53L199 54L198 53z"/>
    <path style="fill:#c0c0c0; stroke:none;" d="M204 53L205 54L204 53z"/>
    <path style="fill:#323232; stroke:none;" d="M205.333 53.6667C205.278 53.7222 205.222 54.7777 205.667 54.3333C205.722 54.2777 205.778 53.2222 205.333 53.6667z"/>
    <path style="fill:#4c4c4c; stroke:none;" d="M211 53L212 54L211 53z"/>
    <path style="fill:#d4d4d4; stroke:none;" d="M212 53L213 54L212 53z"/>
    <path style="fill:#dbdbdb; stroke:none;" d="M217 53L217 58C217.83 55.9695 217.83 55.0305 217 53z"/>
    <path style="fill:#606060; stroke:none;" d="M233 53L234 54L233 53z"/>
    <path style="fill:#a4a4a4; stroke:none;" d="M248 53L249 54L248 53z"/>
    <path style="fill:#5e5e5e; stroke:none;" d="M290 53L291 54L290 53z"/>
    <path style="fill:#4c4c4c; stroke:none;" d="M15 54L16 55L15 54z"/>
    <path style="fill:#3e3e3e; stroke:none;" d="M27 54L28 55L27 54z"/>
    <path style="fill:#7f7f7f; stroke:none;" d="M39 54L40 55L39 54z"/>
    <path style="fill:#a5a5a5; stroke:none;" d="M74 54L75 55L74 54z"/>
    <path style="fill:#7c7c7c; stroke:none;" d="M95 54L96 55L95 54z"/>
    <path style="fill:#d0d0d0; stroke:none;" d="M121 54L122 55L121 54z"/>
    <path style="fill:#a5a5a5; stroke:none;" d="M157 54L158 55L157 54z"/>
    <path style="fill:#464646; stroke:none;" d="M171 54L172 55L171 54z"/>
    <path style="fill:#c8c8c8; stroke:none;" d="M184 54L185 55L184 54z"/>
    <path style="fill:#3d3d3d; stroke:none;" d="M185 54L186 55L185 54z"/>
    <path style="fill:#888888; stroke:none;" d="M211 54L212 55L211 54z"/>
    <path style="fill:#585858; stroke:none;" d="M218 54L218 59C218.83 56.9695 218.83 56.0305 218 54z"/>
    <path style="fill:#c0c0c0; stroke:none;" d="M234 54L235 55L234 54z"/>
    <path style="fill:#868686; stroke:none;" d="M247 54L248 55L247 54z"/>
    <path style="fill:#a2a2a2; stroke:none;" d="M14 55L15 56L14 55z"/>
    <path style="fill:#3e3e3e; stroke:none;" d="M28 55L29 56L28 55z"/>
    <path style="fill:#585858; stroke:none;" d="M40 55L41 56L40 55M73 55L73 60C73.8299 57.9695 73.8299 57.0305 73 55z"/>
    <path style="fill:#6f6f6f; stroke:none;" d="M96 55L97 56L96 55z"/>
    <path style="fill:#919191; stroke:none;" d="M121 55L122 56L121 55z"/>
    <path style="fill:#717171; stroke:none;" d="M157 55L158 56L157 55z"/>
    <path style="fill:#a6a6a6; stroke:none;" d="M171 55L172 56L171 55z"/>
    <path style="fill:#707070; stroke:none;" d="M185 55L186 56L185 55z"/>
    <path style="fill:#9e9e9e; stroke:none;" d="M199 55L200 56L199 55z"/>
    <path style="fill:#727272; stroke:none;" d="M205 55L206 56L205 55z"/>
    <path style="fill:#b9b9b9; stroke:none;" d="M211 55L212 56L211 55z"/>
    <path style="fill:#3c3c3c; stroke:none;" d="M234 55L235 56L234 55z"/>
    <path style="fill:#cbcbcb; stroke:none;" d="M235 55L236 56L235 55z"/>
    <path style="fill:#b7b7b7; stroke:none;" d="M245 55L246 56L245 55z"/>
    <path style="fill:#3d3d3d; stroke:none;" d="M246 55L247 56L246 55z"/>
    <path style="fill:#bbbbbb; stroke:none;" d="M289 55L290 56L289 55z"/>
    <path style="fill:#757575; stroke:none;" d="M14 56L15 57L14 56z"/>
    <path style="fill:#3b3b3b; stroke:none;" d="M29 56L30 57L29 56z"/>
    <path style="fill:#b5b5b5; stroke:none;" d="M40 56L41 57L40 56z"/>
    <path style="fill:#2b2b2b; stroke:none;" d="M41 56L42 57L41 56z"/>
    <path style="fill:#515151; stroke:none;" d="M97 56L98 57L97 56z"/>
    <path style="fill:#313131; stroke:none;" d="M121 56L122 57L121 56z"/>
    <path style="fill:#d3d3d3; stroke:none;" d="M122 56L123 57L122 56z"/>
    <path style="fill:#c2c2c2; stroke:none;" d="M156 56L157 57L156 56z"/>
    <path style="fill:#373737; stroke:none;" d="M157 56L158 57L157 56z"/>
    <path style="fill:#a0a0a0; stroke:none;" d="M185 56L186 57L185 56z"/>
    <path style="fill:#474747; stroke:none;" d="M199 56L200 57L199 56z"/>
    <path style="fill:#bcbcbc; stroke:none;" d="M205 56L206 57L205 56z"/>
    <path style="fill:#363636; stroke:none;" d="M206.333 56.6667C206.278 56.7223 206.222 57.7778 206.667 57.3333C206.722 57.2778 206.778 56.2222 206.333 56.6667z"/>
    <path style="fill:#636363; stroke:none;" d="M210 56L211 57L210 56z"/>
    <path style="fill:#9f9f9f; stroke:none;" d="M236 56L237 57L236 56z"/>
    <path style="fill:#a1a1a1; stroke:none;" d="M243 56L244 57L243 56z"/>
    <path style="fill:#404040; stroke:none;" d="M244 56L245 57L244 56z"/>
    <path style="fill:#7f7f7f; stroke:none;" d="M288 56L289 57L288 56z"/>
    <path style="fill:#d3d3d3; stroke:none;" d="M13 57L14 58L13 57z"/>
    <path style="fill:#484848; stroke:none;" d="M14 57L15 58L14 57z"/>
    <path style="fill:#777777; stroke:none;" d="M41 57L42 58L41 57z"/>
    <path style="fill:#b6b6b6; stroke:none;" d="M97 57L98 58L97 57z"/>
    <path style="fill:#2d2d2d; stroke:none;" d="M98 57L99 58L98 57z"/>
    <path style="fill:#a7a7a7; stroke:none;" d="M122 57L123 58L122 57z"/>
    <path style="fill:#8e8e8e; stroke:none;" d="M156 57L157 58L156 57z"/>
    <path style="fill:#676767; stroke:none;" d="M170 57L171 58L170 57z"/>
    <path style="fill:#cfcfcf; stroke:none;" d="M185 57L186 58L185 57z"/>
    <path style="fill:#464646; stroke:none;" d="M186 57L187 58L186 57z"/>
    <path style="fill:#cbcbcb; stroke:none;" d="M210.333 57.6667C210.278 57.7222 210.222 58.7778 210.667 58.3333C210.722 58.2778 210.778 57.2222 210.333 57.6667z"/>
    <path style="fill:#535353; stroke:none;" d="M238 57C239.248 57.6848 239.548 57.7488 241 58C239.752 57.3152 239.452 57.2512 238 57z"/>
    <path style="fill:#3b3b3b; stroke:none;" d="M287 57L288 58L287 57z"/>
    <path style="fill:#a1a1a1; stroke:none;" d="M13 58L14 59L13 58z"/>
    <path style="fill:#c8c8c8; stroke:none;" d="M32 58L33 59L32 58z"/>
    <path style="fill:#7d7d7d; stroke:none;" d="M42 58L43 59L42 58z"/>
    <path style="fill:#858585; stroke:none;" d="M98 58L99 59L98 58z"/>
    <path style="fill:#585858; stroke:none;" d="M122 58L123 59L122 58z"/>
    <path style="fill:#bfbfbf; stroke:none;" d="M123.333 58.6667C123.278 58.7222 123.222 59.7778 123.667 59.3333C123.722 59.2778 123.778 58.2222 123.333 58.6667z"/>
    <path style="fill:#595959; stroke:none;" d="M156 58L157 59L156 58z"/>
    <path style="fill:#c5c5c5; stroke:none;" d="M170 58L171 59L170 58z"/>
    <path style="fill:#7d7d7d; stroke:none;" d="M186 58L187 59L186 58z"/>
    <path style="fill:#949494; stroke:none;" d="M200 58L201 59L200 58z"/>
    <path style="fill:#727272; stroke:none;" d="M206 58L207 59L206 58z"/>
    <path style="fill:#393939; stroke:none;" d="M209 58L210 59L209 58z"/>
    <path style="fill:#adadad; stroke:none;" d="M260 58L261 59L260 58z"/>
    <path style="fill:#4f4f4f; stroke:none;" d="M13 59L14 60L13 59z"/>
    <path style="fill:#bababa; stroke:none;" d="M33 59L34 60L33 59z"/>
    <path style="fill:#9b9b9b; stroke:none;" d="M45 59L46 60L45 59z"/>
    <path style="fill:#474747; stroke:none;" d="M46 59L47 60L46 59z"/>
    <path style="fill:#4d4d4d; stroke:none;" d="M99 59L100 60L99 59z"/>
    <path style="fill:#acacac; stroke:none;" d="M155 59L156 60L155 59M186 59L187 60L186 59z"/>
    <path style="fill:#3d3d3d; stroke:none;" d="M200 59L201 60L200 59z"/>
    <path style="fill:#cdcdcd; stroke:none;" d="M206 59L207 60L206 59z"/>
    <path style="fill:#2b2b2b; stroke:none;" d="M207 59L208 60L207 59z"/>
    <path style="fill:#8d8d8d; stroke:none;" d="M209 59L210 60L209 59z"/>
    <path style="fill:#b0b0b0; stroke:none;" d="M218 59L218 62C218.696 60.4463 218.696 60.5537 218 59z"/>
    <path style="fill:#9b9b9b; stroke:none;" d="M259 59L260 60L259 59z"/>
    <path style="fill:#a2a2a2; stroke:none;" d="M286 59L287 60L286 59z"/>
    <path style="fill:#414141; stroke:none;" d="M322 59C326.974 61.0872 333.638 60 339 60C334.026 57.9128 327.362 59 322 59z"/>
    <path style="fill:#b4b4b4; stroke:none;" d="M339 59L340 60L339 59z"/>
    <path style="fill:#4f4f4f; stroke:none;" d="M12 60L13 61L12 60z"/>
    <path style="fill:#cecece; stroke:none;" d="M34 60L35 61L34 60z"/>
    <path style="fill:#737373; stroke:none;" d="M48 60L49 61L48 60z"/>
    <path style="fill:#a3a3a3; stroke:none;" d="M74 60L75 61L74 60z"/>
    <path style="fill:#9a9a9a; stroke:none;" d="M99 60L100 61L99 60z"/>
    <path style="fill:#8d8d8d; stroke:none;" d="M123 60L124 61L123 60z"/>
    <path style="fill:#747474; stroke:none;" d="M155 60L156 61L155 60z"/>
    <path style="fill:#888888; stroke:none;" d="M169 60L170 61L169 60z"/>
    <path style="fill:#515151; stroke:none;" d="M187 60L188 61L187 60z"/>
    <path style="fill:#e3e3e3; stroke:none;" d="M207.667 60.3333C207.222 60.7778 208.278 60.7223 208.333 60.6667C208.778 60.2222 207.722 60.2778 207.667 60.3333z"/>
    <path style="fill:#979797; stroke:none;" d="M258 60L259 61L258 60z"/>
    <path style="fill:#5c5c5c; stroke:none;" d="M285 60L286 61L285 60z"/>
    <path style="fill:#c3c3c3; stroke:none;" d="M321 60L322 61L321 60z"/>
    <path style="fill:#646464; stroke:none;" d="M11 61L12 62L11 61z"/>
    <path style="fill:#575757; stroke:none;" d="M31 61L32 62L31 61z"/>
    <path style="fill:#aaaaaa; stroke:none;" d="M32 61L33 62L32 61z"/>
    <path style="fill:#c7c7c7; stroke:none;" d="M49 61L50 62L49 61z"/>
    <path style="fill:#5f5f5f; stroke:none;" d="M74 61L75 62L74 61z"/>
    <path style="fill:#545454; stroke:none;" d="M100 61L101 62L100 61z"/>
    <path style="fill:#515151; stroke:none;" d="M123 61L124 62L123 61z"/>
    <path style="fill:#bcbcbc; stroke:none;" d="M124 61L124 64C124.696 62.4463 124.696 62.5537 124 61z"/>
    <path style="fill:#d2d2d2; stroke:none;" d="M154 61L155 62L154 61z"/>
    <path style="fill:#434343; stroke:none;" d="M155 61L156 62L155 61z"/>
    <path style="fill:#8b8b8b; stroke:none;" d="M187 61L188 62L187 61z"/>
    <path style="fill:#888888; stroke:none;" d="M201 61L202 62L201 61z"/>
    <path style="fill:#9f9f9f; stroke:none;" d="M257 61L258 62L257 61z"/>
    <path style="fill:#a8a8a8; stroke:none;" d="M320 61L321 62L320 61z"/>
    <path style="fill:#858585; stroke:none;" d="M10 62L11 63L10 62z"/>
    <path style="fill:#838383; stroke:none;" d="M29 62L30 63L29 62z"/>
    <path style="fill:#7d7d7d; stroke:none;" d="M50.3333 62.6667C50.2778 62.7222 50.2222 63.7778 50.6667 63.3333C50.7222 63.2778 50.7778 62.2222 50.3333 62.6667z"/>
    <path style="fill:#afafaf; stroke:none;" d="M75 62L76 63L75 62z"/>
    <path style="fill:#919191; stroke:none;" d="M100 62L101 63L100 62z"/>
    <path style="fill:#949494; stroke:none;" d="M154 62L155 63L154 62z"/>
    <path style="fill:#4c4c4c; stroke:none;" d="M168 62L169 63L168 62z"/>
    <path style="fill:#dfdfdf; stroke:none;" d="M187.333 62.6667C187.278 62.7222 187.222 63.7778 187.667 63.3333C187.722 63.2778 187.778 62.2222 187.333 62.6667z"/>
    <path style="fill:#313131; stroke:none;" d="M201 62L202 63L201 62z"/>
    <path style="fill:#6c6c6c; stroke:none;" d="M219 62L220 63L219 62z"/>
    <path style="fill:#b4b4b4; stroke:none;" d="M256 62L257 63L256 62z"/>
    <path style="fill:#c2c2c2; stroke:none;" d="M284 62L285 63L284 62z"/>
    <path style="fill:#777777; stroke:none;" d="M319 62L320 63L319 62z"/>
    <path style="fill:#cacaca; stroke:none;" d="M9 63L10 64L9 63z"/>
    <path style="fill:#353535; stroke:none;" d="M10 63L11 64L10 63z"/>
    <path style="fill:#969696; stroke:none;" d="M27 63L28 64L27 63z"/>
    <path style="fill:#494949; stroke:none;" d="M75 63L76 64L75 63z"/>
    <path style="fill:#c8c8c8; stroke:none;" d="M100 63L101 64L100 63z"/>
    <path style="fill:#3d3d3d; stroke:none;" d="M101 63L102 64L101 63z"/>
    <path style="fill:#5c5c5c; stroke:none;" d="M154 63L155 64L154 63z"/>
    <path style="fill:#a8a8a8; stroke:none;" d="M168 63L169 64L168 63z"/>
    <path style="fill:#5c5c5c; stroke:none;" d="M188 63L189 64L188 63z"/>
    <path style="fill:#bcbcbc; stroke:none;" d="M219 63L220 64L219 63z"/>
    <path style="fill:#cecece; stroke:none;" d="M255 63L256 64L255 63z"/>
    <path style="fill:#7f7f7f; stroke:none;" d="M283 63L284 64L283 63z"/>
    <path style="fill:#393939; stroke:none;" d="M318 63L319 64L318 63z"/>
    <path style="fill:#646464; stroke:none;" d="M9 64L10 65L9 64z"/>
    <path style="fill:#898989; stroke:none;" d="M25 64L26 65L25 64z"/>
    <path style="fill:#5d5d5d; stroke:none;" d="M49 64L50 65L49 64z"/>
    <path style="fill:#6d6d6d; stroke:none;" d="M76 64L77 65L76 64z"/>
    <path style="fill:#9d9d9d; stroke:none;" d="M101.333 64.6667C101.278 64.7222 101.222 65.7778 101.667 65.3333C101.722 65.2778 101.778 64.2222 101.333 64.6667z"/>
    <path style="fill:#4a4a4a; stroke:none;" d="M124.333 64.6667C124.278 64.7222 124.222 65.7778 124.667 65.3333C124.722 65.2778 124.778 64.2222 124.333 64.6667z"/>
    <path style="fill:#bcbcbc; stroke:none;" d="M153 64L154 65L153 64z"/>
    <path style="fill:#303030; stroke:none;" d="M154 64L155 65L154 64z"/>
    <path style="fill:#c2c2c2; stroke:none;" d="M188.333 64.6667C188.278 64.7222 188.222 65.7778 188.667 65.3333C188.722 65.2778 188.778 64.2222 188.333 64.6667z"/>
    <path style="fill:#7e7e7e; stroke:none;" d="M202 64L203 65L202 64z"/>
    <path style="fill:#6a6a6a; stroke:none;" d="M220 64L221 65L220 64z"/>
    <path style="fill:#5e5e5e; stroke:none;" d="M253 64L254 65L253 64z"/>
    <path style="fill:#3d3d3d; stroke:none;" d="M282 64L283 65L282 64z"/>
    <path style="fill:#c5c5c5; stroke:none;" d="M318 64L319 65L318 64z"/>
    <path style="fill:#c4c4c4; stroke:none;" d="M8 65L9 66L8 65z"/>
    <path style="fill:#565656; stroke:none;" d="M23 65L24 66L23 65z"/>
    <path style="fill:#757575; stroke:none;" d="M47 65L48 66L47 65z"/>
    <path style="fill:#848484; stroke:none;" d="M77 65L78 66L77 65z"/>
    <path style="fill:#bfbfbf; stroke:none;" d="M125.333 65.6667C125.278 65.7222 125.222 66.7778 125.667 66.3333C125.722 66.2778 125.778 65.2222 125.333 65.6667z"/>
    <path style="fill:#787878; stroke:none;" d="M153 65L154 66L153 65z"/>
    <path style="fill:#6a6a6a; stroke:none;" d="M167 65L168 66L167 65z"/>
    <path style="fill:#d0d0d0; stroke:none;" d="M220 65L221 66L220 65z"/>
    <path style="fill:#a5a5a5; stroke:none;" d="M252 65L253 66L252 65z"/>
    <path style="fill:#999999; stroke:none;" d="M317 65L318 66L317 65z"/>
    <path style="fill:#6b6b6b; stroke:none;" d="M8 66L9 67L8 66z"/>
    <path style="fill:#a2a2a2; stroke:none;" d="M22 66L23 67L22 66z"/>
    <path style="fill:#777777; stroke:none;" d="M45 66L46 67L45 66z"/>
    <path style="fill:#848484; stroke:none;" d="M78 66L79 67L78 66z"/>
    <path style="fill:#d2d2d2; stroke:none;" d="M101 66L101 71C101.83 68.9695 101.83 68.0305 101 66z"/>
    <path style="fill:#494949; stroke:none;" d="M102 66L102 71C102.83 68.9695 102.83 68.0305 102 66z"/>
    <path style="fill:#1f1f1f; stroke:none;" d="M153.333 66.6667C153.278 66.7222 153.222 67.7778 153.667 67.3333C153.722 67.2778 153.778 66.2222 153.333 66.6667z"/>
    <path style="fill:#c9c9c9; stroke:none;" d="M167 66L168 67L167 66z"/>
    <path style="fill:#686868; stroke:none;" d="M189 66L190 67L189 66z"/>
    <path style="fill:#c2c2c2; stroke:none;" d="M203 66L204 67L203 66z"/>
    <path style="fill:#bababa; stroke:none;" d="M221 66L222 67L221 66z"/>
    <path style="fill:#6c6c6c; stroke:none;" d="M250 66L251 67L250 66z"/>
    <path style="fill:#9f9f9f; stroke:none;" d="M281 66L282 67L281 66z"/>
    <path style="fill:#5c5c5c; stroke:none;" d="M316 66L317 67L316 66z"/>
    <path style="fill:#1d1d1d; stroke:none;" d="M8.33333 67.6667C8.27778 67.7222 8.22222 68.7778 8.66667 68.3333C8.72223 68.2778 8.77777 67.2222 8.33333 67.6667z"/>
    <path style="fill:#494949; stroke:none;" d="M20 67L21 68L20 67z"/>
    <path style="fill:#cdcdcd; stroke:none;" d="M21 67L22 68L21 67z"/>
    <path style="fill:#6f6f6f; stroke:none;" d="M43 67L44 68L43 67z"/>
    <path style="fill:#7a7a7a; stroke:none;" d="M79 67L80 68L79 67z"/>
    <path style="fill:#9d9d9d; stroke:none;" d="M125.333 67.6667C125.278 67.7222 125.222 68.7778 125.667 68.3333C125.722 68.2778 125.778 67.2222 125.333 67.6667z"/>
    <path style="fill:#a2a2a2; stroke:none;" d="M152 67L153 68L152 67z"/>
    <path style="fill:#373737; stroke:none;" d="M166 67L167 68L166 67z"/>
    <path style="fill:#cccccc; stroke:none;" d="M189.333 67.6667C189.278 67.7222 189.222 68.7778 189.667 68.3333C189.722 68.2778 189.778 67.2222 189.333 67.6667z"/>
    <path style="fill:#747474; stroke:none;" d="M203 67L204 68L203 67z"/>
    <path style="fill:#d0d0d0; stroke:none;" d="M204 67L204 71C204.71 69.2405 204.71 68.7595 204 67z"/>
    <path style="fill:#b3b3b3; stroke:none;" d="M222 67L223 68L222 67z"/>
    <path style="fill:#575757; stroke:none;" d="M248 67L249 68L248 67z"/>
    <path style="fill:#c0c0c0; stroke:none;" d="M249 67L250 68L249 67z"/>
    <path style="fill:#5d5d5d; stroke:none;" d="M280 67L281 68L280 67z"/>
    <path style="fill:#a6a6a6; stroke:none;" d="M7 68L8 69L7 68z"/>
    <path style="fill:#747474; stroke:none;" d="M19 68L20 69L19 68z"/>
    <path style="fill:#cdcdcd; stroke:none;" d="M40 68L41 69L40 68z"/>
    <path style="fill:#696969; stroke:none;" d="M41 68L42 69L41 68z"/>
    <path style="fill:#5b5b5b; stroke:none;" d="M80 68L81 69L80 68z"/>
    <path style="fill:#363636; stroke:none;" d="M152 68L152 71C152.696 69.4463 152.696 69.5537 152 68z"/>
    <path style="fill:#181818; stroke:none;" d="M165.333 68.6667C165.278 68.7222 165.222 69.7778 165.667 69.3333C165.722 69.2778 165.778 68.2222 165.333 68.6667z"/>
    <path style="fill:#898989; stroke:none;" d="M166 68L167 69L166 68z"/>
    <path style="fill:#2b2b2b; stroke:none;" d="M190 68L191 69L190 68z"/>
    <path style="fill:#c4c4c4; stroke:none;" d="M223 68L224 69L223 68z"/>
    <path style="fill:#4e4e4e; stroke:none;" d="M224 68L225 69L224 68z"/>
    <path style="fill:#646464; stroke:none;" d="M246 68L247 69L246 68z"/>
    <path style="fill:#b7b7b7; stroke:none;" d="M247 68L248 69L247 68z"/>
    <path style="fill:#2e2e2e; stroke:none;" d="M279 68L280 69L279 68z"/>
    <path style="fill:#b5b5b5; stroke:none;" d="M315 68L316 69L315 68z"/>
    <path style="fill:#3a3a3a; stroke:none;" d="M7.33333 69.6667C7.27777 69.7222 7.22223 70.7778 7.66667 70.3333C7.72222 70.2778 7.77778 69.2222 7.33333 69.6667z"/>
    <path style="fill:#979797; stroke:none;" d="M18 69L19 70L18 69z"/>
    <path style="fill:#c9c9c9; stroke:none;" d="M38 69L39 70L38 69z"/>
    <path style="fill:#676767; stroke:none;" d="M39 69L40 70L39 69z"/>
    <path style="fill:#3c3c3c; stroke:none;" d="M81 69L82 70L81 69z"/>
    <path style="fill:#9e9e9e; stroke:none;" d="M82 69L83 70L82 69z"/>
    <path style="fill:#7a7a7a; stroke:none;" d="M125 69L125 75C125.951 72.7147 125.951 71.2853 125 69z"/>
    <path style="fill:#737373; stroke:none;" d="M190 69L191 70L190 69z"/>
    <path style="fill:#9a9a9a; stroke:none;" d="M225 69L226 70L225 69z"/>
    <path style="fill:#3c3c3c; stroke:none;" d="M226 69L227 70L226 69z"/>
    <path style="fill:#414141; stroke:none;" d="M243 69L244 70L243 69z"/>
    <path style="fill:#888888; stroke:none;" d="M244 69L245 70L244 69z"/>
    <path style="fill:#e6e6e6; stroke:none;" d="M245.667 69.3333C245.222 69.7778 246.278 69.7223 246.333 69.6667C246.778 69.2222 245.722 69.2778 245.667 69.3333z"/>
    <path style="fill:#b7b7b7; stroke:none;" d="M279 69L280 70L279 69z"/>
    <path style="fill:#7f7f7f; stroke:none;" d="M314 69L315 70L314 69z"/>
    <path style="fill:#ababab; stroke:none;" d="M17 70L18 71L17 70z"/>
    <path style="fill:#757575; stroke:none;" d="M37 70L38 71L37 70z"/>
    <path style="fill:#303030; stroke:none;" d="M38 70L39 71L38 70z"/>
    <path style="fill:#595959; stroke:none;" d="M83 70L84 71L83 70z"/>
    <path style="fill:#b4b4b4; stroke:none;" d="M84 70L85 71L84 70z"/>
    <path style="fill:#666666; stroke:none;" d="M165 70L166 71L165 70z"/>
    <path style="fill:#b7b7b7; stroke:none;" d="M190 70L191 71L190 70z"/>
    <path style="fill:#d1d1d1; stroke:none;" d="M226 70L227 71L226 70z"/>
    <path style="fill:#a6a6a6; stroke:none;" d="M227 70L228 71L227 70z"/>
    <path style="fill:#6e6e6e; stroke:none;" d="M228 70L229 71L228 70z"/>
    <path style="fill:#5d5d5d; stroke:none;" d="M239.667 70.3333C239.222 70.7778 240.278 70.7222 240.333 70.6667C240.778 70.2222 239.722 70.2778 239.667 70.3333z"/>
    <path style="fill:#b6b6b6; stroke:none;" d="M241 70C242.248 70.6848 242.548 70.7488 244 71C242.752 70.3152 242.452 70.2512 241 70z"/>
    <path style="fill:#a4a4a4; stroke:none;" d="M266 70L267 71L266 70z"/>
    <path style="fill:#818181; stroke:none;" d="M278 70L279 71L278 70z"/>
    <path style="fill:#484848; stroke:none;" d="M313 70L314 71L313 70z"/>
    <path style="fill:#363636; stroke:none;" d="M15 71L16 72L15 71z"/>
    <path style="fill:#b9b9b9; stroke:none;" d="M16 71L17 72L16 71z"/>
    <path style="fill:#8a8a8a; stroke:none;" d="M35 71L36 72L35 71z"/>
    <path style="fill:#3d3d3d; stroke:none;" d="M36 71L37 72L36 71z"/>
    <path style="fill:#626262; stroke:none;" d="M85 71L86 72L85 71z"/>
    <path style="fill:#acacac; stroke:none;" d="M86 71L87 72L86 71z"/>
    <path style="fill:#999999; stroke:none;" d="M101 71L102 72L101 71z"/>
    <path style="fill:#c4c4c4; stroke:none;" d="M152 71L153 72L152 71z"/>
    <path style="fill:#8d8d8d; stroke:none;" d="M153 71C156.697 72.5515 161.017 72 165 72C161.303 70.4485 156.983 71 153 71M191 71C194.959 72.6611 199.737 72 204 72C200.041 70.3389 195.263 71 191 71z"/>
    <path style="fill:#b9b9b9; stroke:none;" d="M229.667 71.3333C229.222 71.7778 230.278 71.7222 230.333 71.6667C230.778 71.2222 229.722 71.2778 229.667 71.3333z"/>
    <path style="fill:#8d8d8d; stroke:none;" d="M231 71C232.769 71.779 234.036 71.9124 236 72C234.231 71.2211 232.964 71.0876 231 71z"/>
    <path style="fill:#a9a9a9; stroke:none;" d="M236 71C237.248 71.6848 237.548 71.7488 239 72C237.752 71.3152 237.452 71.2512 236 71z"/>
    <path style="fill:#e0e0e0; stroke:none;" d="M239.667 71.3333C239.222 71.7778 240.278 71.7222 240.333 71.6667C240.778 71.2222 239.722 71.2778 239.667 71.3333z"/>
    <path style="fill:#8d8d8d; stroke:none;" d="M267 71C270.432 72.4403 274.3 72 278 72C274.568 70.5597 270.7 71 267 71M301 71C304.697 72.5515 309.017 72 313 72C309.303 70.4485 304.983 71 301 71M344 71C347.959 72.6611 352.737 72 357 72C353.041 70.3389 348.263 71 344 71z"/>
    <path style="fill:#878787; stroke:none;" d="M6.33333 72.6667C6.27778 72.7222 6.22223 73.7778 6.66667 73.3333C6.72222 73.2778 6.77778 72.2222 6.33333 72.6667z"/>
    <path style="fill:#393939; stroke:none;" d="M14 72L15 73L14 72z"/>
    <path style="fill:#bfbfbf; stroke:none;" d="M15 72L16 73L15 72z"/>
    <path style="fill:#c4c4c4; stroke:none;" d="M33 72L34 73L33 72z"/>
    <path style="fill:#5b5b5b; stroke:none;" d="M34 72L35 73L34 72z"/>
    <path style="fill:#555555; stroke:none;" d="M87 72L88 73L87 72z"/>
    <path style="fill:#919191; stroke:none;" d="M88 72L89 73L88 72z"/>
    <path style="fill:#cacaca; stroke:none;" d="M89 72L90 73L89 72z"/>
    <path style="fill:#c5c5c5; stroke:none;" d="M100 72L101 73L100 72z"/>
    <path style="fill:#383838; stroke:none;" d="M101 72L102 73L101 72z"/>
    <path style="fill:#3a3a3a; stroke:none;" d="M13 73L14 74L13 73z"/>
    <path style="fill:#bfbfbf; stroke:none;" d="M14 73L15 74L14 73z"/>
    <path style="fill:#bbbbbb; stroke:none;" d="M32 73L33 74L32 73z"/>
    <path style="fill:#3d3d3d; stroke:none;" d="M33 73L34 74L33 73z"/>
    <path style="fill:#646464; stroke:none;" d="M89.6667 73.3333C89.2222 73.7778 90.2778 73.7222 90.3333 73.6667C90.7778 73.2222 89.7222 73.2778 89.6667 73.3333z"/>
    <path style="fill:#b5b5b5; stroke:none;" d="M91.6667 73.3333C91.2222 73.7778 92.2778 73.7222 92.3333 73.6667C92.7778 73.2222 91.7222 73.2778 91.6667 73.3333z"/>
    <path style="fill:#d1d1d1; stroke:none;" d="M98 73L99 74L98 73z"/>
    <path style="fill:#969696; stroke:none;" d="M99 73L100 74L99 73z"/>
    <path style="fill:#3b3b3b; stroke:none;" d="M100 73L101 74L100 73z"/>
    <path style="fill:#575757; stroke:none;" d="M6.33333 74.6667C6.27778 74.7222 6.22222 75.7778 6.66667 75.3333C6.72223 75.2778 6.77777 74.2222 6.33333 74.6667z"/>
    <path style="fill:#353535; stroke:none;" d="M12 74L13 75L12 74z"/>
    <path style="fill:#bdbdbd; stroke:none;" d="M13 74L14 75L13 74z"/>
    <path style="fill:#484848; stroke:none;" d="M92.6667 74.3333C92.2222 74.7778 93.2778 74.7222 93.3333 74.6667C93.7778 74.2222 92.7222 74.2778 92.6667 74.3333z"/>
    <path style="fill:#676767; stroke:none;" d="M94 74C95.769 74.7789 97.0359 74.9124 99 75C97.2309 74.2211 95.9641 74.0876 94 74z"/>
    <path style="fill:#2c2c2c; stroke:none;" d="M11 75L12 76L11 75z"/>
    <path style="fill:#b5b5b5; stroke:none;" d="M12 75L13 76L12 75z"/>
    <path style="fill:#a7a7a7; stroke:none;" d="M125 75L125 78C125.696 76.4463 125.696 76.5537 125 75z"/>
    <path style="fill:#2e2e2e; stroke:none;" d="M6 76L6 82C7.33626 79.6859 7.20216 78.4043 6 76z"/>
    <path style="fill:#a6a6a6; stroke:none;" d="M11 76L12 77L11 76z"/>
    <path style="fill:#8b8b8b; stroke:none;" d="M32 76L33 77L32 76z"/>
    <path style="fill:#363636; stroke:none;" d="M33 76L34 77L33 76z"/>
    <path style="fill:#929292; stroke:none;" d="M10 77L11 78L10 77z"/>
    <path style="fill:#c3c3c3; stroke:none;" d="M33 77L34 78L33 77z"/>
    <path style="fill:#6b6b6b; stroke:none;" d="M34 77L35 78L34 77z"/>
    <path style="fill:#717171; stroke:none;" d="M9 78L10 79L9 78z"/>
    <path style="fill:#b6b6b6; stroke:none;" d="M35 78L36 79L35 78z"/>
    <path style="fill:#636363; stroke:none;" d="M36 78L37 79L36 78z"/>
    <path style="fill:#313131; stroke:none;" d="M80.6667 78.3333C80.2222 78.7778 81.2778 78.7222 81.3333 78.6667C81.7778 78.2222 80.7222 78.2778 80.6667 78.3333z"/>
    <path style="fill:#666666; stroke:none;" d="M82 78C84.6127 79.0977 87.1645 78.9928 90 79C87.3873 77.9023 84.8355 78.0072 82 78z"/>
    <path style="fill:#535353; stroke:none;" d="M124 78L125 79L124 78z"/>
    <path style="fill:#4b4b4b; stroke:none;" d="M8 79L9 80L8 79z"/>
    <path style="fill:#b9b9b9; stroke:none;" d="M37 79L38 80L37 79z"/>
    <path style="fill:#646464; stroke:none;" d="M38 79L39 80L38 79z"/>
    <path style="fill:#494949; stroke:none;" d="M77 79C78.2484 79.6848 78.5484 79.7488 80 80C78.7517 79.3152 78.4516 79.2512 77 79z"/>
    <path style="fill:#c3c3c3; stroke:none;" d="M80.6667 79.3333C80.2222 79.7778 81.2778 79.7222 81.3333 79.6667C81.7778 79.2222 80.7222 79.2778 80.6667 79.3333z"/>
    <path style="fill:#929292; stroke:none;" d="M90.6667 79.3333C90.2222 79.7778 91.2778 79.7222 91.3333 79.6667C91.7778 79.2222 90.7222 79.2778 90.6667 79.3333z"/>
    <path style="fill:#3c3c3c; stroke:none;" d="M92 79C93.2484 79.6848 93.5484 79.7488 95 80C93.7517 79.3152 93.4516 79.2512 92 79z"/>
    <path style="fill:#8a8a8a; stroke:none;" d="M124 79L125 80L124 79z"/>
    <path style="fill:#cbcbcb; stroke:none;" d="M8 80L9 81L8 80z"/>
    <path style="fill:#cccccc; stroke:none;" d="M39 80L40 81L39 80z"/>
    <path style="fill:#777777; stroke:none;" d="M40 80L41 81L40 80z"/>
    <path style="fill:#1e1e1e; stroke:none;" d="M41.6667 80.3333C41.2222 80.7778 42.2778 80.7222 42.3333 80.6667C42.7778 80.2222 41.7222 80.2778 41.6667 80.3333z"/>
    <path style="fill:#383838; stroke:none;" d="M73 80C74.2484 80.6848 74.5484 80.7488 76 81C74.7516 80.3152 74.4516 80.2512 73 80z"/>
    <path style="fill:#909090; stroke:none;" d="M76 80L77 81L76 80z"/>
    <path style="fill:#c8c8c8; stroke:none;" d="M77 80L78 81L77 80z"/>
    <path style="fill:#a2a2a2; stroke:none;" d="M94 80L95 81L94 80z"/>
    <path style="fill:#5c5c5c; stroke:none;" d="M95 80L96 81L95 80z"/>
    <path style="fill:#c0c0c0; stroke:none;" d="M124 80L125 81L124 80z"/>
    <path style="fill:#a0a0a0; stroke:none;" d="M7 81L8 82L7 81z"/>
    <path style="fill:#a8a8a8; stroke:none;" d="M42 81L43 82L42 81z"/>
    <path style="fill:#5f5f5f; stroke:none;" d="M43 81L44 82L43 81z"/>
    <path style="fill:#1e1e1e; stroke:none;" d="M44.6667 81.3333C44.2222 81.7778 45.2778 81.7222 45.3333 81.6667C45.7778 81.2222 44.7222 81.2778 44.6667 81.3333z"/>
    <path style="fill:#2a2a2a; stroke:none;" d="M69 81C70.2484 81.6848 70.5484 81.7488 72 82C70.7516 81.3152 70.4516 81.2512 69 81z"/>
    <path style="fill:#727272; stroke:none;" d="M72 81L73 82L72 81z"/>
    <path style="fill:#afafaf; stroke:none;" d="M73 81L74 82L73 81z"/>
    <path style="fill:#d3d3d3; stroke:none;" d="M96 81L97 82L96 81z"/>
    <path style="fill:#787878; stroke:none;" d="M97 81L98 82L97 81z"/>
    <path style="fill:#777777; stroke:none;" d="M123 81L124 82L123 81z"/>
    <path style="fill:#a7a7a7; stroke:none;" d="M6 82L7 83L6 82z"/>
    <path style="fill:#b0b0b0; stroke:none;" d="M45 82L46 83L45 82z"/>
    <path style="fill:#737373; stroke:none;" d="M46 82L47 83L46 82z"/>
    <path style="fill:#292929; stroke:none;" d="M47 82C48.2483 82.6848 48.5484 82.7488 50 83C48.7516 82.3152 48.4516 82.2512 47 82z"/>
    <path style="fill:#171717; stroke:none;" d="M63 82C64.5061 82.683 65.3148 82.8259 67 83C65.494 82.317 64.6852 82.1741 63 82z"/>
    <path style="fill:#6a6a6a; stroke:none;" d="M67.6667 82.3333C67.2222 82.7778 68.2778 82.7222 68.3333 82.6667C68.7778 82.2222 67.7222 82.2778 67.6667 82.3333z"/>
    <path style="fill:#a0a0a0; stroke:none;" d="M69 82L70 83L69 82z"/>
    <path style="fill:#989898; stroke:none;" d="M99 82L100 83L99 82z"/>
    <path style="fill:#454545; stroke:none;" d="M100 82L101 83L100 82z"/>
    <path style="fill:#2d2d2d; stroke:none;" d="M122 82L123 83L122 82z"/>
    <path style="fill:#cfcfcf; stroke:none;" d="M123 82L124 83L123 82z"/>
    <path style="fill:#949494; stroke:none;" d="M49.6667 83.3333C49.2222 83.7778 50.2778 83.7222 50.3333 83.6667C50.7778 83.2222 49.7222 83.2778 49.6667 83.3333z"/>
    <path style="fill:#5d5d5d; stroke:none;" d="M51.6667 83.3333C51.2222 83.7778 52.2778 83.7222 52.3333 83.6667C52.7778 83.2222 51.7222 83.2778 51.6667 83.3333z"/>
    <path style="fill:#282828; stroke:none;" d="M53 83C55.6127 84.0977 58.1645 83.9928 61 84C58.3873 82.9023 55.8355 83.0072 53 83z"/>
    <path style="fill:#5f5f5f; stroke:none;" d="M61 83C62.2484 83.6848 62.5484 83.7488 64 84C62.7517 83.3152 62.4516 83.2512 61 83z"/>
    <path style="fill:#c1c1c1; stroke:none;" d="M64.6667 83.3333C64.2222 83.7778 65.2778 83.7222 65.3333 83.6667C65.7778 83.2222 64.7222 83.2778 64.6667 83.3333z"/>
    <path style="fill:#b5b5b5; stroke:none;" d="M101 83L102 84L101 83z"/>
    <path style="fill:#515151; stroke:none;" d="M102 83L103 84L102 83z"/>
    <path style="fill:#b8b8b8; stroke:none;" d="M122 83L123 84L122 83z"/>
    <path style="fill:#cbcbcb; stroke:none;" d="M103 84L104 85L103 84z"/>
    <path style="fill:#636363; stroke:none;" d="M104 84L105 85L104 84z"/>
    <path style="fill:#bababa; stroke:none;" d="M121 84L122 85L121 84z"/>
    <path style="fill:#8e8e8e; stroke:none;" d="M106 85L107 86L106 85z"/>
    <path style="fill:#3e3e3e; stroke:none;" d="M107 85L108 86L107 85z"/>
    <path style="fill:#1a1a1a; stroke:none;" d="M117.667 85.3333C117.222 85.7778 118.278 85.7222 118.333 85.6667C118.778 85.2222 117.722 85.2778 117.667 85.3333z"/>
    <path style="fill:#6e6e6e; stroke:none;" d="M119 85L120 86L119 85z"/>
    <path style="fill:#999999; stroke:none;" d="M109 86L110 87L109 86z"/>
    <path style="fill:#363636; stroke:none;" d="M110.667 86.3333C110.222 86.7778 111.278 86.7222 111.333 86.6667C111.778 86.2222 110.722 86.2778 110.667 86.3333z"/>
    <path style="fill:#131313; stroke:none;" d="M112 86C113.506 86.683 114.315 86.8259 116 87C114.494 86.317 113.685 86.1741 112 86z"/>
    <path style="fill:#5d5d5d; stroke:none;" d="M116 86L117 87L116 86z"/>
    <path style="fill:#a1a1a1; stroke:none;" d="M117 86L118 87L117 86z"/>


</symbol></svg>