<svg id="图层_1" data-name="图层 1" xmlns="http://www.w3.org/2000/svg" xmlns:xlink="http://www.w3.org/1999/xlink" viewBox="0 0 1129.06 375.04"><defs><style>.cls-1,.cls-12{fill:none;}.cls-2{clip-path:url(#clip-path);}.cls-3{fill:#1c1d20;}.cls-4{fill:#020202;}.cls-5{fill:#2e0091;}.cls-10,.cls-6{fill:#fff;}.cls-7{fill:#fdcdca;}.cls-8{clip-path:url(#clip-path-2);}.cls-9{fill:#f0a1c0;}.cls-10,.cls-12,.cls-23{stroke:#2e0091;stroke-linecap:round;}.cls-10,.cls-12{stroke-miterlimit:10;}.cls-10{stroke-width:6px;}.cls-11{clip-path:url(#clip-path-3);}.cls-13{fill:#e6e5e1;}.cls-14{clip-path:url(#clip-path-4);}.cls-15{fill:#b7b4ac;opacity:0.5;}.cls-16{clip-path:url(#clip-path-5);}.cls-17{fill:#94928e;}.cls-18{fill:#eae9e5;}.cls-19{fill:#b5b3ae;}.cls-20{opacity:0.24;}.cls-21{clip-path:url(#clip-path-6);}.cls-22{clip-path:url(#clip-path-7);}.cls-23{fill:#e24842;stroke-linejoin:round;}.cls-24{fill:#f4c975;}</style><clipPath id="clip-path"><rect class="cls-1" width="1129.06" height="375.04"/></clipPath><clipPath id="clip-path-2"><path class="cls-1" d="M125.27,218.9s8.87,24.37,38,20.77c7.93-1-4.39-11.28-4.39-11.28s25.45-14.09,20.84-19.94c-5.11-6.49-22.75,7.49-35.55,9.79S125.27,218.9,125.27,218.9Z"/></clipPath><clipPath id="clip-path-3"><path class="cls-1" d="M273.19,308.47c6.13,1.35,49,13,83.09-5.57,0,0,.77-76.9-68.54-97.82-25.89-7.81-44.33.62-49.8,4.71a27.33,27.33,0,0,0-4.43,4.22,27.25,27.25,0,0,1-8.18,6.33,5.19,5.19,0,0,0-2.8,4.94C222.53,253.05,273.19,272.86,273.19,308.47Z"/></clipPath><clipPath id="clip-path-4"><path class="cls-1" d="M645.73,237H405.22c12.08,0,21.88,8.85,21.88,19.77s-9.8,19.77-21.88,19.77H645.73c12.09,0,21.88-8.85,21.88-19.77S657.82,237,645.73,237Z"/></clipPath><clipPath id="clip-path-5"><path class="cls-1" d="M430.72,161.92s20.35-63,67.57-68.82c5.73-.71,9.7-.28,12.42.54a28.89,28.89,0,0,0,13.09,1c2.34-.39,5.22-.83,7.53.7,8.31,5.51,7.2,44.2-26.28,66.6Z"/></clipPath><clipPath id="clip-path-6"><path class="cls-1" d="M447,200H679.84c-11.7,0-21.18,7.85-21.18,17.53S668.14,235,679.84,235H447c-11.7,0-21.19-7.85-21.19-17.52S435.25,200,447,200Z"/></clipPath><clipPath id="clip-path-7"><path class="cls-1" d="M624.09,197H414.7c10.52,0,19.05-7.85,19.05-17.52s-8.53-17.53-19.05-17.53H624.09c10.52,0,19,7.85,19,17.53S634.61,197,624.09,197Z"/></clipPath></defs><title>画板 11</title><g class="cls-2"><rect class="cls-3" width="1129.06" height="375.04"/><path class="cls-4" d="M143.08,274.75c-3.36,0-5.58-1-6.59-2.92-2.57-4.93,3.82-14.17,4.09-14.56l.07-.1,17.76-9.69h.79c4.05,0,17.36.48,18.54,6.75.3,1.56-.42,3.4-2.14,5.47C169.94,266.51,154.18,274.75,143.08,274.75Z"/><path class="cls-5" d="M159.2,248c3.2,0,16.92.35,18.05,6.35,1.28,6.79-20.41,19.93-34.17,19.93s-2.09-16.7-2.09-16.7L158.54,248h.66m0-1h-.93l-.21.11-17.55,9.59-.21.11-.13.19c-.7,1-6.79,10-4.13,15.08,1.11,2.12,3.48,3.19,7,3.19,11.23,0,27.18-8.34,32.9-15.24,1.82-2.19,2.58-4.17,2.26-5.88-1.26-6.65-14.89-7.16-19-7.16Z"/><path class="cls-6" d="M48.63,283.75S52.57,180.2,151.44,180.2c11,0,16,3.29,18.39,6.17a15.64,15.64,0,0,0,8.55,5.18c5.1,1.21,10.33,3.92,10.46,9.95.22,10.23-26.74,27.63-26.74,27.63s9.45,8,5.33,11.71c-6.79,6.08-24.05,25.59-30.52,49.52a177.72,177.72,0,0,1-33,5.34C88.23,296.55,61.33,292.64,48.63,283.75Z"/><path class="cls-4" d="M60.05,238c1.06-2.37,2.21-4.75,3.46-7.12C62.26,233.29,61.11,235.67,60.05,238Z"/><path class="cls-4" d="M66.32,225.92c.71-1.21,1.46-2.41,2.24-3.6C67.79,223.52,67,224.72,66.32,225.92Z"/><path class="cls-4" d="M125.66,303.4c-4.83,0-10.41-2.69-16.14-7.78a61.65,61.65,0,0,1-6-6.21,48.35,48.35,0,0,0,4.23,5.72l.69.76-1.29.09-3.18.22c-1.4.08-2.9.11-4.47.11-16.77,0-39.72-4.17-51.12-12.15l-.22-.16.06-1.19c0-.49.09-1.2.17-2.09l0-.29c0-.12,0-.17,0-.22a2.55,2.55,0,0,1,0-.34c0-.51.1-1.11.18-1.75V278c0-.17,0-.34.07-.52,0-.41.1-.85.16-1.32l0-.38c0-.2.06-.44.1-.67,0,0,.14-1,.19-1.35s.12-.83.19-1.21c.09-.57.19-1.16.3-1.79.06-.34.12-.7.19-1.07l0-.22c.16-.92.35-1.87.55-2.87,0-.22.09-.45.14-.69l0-.16c.35-1.68.75-3.41,1.18-5.13.07-.3.15-.62.23-.93,0,0,.21-.8.3-1.16s.14-.53.21-.8l.08-.27c.63-2.34,1.28-4.52,2-6.65.19-.63.4-1.25.62-1.88l.08-.24.08-.23.08-.24c.1-.29.2-.59.31-.89.56-1.58,1.16-3.16,1.78-4.71l.48-1.21c.07-.17.14-.31.19-.47l.82-1.93c.12-.26.53-1.21.53-1.21,1.1-2.46,2.27-4.87,3.48-7.15l.08-.14c.43-.82.87-1.63,1.34-2.45s.92-1.61,1.4-2.42l.93-1.53c-3.28-4.65-25.59-14-25.82-14.11l-.76-.32.63-.53c9-7.47,44.05-9.1,47.13-9.23a86.82,86.82,0,0,1,13.54-8.89l1.13-.59c2.49-1.27,5-2.42,7.5-3.41,1-.4,2-.79,3-1.16.57-.21,1.16-.41,1.75-.61l2.85-.92c2.4-.73,5-1.39,7.56-2,.56-.13,1.14-.25,1.73-.36l1.77-.35.15,0,1.6-.28,0,0h.26c.35-.07.78-.14,1.22-.2l.57-.09,1.93-.28c2.6-.35,5.3-.61,8.24-.8l1.78-.1c.73,0,1.46-.07,2.21-.09,1.58-.05,3.12-.08,4.57-.08,11.24,0,16.41,3.46,18.78,6.35a15.18,15.18,0,0,0,8.27,5c7,1.66,10.74,5.27,10.85,10.43a7.65,7.65,0,0,1-.18,1.73c-.06.27-.14.55-.22.82a2.82,2.82,0,0,1-.09.27l0,.09c0,.14-.11.3-.17.44-.14.37-.32.75-.51,1.14-.09.18-.2.38-.3.56l-.13.23c-.16.29-.33.57-.52.86s-.49.74-.76,1.13c-.13.19-.28.39-.42.58-.28.38-.58.76-.91,1.15-6.64,8.16-19.38,16.84-22.18,18.7,1.85,1.68,8,7.72,5.41,11.38l-.12.16-.19,0a45.32,45.32,0,0,1-5.33.68c-1.47.11-2.92.16-4.32.16-21.38,0-29.36-12.53-33.2-18.55-.34-.55-.66-1-1-1.48a24.93,24.93,0,0,0-6.38,8.32c-4.85,9.56,2.82,24.68,9.58,38,4.24,8.37,8.24,16.28,9.23,22.53.66,4.27-.14,7.38-2.46,9.52A12.26,12.26,0,0,1,125.66,303.4Z"/><path class="cls-5" d="M151.44,180.2c10.95,0,16,3.29,18.39,6.17a15.64,15.64,0,0,0,8.55,5.18c5.1,1.21,10.33,3.92,10.46,9.95a7,7,0,0,1-.17,1.61q-.09.39-.21.78a2.25,2.25,0,0,1-.08.24c-.06.17-.12.35-.19.52a11.76,11.76,0,0,1-.5,1.1l-.29.55-.12.22q-.24.42-.51.84t-.75,1.11c-.13.19-.27.38-.41.56-.28.38-.57.76-.89,1.14-7.49,9.2-22.62,19-22.62,19s8.56,7.28,5.82,11.15a43.37,43.37,0,0,1-5.27.67c-1.48.11-2.91.16-4.28.16-23.63,0-30.5-15.23-34-20.25a24.91,24.91,0,0,0-6.94,8.81c-7.94,15.67,16.18,44.44,18.76,60.87.59,3.78,0,6.91-2.3,9.07a11.79,11.79,0,0,1-8.19,3.29c-5.07,0-10.59-3-15.81-7.65A71.37,71.37,0,0,1,98.1,281.4s5.33,9.77,9.24,14.06l-3.44.24c-1.39.08-2.88.11-4.44.11-15.91,0-39.26-4-50.83-12.06l0-.59c0-.09,0-.19,0-.31,0-.5.09-1.2.17-2.09,0-.09,0-.18,0-.28s0-.12,0-.18,0-.23,0-.35c0-.54.11-1.13.19-1.77,0-.19,0-.39.07-.6.06-.53.14-1.1.22-1.7,0-.21.05-.43.09-.65.06-.44.12-.9.19-1.37s.12-.79.19-1.19c.09-.58.19-1.17.3-1.79.07-.42.15-.85.23-1.29.16-.92.35-1.87.55-2.86,0-.28.11-.56.17-.85.34-1.63.73-3.34,1.17-5.11.08-.34.17-.69.26-1l.27-1.05c.09-.35.19-.7.29-1.06.58-2.14,1.23-4.36,2-6.63.22-.7.46-1.4.7-2.11,0-.06,0-.12.07-.19.13-.38.26-.77.4-1.16q.83-2.33,1.77-4.7l.48-1.2c.07-.16.14-.32.2-.49l.81-1.9c.18-.4.35-.8.53-1.21,1.06-2.37,2.21-4.75,3.46-7.12l.08-.14c.43-.81.87-1.62,1.33-2.43s.92-1.61,1.4-2.42l1.09-1.79c-2.75-4.75-26.22-14.56-26.22-14.56,9.21-7.63,47-9.13,47-9.13a86.08,86.08,0,0,1,13.59-8.94l1.12-.58c2.38-1.22,4.86-2.36,7.46-3.39,1-.4,2-.79,3-1.16.57-.21,1.15-.41,1.73-.6.94-.32,1.89-.62,2.85-.92,2.42-.74,4.92-1.39,7.52-2q.84-.19,1.71-.36l1.77-.35.17,0c.57-.11,1.15-.21,1.73-.3h0c.62-.11,1.24-.2,1.87-.3l1.92-.27c2.65-.36,5.38-.62,8.2-.8l1.77-.1c.73,0,1.46-.07,2.2-.09,1.49-.05,3-.08,4.56-.08m0-1c-1.45,0-3,0-4.59.08-.75,0-1.48.05-2.22.09h-.07l-1.72.1c-3,.19-5.65.45-8.26.81l-1.93.27-.58.09c-.42.07-.85.13-1.27.21l-.17,0-1.68.3-.18,0-1.77.35c-.58.11-1.17.23-1.74.37-2.61.57-5.17,1.24-7.58,2-.92.29-1.9.6-2.88.93-.61.2-1.2.41-1.75.61-.93.34-1.94.72-3.07,1.17-2.5,1-5,2.15-7.55,3.43l-1.13.59a88.18,88.18,0,0,0-13.49,8.83c-4,.18-38.25,1.89-47.26,9.35l-1.27,1,1.52.64c6.19,2.59,22.25,9.86,25.42,13.68-.26.41-.51.82-.76,1.24-.46.78-.95,1.61-1.41,2.44s-.85,1.52-1.34,2.45l-.05.08v0l0,0c-1.21,2.3-2.39,4.71-3.49,7.18l-.19.43-.34.78-.41,1-.41.95v.06a3.79,3.79,0,0,1-.18.42l-.49,1.23c-.62,1.55-1.22,3.15-1.78,4.74-.11.29-.21.59-.31.88l-.08.25c0,.09-.06.16-.09.23l-.09.27c-.21.63-.42,1.24-.61,1.86-.7,2.13-1.34,4.31-2,6.67l-.07.22c-.08.29-.16.57-.23.85s-.18.71-.27,1v.07c-.09.34-.18.67-.25,1-.43,1.73-.83,3.46-1.18,5.14l0,.18c0,.23-.09.46-.13.69-.21,1-.39,1.95-.55,2.87l0,.22c-.06.37-.13.73-.19,1.08-.1.61-.21,1.21-.3,1.8-.06.33-.11.68-.16,1l0,.16c-.05.36-.1.72-.15,1.06l0,.32a7,7,0,0,0-.09.7l-.05.34c-.07.47-.13.92-.17,1.34,0,.17-.05.36-.07.54v.07c-.08.61-.14,1.2-.19,1.74,0,.13,0,.24,0,.37s0,.08,0,.12v.07c0,.07,0,.12,0,.18v.09c-.09.92-.15,1.63-.18,2.14a1,1,0,0,1,0,.17v.15l0,.59,0,.55.46.32c11.48,8,34.55,12.24,51.4,12.24,1.57,0,3.09,0,4.49-.11l3.14-.22.32,0,2.06-.15-.32-.35,0,0c5.82,5.17,11.52,7.9,16.47,7.9a12.75,12.75,0,0,0,8.87-3.55c2.45-2.27,3.3-5.52,2.61-10-1-6.33-5-14.28-9.28-22.69-6.7-13.24-14.31-28.24-9.58-37.58a25,25,0,0,1,5.83-7.79l.64,1c3.89,6.1,12,18.79,33.62,18.79,1.41,0,2.87-.06,4.35-.16a44,44,0,0,0,5.39-.69l.4-.08.23-.32c2.65-3.75-2.64-9.38-5-11.61,3.64-2.43,15.35-10.56,21.77-18.45.28-.33.56-.7.92-1.18.13-.17.29-.38.43-.59.26-.37.53-.76.76-1.13s.37-.59.54-.88l.08-.15,0-.08.32-.59c.2-.41.39-.81.53-1.19.06-.14.12-.3.17-.46l0-.09a1.75,1.75,0,0,0,.1-.3c.09-.27.16-.55.23-.83a8.13,8.13,0,0,0,.19-1.85c-.12-5.42-4-9.19-11.23-10.9a14.78,14.78,0,0,1-8-4.84c-2.43-3-7.73-6.54-19.16-6.54Z"/><path class="cls-6" d="M124.17,197.79c4.35,6.09-5.18,15.39-10,19.22s-15,13.46-21.21,7,3.87-17.79,9.56-22.39S119.81,191.69,124.17,197.79Z"/><circle class="cls-6" cx="141.23" cy="194.05" r="5.8"/><circle class="cls-4" cx="142.08" cy="194.9" r="4.95"/><circle class="cls-6" cx="142.08" cy="193.35" r="2.09"/><circle class="cls-6" cx="142.88" cy="197.49" r="1.05"/><path class="cls-7" d="M125.27,218.9s8.87,24.37,38,20.77c7.93-1-4.39-11.28-4.39-11.28s25.45-14.09,20.84-19.94c-5.11-6.49-22.75,7.49-35.55,9.79S125.27,218.9,125.27,218.9Z"/><g class="cls-8"><path class="cls-9" d="M135.26,240.65l-5.54-13.52.39-.21a18.35,18.35,0,0,1,8.1-1.92,15.69,15.69,0,0,1,3.08.3,11.13,11.13,0,0,1,7.93,6.27c.35,0,.91,0,1.64,0a21.37,21.37,0,0,1,7.46,1.26c4.74,1.79,5.43,7.13,5.45,7.36l0,.15-2.31,4.55Z"/><path class="cls-5" d="M138.21,225.5a14.88,14.88,0,0,1,3,.29,10.67,10.67,0,0,1,7.71,6.32,18.43,18.43,0,0,1,2-.09,21.11,21.11,0,0,1,7.28,1.22c4.52,1.71,5.14,7,5.14,7l-2.08,4.09-25.58-4.09-5.27-12.84a18,18,0,0,1,7.86-1.86m0-1h0a18.91,18.91,0,0,0-8.34,2l-.78.43.34.83,5.26,12.84.21.52.56.09L161,245.28l.72.11.33-.65,2.08-4.09.14-.27,0-.3c0-.24-.75-5.87-5.77-7.77a22.08,22.08,0,0,0-7.64-1.29c-.54,0-1,0-1.33,0a11.63,11.63,0,0,0-8.14-6.24,16,16,0,0,0-3.18-.31Z"/></g><path class="cls-5" d="M151.44,180.2c11,0,16,3.29,18.39,6.17a14.79,14.79,0,0,0,1.15,1.22,15.94,15.94,0,0,0,7.4,4c3.51.83,7.07,2.37,9,5.21a8.59,8.59,0,0,1,1.46,4.74c0,.07,0,.13,0,.2a5.12,5.12,0,0,1,0,.67,2.7,2.7,0,0,1-.07.41c0,.11,0,.22-.05.33s0,.13,0,.2-.07.26-.11.4,0,.12,0,.18a2.25,2.25,0,0,1-.08.24c0,.09-.07.19-.1.29a1.46,1.46,0,0,0-.07.19s0,0,0,0-.07.15-.1.23c-.12.28-.25.57-.4.86h0l-.29.55-.12.22-.06.1-.27.45-.18.29-.09.13c-.19.29-.39.59-.6.89l-.06.09-.09.12c-.58.81-1.22,1.62-1.93,2.44h0l-.64.71a3.58,3.58,0,0,1-.26.29l-.62.67-.3.32c-.35.36-.7.72-1.06,1.07l-.46.45c-.17.18-.36.35-.54.53l-.54.51-.5.46-.77.71-.38.34-1,.87-.37.32-.82.7-.33.27c-.77.65-1.54,1.28-2.3,1.88l-.19.15-1,.79-.17.14c-.78.6-1.53,1.18-2.26,1.72l-.08.06-1,.74-.09.07-2,1.43-.06,0-.82.57-.08.06-1.45,1-.14.09-.43.29-.15.1-.35.23-.24.16-.14.1-.37.24s9.45,8,5.33,11.71c-6.79,6.08-24.05,25.59-30.52,49.52l-.76.18c.59,3.78,0,6.91-2.3,9.07a11.79,11.79,0,0,1-8.19,3.29c-5.07,0-10.59-3-15.81-7.65h0c-1.94.19-3.93.35-5.95.45-1.39.08-2.87.12-4.42.12A133.57,133.57,0,0,1,73.18,293c-9.55-2-18.61-5.07-24.55-9.23v-.05c0-.05,0-.16,0-.34s0-.12,0-.2,0-.19,0-.31,0-.49.06-.79.07-.85.12-1.37a1.48,1.48,0,0,1,0-.21c0-.06,0-.12,0-.18s0,0,0-.06c0-.34.07-.71.11-1.09,0-.06,0-.13,0-.2.14-1.26.32-2.73.57-4.4l.09-.69.18-1.15c.21-1.28.45-2.65.72-4.1,0-.23.09-.46.14-.7s.12-.61.18-.91c0-.09,0-.18.05-.27,0-.28.11-.56.17-.85.23-1.08.48-2.2.75-3.35.1-.42.2-.85.31-1.29,0-.16.07-.31.11-.47.08-.34.17-.69.26-1l.27-1.05c.06-.23.13-.46.19-.69q.45-1.67,1-3.39c0-.16.09-.33.14-.49.38-1.27.79-2.56,1.22-3.86l.45-1.37,0-.09c.06-.16.11-.32.17-.47l.27-.79.25-.67c.12-.35.25-.7.38-1.05l.42-1.13.57-1.47.15-.38.48-1.2c.07-.16.14-.32.2-.49l.69-1.62c.07-.15.13-.31.2-.47l.45-1,.21-.44c.45-1,.92-2,1.41-3a.61.61,0,0,1,0-.12c.49-1,1-2,1.54-3,.09-.16.17-.33.25-.49l.08-.14c.07-.14.15-.27.23-.41q.45-.86.93-1.71l.17-.31c0-.1.11-.19.17-.29.33-.59.67-1.18,1-1.76l.21-.37c.11-.18.22-.35.32-.53l.63-1c0-.07.09-.15.14-.23-2.75-4.75-26.22-14.56-26.22-14.56,9.21-7.63,47-9.13,47-9.13l.1-.07c1-.79,2-1.55,3-2.3l.28-.2c.91-.66,1.84-1.3,2.78-1.93l.79-.52c.82-.53,1.65-1,2.5-1.56l.85-.51c1-.56,1.93-1.11,2.92-1.64l.37-.21.16-.08c.21-.12.43-.22.64-.33l.32-.17.43-.21c.9-.45,1.82-.9,2.75-1.33l1.09-.49c.9-.4,1.8-.79,2.72-1.16l.47-.2.43-.17c.63-.24,1.27-.49,1.91-.72l.7-.27,1.15-.4,1.79-.59,1.64-.53.28-.08c.7-.21,1.4-.4,2.11-.6l1.58-.43c1-.25,2-.48,3-.71l.6-.14.12,0,1.17-.24.42-.09,1.77-.35.17,0,.33-.06,1.17-.2.23,0h0c.62-.11,1.24-.2,1.87-.3l.68-.1,1-.13.28,0,1.19-.14c.86-.1,1.72-.21,2.6-.3l1.77-.15c.85-.07,1.69-.15,2.54-.2h.1l1.77-.1c.51,0,1,0,1.54-.06l1.29-.05c1.25,0,2.51-.06,3.79-.06h.14m0-1h-.09c-1.24,0-2.49,0-3.87.06l-1.3.05H146l-1.39.06h-.07l-1.72.1h-.07l-2.16.17-.42,0-.55,0-1.24.11c-.78.07-1.55.17-2.31.26l-.32,0-.49.06-.7.08-.15,0-.14,0-1,.13-.28,0-.4.06-.57.09c-.43.07-.86.13-1.28.21l-.18,0h-.14l-.1,0-1.08.19-.14,0-.21,0-.18,0-1.77.35-.25,0-.16,0-.23,0-1,.21-.14,0-.33.08-.26.06c-.9.2-2,.45-3,.71l-1.1.3-.5.14-.29.08-1.83.52-.12,0-.17,0-1.13.37-.52.17c-.63.2-1.23.39-1.82.6l-.2.06c-.32.11-.65.22-1,.34l-.42.16-.29.11c-.65.24-1.29.48-1.92.73l-.19.08-.25.09-.28.12-.19.08c-1,.39-1.87.78-2.75,1.17l-.16.08-.95.42c-.91.42-1.82.87-2.79,1.35l-.17.09-.26.12-.19.1-.12.06-.19.1-.46.24-.07,0-.1.06-.22.12-.15.09c-1,.53-2,1.09-3,1.66l-.7.42-.16.09c-.86.52-1.71,1.05-2.53,1.59l-.23.14-.56.37c-1,.65-1.92,1.31-2.82,2l-.11.08-.17.12c-1,.7-1.93,1.44-2.87,2.19-4,.18-38.26,1.89-47.27,9.35l-1.27,1,1.52.64c6.19,2.59,22.25,9.86,25.42,13.68-.14.21-.27.43-.4.64l0,.07-.13.21-.2.32-.12.2-.09.17c-.35.59-.69,1.18-1,1.78l-.07.12-.1.17L64,228l-.07.13c-.32.58-.64,1.15-1,1.73l-.1.18-.12.23-.05.08v0l0,0-.15.28-.1.22c-.59,1.12-1.1,2.13-1.56,3.07l0,.07c-.47,1-.94,2-1.45,3.1l-.09.19c0,.09-.07.17-.11.25L59,238l-.28.65-.13.29-.08.19-.25.6-.44,1v.06a3.79,3.79,0,0,1-.18.42l-.49,1.23-.08.21-.07.17-.57,1.49c-.15.38-.29.76-.43,1.14s-.26.7-.38,1.05l-.11.28-.14.39c-.08.23-.16.45-.23.68L55,248l-.06.18-.1.29,0,.09c-.13.37-.25.73-.37,1.09l-.09.28c-.43,1.29-.84,2.6-1.23,3.89l0,.17-.1.33c-.35,1.17-.67,2.31-1,3.41l0,.1c-.06.2-.12.4-.17.6-.09.36-.18.71-.27,1v.07c-.09.34-.18.67-.25,1l-.06.26-.05.2c-.11.44-.21.87-.31,1.3-.31,1.29-.55,2.39-.76,3.38l0,.18c0,.23-.09.46-.13.69v.05l0,.2,0,.1-.17.82-.09.5,0,.2c-.27,1.45-.52,2.84-.72,4.13-.06.34-.12.69-.17,1l0,.12c0,.19-.05.36-.07.54l0,.16c-.22,1.53-.41,3-.56,4.43v.2c-.05.39-.08.76-.12,1.1v0c0,.05,0,.09,0,.14v.07c0,.07,0,.13,0,.19,0,.55-.09,1-.12,1.42s0,.57-.06.8a1.09,1.09,0,0,1,0,.17v.35l0,.34,0,.55.45.37c7,4.92,17.43,7.82,24.92,9.39a135,135,0,0,0,26.5,2.86c1.56,0,3.07,0,4.47-.12,1.81-.09,3.68-.23,5.56-.41,5.71,5,11.29,7.61,16.15,7.61a12.75,12.75,0,0,0,8.87-3.55c2.28-2.11,3.17-5.07,2.73-9.05l.46-.11.15-.57c6.21-22.94,22.49-42.1,30.23-49a4,4,0,0,0,1.37-3.13c0-3.43-3.85-7.43-5.74-9.21h0l.16-.11.38-.26.05,0,.08-.06.06,0,1.47-1,0,0,.86-.61.06,0,2-1.44.08-.06,1-.75.08-.06,2.27-1.73.11-.08.07-.06,1-.79.19-.15c.8-.64,1.58-1.28,2.33-1.9l.24-.21.08-.07.83-.7.11-.1.26-.22,1-.88.26-.23.13-.12.78-.71.51-.47.54-.52.55-.53.34-.33.12-.13c.37-.36.73-.72,1.08-1.09l.08-.08.23-.25.63-.67.2-.23.07-.07c.22-.24.43-.49.64-.73l0,0,0,0c.7-.8,1.36-1.65,2-2.46l.11-.15,0-.05c.23-.33.44-.64.63-.95l.09-.13.12-.2.07-.1.08-.13c.07-.12.14-.23.2-.35l.07-.1.08-.15,0-.08.29-.55,0,0,0-.05c.17-.33.31-.65.41-.9l0,0a1.67,1.67,0,0,0,.08-.2h0v0l.05-.12,0-.07,0-.13.06-.18a1.32,1.32,0,0,0,.1-.3.56.56,0,0,0,0-.12v0l.12-.45v0a.83.83,0,0,0,0-.15,1.77,1.77,0,0,0,.05-.29l0-.09v-.07c0-.14.05-.27.07-.4s0-.47,0-.78a1.93,1.93,0,0,0,0-.23,9.58,9.58,0,0,0-1.63-5.28c-1.8-2.65-5-4.54-9.6-5.62a14.91,14.91,0,0,1-6.94-3.71,14.69,14.69,0,0,1-1.06-1.13c-2.44-3-7.74-6.54-19.17-6.54Z"/><path class="cls-6" d="M178,116l-1.1-.31c-.38-.1-37.64-10.61-40.78-35.46A29.31,29.31,0,0,1,143,57.13c10-12.1,30.82-20.87,53.13-22.36,2.6-.17,5.26-.26,7.92-.26,11.22,0,38.82,1.69,52.81,17.38,6.21,7,8.74,15.81,7.54,26.32-4.15,36.17-55.73,36.59-57.92,36.59h-.75l-.51.6L178,151.35Z"/><path class="cls-5" d="M204,36c22.94,0,42.27,6.31,51.69,16.87C261.64,59.51,264.05,68,262.9,78c-4,34.86-54.29,35.26-56.48,35.26h-1.5l-.91,1.2-24.5,32.39V114.81l-2.2-.6c-.37-.11-36.68-10.36-39.69-34.21a27.85,27.85,0,0,1,6.53-21.92c9.71-11.79,30.15-20.35,52.07-21.81,2.56-.17,5.19-.26,7.82-.26m0-3c-2.75,0-5.44.09-8,.26-29.93,2-65.06,18-61.38,47.1,3.3,26.17,41.87,36.73,41.87,36.73v38.72L206.4,116.3h.07c2.16,0,55.11-.38,59.41-37.92,4-35-32.65-45.37-61.84-45.37Z"/><line class="cls-10" x1="174.4" y1="57.29" x2="226.15" y2="57.29"/><line class="cls-10" x1="156.41" y1="74.56" x2="226.15" y2="74.56"/><line class="cls-10" x1="178.26" y1="91.83" x2="239.05" y2="91.83"/><path class="cls-4" d="M310.76,313.81a157.73,157.73,0,0,1-36.35-4.54l-1.33-.31-.39-.09v-.4c0-18.7-14-32.87-27.54-46.57-11.89-12-23.12-23.39-23.12-36.62a5.75,5.75,0,0,1,3.06-5.38,26.66,26.66,0,0,0,8-6.21,28.05,28.05,0,0,1,4.51-4.3c1.1-.82,11.21-8,29.2-8a73.24,73.24,0,0,1,21,3.22c36,10.87,52.82,37,60.59,57a124.37,124.37,0,0,1,8.31,41.26v.29l-.26.14c-12.76,7-28.15,10.47-45.76,10.47Z"/><path class="cls-5" d="M266.84,201.88a72.3,72.3,0,0,1,20.9,3.2c69.31,20.92,68.54,97.82,68.54,97.82-14.75,8-31.16,10.41-45.51,10.41a160.61,160.61,0,0,1-37.58-4.84c0-35.61-50.66-55.42-50.66-83.19a5.19,5.19,0,0,1,2.8-4.94,27.25,27.25,0,0,0,8.18-6.33,27.33,27.33,0,0,1,4.43-4.22c3.85-2.88,14.13-7.91,28.9-7.91m0-1c-13.79,0-24.51,4.37-29.5,8.11a28.23,28.23,0,0,0-4.59,4.38,26.23,26.23,0,0,1-7.89,6.09,6.2,6.2,0,0,0-3.33,5.82c0,13.43,11.3,24.87,23.27,37,13.46,13.63,27.39,27.72,27.39,46.22v.8l.78.18,1.33.3a157.73,157.73,0,0,0,36.47,4.56c17.68,0,33.16-3.54,46-10.53l.51-.28v-.59a124.9,124.9,0,0,0-8.35-41.44,99.5,99.5,0,0,0-20.52-33A91.33,91.33,0,0,0,288,204.13a73.26,73.26,0,0,0-21.19-3.25Z"/><path class="cls-6" d="M266.18,234.79c-6.23,6.93,2.17,17.3,8.29,21.63s16.85,9.75,21.63,5.46-2.24-16.39-6.69-21.17S272.42,227.85,266.18,234.79Z"/><circle class="cls-6" cx="249.92" cy="227.45" r="5.8"/><circle class="cls-4" cx="248.54" cy="227.14" r="4.95"/><circle class="cls-6" cx="249.01" cy="225.66" r="2.09"/><circle class="cls-6" cx="247.26" cy="229.45" r="1.05"/><g class="cls-11"><path class="cls-6" d="M222.74,223.57s-2.83,12.16,17.7,24.2c0,0,42.86,16.11,42.86,62.88l-2.45,4.41-21.62-1.75L212.05,220Z"/></g><path class="cls-4" d="M270.08,266.9s-32.57,27.53-26,36,45.29-3.06,45.29-3.06Z"/><path class="cls-4" d="M309.26,232.39l.46-.3c.19-.13,19.5-12.63,37.64-12.63a34.65,34.65,0,0,1,6.23.54,2.09,2.09,0,0,1,1.64,1.4,2,2,0,0,1-.43,2.07c-4.52,5-19.63,22.18-24.3,34.3l-.32.82Z"/><path class="cls-12" d="M330,257.6c4.65-12.06,19.22-28.75,24.4-34.47a1.59,1.59,0,0,0-.92-2.64c-19.73-3.55-43.52,12-43.52,12"/><path class="cls-4" d="M257.53,140a.5.5,0,0,0,0-1,.5.5,0,0,0,0,1Z"/><path class="cls-5" d="M31.34,270.21a15.21,15.21,0,0,0-10.23,12.61,1.5,1.5,0,0,0,1.5,1.5,1.54,1.54,0,0,0,1.5-1.5c0-.15.06-.39.13-.72s.11-.53.18-.79.19-.62.3-.92c0-.13.09-.25.14-.38s.14-.33.06-.16a13.19,13.19,0,0,1,.83-1.58c.17-.28.34-.55.53-.81a5.3,5.3,0,0,1,.41-.53,13.6,13.6,0,0,1,1.22-1.3c.21-.2.44-.4.67-.59l.2-.16.33-.24a11.56,11.56,0,0,1,3-1.54,1.5,1.5,0,1,0-.8-2.89Z"/><path class="cls-5" d="M39.27,291.82A49.85,49.85,0,0,0,59.1,302.37a50.77,50.77,0,0,0,6.46,1.24,1.5,1.5,0,0,0,1.5-1.5,1.54,1.54,0,0,0-1.5-1.5,46.33,46.33,0,0,1-19.47-7.34,44.23,44.23,0,0,1-4.69-3.57,1.5,1.5,0,0,0-2.13,2.12Z"/><path class="cls-5" d="M16.33,302.51A43.38,43.38,0,0,0,31.7,315.35a1.5,1.5,0,1,0,1.51-2.59A40.31,40.31,0,0,1,18.92,301a1.54,1.54,0,0,0-2.05-.54,1.51,1.51,0,0,0-.54,2.05Z"/><path class="cls-5" d="M122.92,308.62a58.22,58.22,0,0,1-25.58,3,55.66,55.66,0,0,1-7.13-1.24c-1.88-.45-2.68,2.44-.8,2.89a61,61,0,0,0,27,.3,58.14,58.14,0,0,0,7.35-2.09,1.53,1.53,0,0,0,1.05-1.85,1.5,1.5,0,0,0-1.84-1Z"/><path class="cls-5" d="M155.87,295.18a10.4,10.4,0,0,1-.48,1.65c-.09.25.11-.23,0-.06l-.08.16c-.06.14-.13.28-.2.41a8,8,0,0,1-.43.75l-.23.33c0,.07-.09.13-.13.19s0,0,.07-.09c-.2.21-.37.44-.57.65s-.4.41-.62.6-.24.18-.35.28c.05,0,.25-.18.09-.07l-.23.16a1.5,1.5,0,0,0,1.52,2.59,10.84,10.84,0,0,0,4.5-6.75,1.5,1.5,0,1,0-2.89-.8Z"/><path class="cls-5" d="M150.05,314.4a41.21,41.21,0,0,1-24.36,8.49c-1.93,0-1.94,3,0,3a44.14,44.14,0,0,0,20.81-5.57,42,42,0,0,0,5.06-3.33,1.55,1.55,0,0,0,.54-2.05,1.52,1.52,0,0,0-2-.54Z"/><path class="cls-5" d="M75.12,325.3a46.46,46.46,0,0,0,20.1,2.14,1.56,1.56,0,0,0,1.5-1.5,1.5,1.5,0,0,0-1.5-1.5,44.33,44.33,0,0,1-19.3-2,1.5,1.5,0,1,0-.8,2.89Z"/><path class="cls-5" d="M58.57,317.89A34.93,34.93,0,0,0,69,320.23a1.51,1.51,0,0,0,1.5-1.5,1.54,1.54,0,0,0-1.5-1.5A32.55,32.55,0,0,1,59.36,315a1.5,1.5,0,0,0-1.84,1,1.54,1.54,0,0,0,1,1.85Z"/><path class="cls-5" d="M54,309.34a71.91,71.91,0,0,0,14.24,3.57,1.57,1.57,0,0,0,1.85-1.05A1.51,1.51,0,0,0,69,310a71.51,71.51,0,0,1-14.25-3.58,1.5,1.5,0,0,0-.79,2.9Z"/><path class="cls-5" d="M230.23,296.15a11.41,11.41,0,0,0,2.11,14.91,1.55,1.55,0,0,0,2.12,0,1.51,1.51,0,0,0,0-2.12,8.14,8.14,0,0,1-3-5.44c0,.19,0-.13,0-.19l0-.41a7.85,7.85,0,0,1,0-.84,5.52,5.52,0,0,1,.16-1.42,7.26,7.26,0,0,1,1.3-3,1.5,1.5,0,1,0-2.59-1.52Z"/><path class="cls-5" d="M370.4,291.7a13,13,0,0,1,5.21,10,1.5,1.5,0,0,0,3,0,16,16,0,0,0-6.69-12.6,1.5,1.5,0,1,0-1.52,2.59Z"/><path class="cls-5" d="M369,276.34a28.8,28.8,0,0,1,9.78,4.61,1.51,1.51,0,0,0,2.05-.54,1.53,1.53,0,0,0-.54-2.05,31.46,31.46,0,0,0-10.5-4.91,1.5,1.5,0,1,0-.79,2.89Z"/><path class="cls-5" d="M388,313.75A28,28,0,0,1,372.59,323a1.52,1.52,0,0,0-1,1.85,1.54,1.54,0,0,0,1.85,1,30.54,30.54,0,0,0,16.73-10,1.55,1.55,0,0,0,0-2.12,1.51,1.51,0,0,0-2.12,0Z"/><path class="cls-5" d="M360.93,308.24a52.53,52.53,0,0,1-20.53,9.13,49.72,49.72,0,0,1-6.2.87,1.5,1.5,0,0,0,0,3,55.21,55.21,0,0,0,22.64-6.8,52.34,52.34,0,0,0,5.6-3.61,1.54,1.54,0,0,0,.54-2.05,1.5,1.5,0,0,0-2.05-.54Z"/><path class="cls-5" d="M328.82,331.22a44,44,0,0,0,21-3.76,1.53,1.53,0,0,0,.54-2.06,1.55,1.55,0,0,0-2.06-.54,40.74,40.74,0,0,1-19.52,3.36,1.51,1.51,0,0,0-1.5,1.5,1.53,1.53,0,0,0,1.5,1.5Z"/><path class="cls-5" d="M328.23,343.15a43.11,43.11,0,0,0,16.51-1.79c1.83-.57,1.05-3.47-.8-2.89a40.94,40.94,0,0,1-15.71,1.68,1.51,1.51,0,0,0-1.5,1.5,1.53,1.53,0,0,0,1.5,1.5Z"/><path class="cls-5" d="M271.68,320.62a51.59,51.59,0,0,0,19.54,3.15c1.92-.06,1.93-3.06,0-3a49.52,49.52,0,0,1-18.75-3,1.51,1.51,0,0,0-1.84,1,1.53,1.53,0,0,0,1.05,1.85Z"/><path class="cls-5" d="M298.62,328.06a33.91,33.91,0,0,0,10.54.49,1.54,1.54,0,0,0,1.5-1.5,1.51,1.51,0,0,0-1.5-1.5,31.55,31.55,0,0,1-9.75-.38,1.54,1.54,0,0,0-1.84,1.05,1.51,1.51,0,0,0,1.05,1.84Z"/><path class="cls-5" d="M286.67,336.54a35.9,35.9,0,0,0,19.88,1.88,1.5,1.5,0,1,0-.79-2.89,33.09,33.09,0,0,1-18.3-1.89,1.51,1.51,0,0,0-1.84,1.05,1.54,1.54,0,0,0,1.05,1.85Z"/><path class="cls-5" d="M295,349.08a23.74,23.74,0,0,0,15.74.1,1.54,1.54,0,0,0,1.05-1.84,1.51,1.51,0,0,0-1.85-1,21.06,21.06,0,0,1-14.14-.11,1.51,1.51,0,0,0-1.84,1.05,1.53,1.53,0,0,0,1,1.85Z"/><path class="cls-5" d="M242.9,327.4a46.55,46.55,0,0,0,23.88,9.65,1.51,1.51,0,0,0,1.5-1.5,1.53,1.53,0,0,0-1.5-1.5A43,43,0,0,1,245,325.28a1.55,1.55,0,0,0-2.12,0,1.51,1.51,0,0,0,0,2.12Z"/><path class="cls-4" d="M500.59,162.51l1.34-1.61C520.83,138,521.55,138,522.13,138h.16l.16.05a8,8,0,0,0,1.17,0c1,0,2.16-.06,2.73-.08,2-1.6,14.11-11.18,20.42-11.18a4.44,4.44,0,0,1,2.59.72c10.69,7.43-6.86,33.76-7.61,34.88l-.3.45Z"/><path class="cls-5" d="M546.77,127.88a3.4,3.4,0,0,1,2,.54c10,7-7.86,33.5-7.86,33.5l-38.22-.39S521.3,139,522.13,139h0a6.91,6.91,0,0,0,1.48.1c1.36,0,3.1-.1,3.1-.1s13.59-11.16,20-11.16m0-2c-6.44,0-17.95,8.91-20.8,11.19-.61,0-1.56.07-2.35.07-.58,0-.85,0-1,0l-.2-.07h-.33c-1.2,0-1.45,0-11.55,12-4.71,5.56-9.37,11.2-9.42,11.26l-2.67,3.23,4.19,0,38.22.39H542l.6-.89c1.94-2.89,18.64-28.41,7.35-36.26a5.4,5.4,0,0,0-3.16-.9Z"/><path class="cls-13" d="M405.22,277.58a1,1,0,0,1,0-2c11.51,0,20.88-8.42,20.88-18.77S416.73,238,405.22,238a1,1,0,0,1,0-2H645.73c12.62,0,22.88,9.32,22.88,20.77s-10.26,20.77-22.88,20.77Z"/><path class="cls-5" d="M645.73,237c12.09,0,21.88,8.85,21.88,19.77s-9.79,19.77-21.88,19.77H405.22c12.08,0,21.88-8.85,21.88-19.77S417.3,237,405.22,237H645.73m0-2H405.22a2,2,0,0,0,0,4c11,0,19.88,8,19.88,17.77s-8.92,17.77-19.88,17.77a2,2,0,0,0,0,4H645.73c13.17,0,23.88-9.77,23.88-21.77S658.9,235,645.73,235Z"/><g class="cls-14"><path class="cls-15" d="M655.69,227.9l1.5,9.26a21.19,21.19,0,0,1-17.25,24.27h-204a12.83,12.83,0,0,1-12.49-9.9l-.91-3.86-22.32,8-.22,22H683.63V218.24Z"/></g><path class="cls-4" d="M429.34,162.92l.43-1.31s.18-.56.54-1.57c-4.21-5.64-14.68-8.68-20.64-10A3.39,3.39,0,0,1,408.4,144c7.22-5.25,16.52-6.35,23-6.35a57.35,57.35,0,0,1,8.93.67C451.2,119,469.94,95.6,498.16,92.11a44,44,0,0,1,5.54-.37,25.4,25.4,0,0,1,7.3,1A29.55,29.55,0,0,0,519.45,94a25.2,25.2,0,0,0,4.19-.35,22.49,22.49,0,0,1,3.66-.38,8.05,8.05,0,0,1,4.58,1.23c3,2,4.77,7.39,4.78,14.48,0,15.21-8.08,38.42-31,53.79l-.25.17Z"/><path class="cls-5" d="M503.7,92.74a24.42,24.42,0,0,1,7,.9A30.28,30.28,0,0,0,519.45,95a26.51,26.51,0,0,0,4.35-.36,21.57,21.57,0,0,1,3.5-.37,7.09,7.09,0,0,1,4,1.07c8.31,5.51,7.2,44.2-26.28,66.6H430.72s.24-.73.71-2c-4.18-6.17-15.2-9.42-21.54-10.83a2.4,2.4,0,0,1-.91-4.27c6.92-5,15.82-6.16,22.46-6.16a53.92,53.92,0,0,1,9.45.78c10.39-18.71,29.05-42.8,57.4-46.31a44,44,0,0,1,5.41-.36m0-2a47.9,47.9,0,0,0-5.66.37c-28.34,3.51-47.21,26.72-58.21,46.1a60.48,60.48,0,0,0-8.39-.58c-6.67,0-16.19,1.13-23.63,6.54a4.4,4.4,0,0,0,1.64,7.84c9.49,2.11,16.58,5.44,19.74,9.22-.24.68-.37,1.05-.37,1.07l-.85,2.62h77.69l.51-.34C529.47,148,537.7,124.41,537.66,109c0-7.54-1.92-13.12-5.23-15.31a9,9,0,0,0-5.13-1.4,23.13,23.13,0,0,0-3.83.4,24.32,24.32,0,0,1-4,.33,28.24,28.24,0,0,1-8.16-1.25,26.36,26.36,0,0,0-7.59-1Z"/><path class="cls-6" d="M470.54,130.39c5,4.37-.65,13.84-4.5,17.79s-14.09,8.9-17.66,5-.81-12.79,4.46-18.21S465.54,126,470.54,130.39Z"/><circle class="cls-6" cx="484" cy="114.64" r="8.5"/><circle class="cls-4" cx="485.7" cy="114.45" r="7.17"/><circle class="cls-6" cx="484.95" cy="112.47" r="3.35"/><circle class="cls-6" cx="487.31" cy="118.11" r="1.67"/><g class="cls-16"><path class="cls-6" d="M462,162.42s10.27-5,21.16-18.09,29.29-55.07,48.14-49l6.41,1.1v66Z"/></g><path class="cls-13" d="M447,236c-12.23,0-22.19-8.31-22.19-18.53S434.72,199,447,199H679.84a1,1,0,0,1,0,2c-11.13,0-20.18,7.41-20.18,16.52S668.71,234,679.84,234a1,1,0,0,1,0,2Z"/><path class="cls-5" d="M679.85,200c-11.71,0-21.19,7.85-21.19,17.53S668.14,235,679.85,235H447c-11.7,0-21.19-7.85-21.19-17.52S435.25,200,447,200h232.9m0-2H447c-12.79,0-23.19,8.76-23.19,19.53S434.16,237,447,237h232.9a2,2,0,0,0,0-4c-10.59,0-19.19-7-19.19-15.52S669.26,202,679.85,202a2,2,0,0,0,0-4Z"/><path class="cls-13" d="M414.7,198a1,1,0,0,1,0-2c9.95,0,18.05-7.41,18.05-16.52s-8.1-16.53-18.05-16.53a1,1,0,0,1,0-2H624.09c11.06,0,20,8.31,20,18.53s-9,18.52-20,18.52Z"/><path class="cls-5" d="M624.09,161.92c10.52,0,19,7.85,19,17.53s-8.53,17.52-19,17.52H414.7c10.52,0,19.05-7.85,19.05-17.52s-8.53-17.53-19.05-17.53H624.09m0-2H414.7a2,2,0,0,0,0,4c9.4,0,17.05,7,17.05,15.53S424.1,195,414.7,195a2,2,0,0,0,0,4H624.09c11.61,0,21-8.76,21-19.52s-9.44-19.53-21-19.53Z"/><path class="cls-17" d="M546.24,135.69V24.5H605a15.91,15.91,0,0,1,15.89,15.89v95.3Z"/><path class="cls-5" d="M605,25.49a14.91,14.91,0,0,1,14.9,14.9V134.7H547.23V25.49H605m0-2H545.25V136.68h76.61V40.39A16.9,16.9,0,0,0,605,23.51Z"/><path class="cls-18" d="M619.88,130.76s-9.54-4.19-33.87-4.19a123.81,123.81,0,0,0-31.22,4.19V21.56s16.76-3,28.76-3c28.81,0,36.33,12.88,36.33,22.72Z"/><polygon class="cls-19" points="554.79 21.55 547.23 25.49 547.23 134.7 554.79 130.76 554.79 21.55"/><g class="cls-20"><path class="cls-19" d="M604.1,21.62V127.48c11.11,1.23,15.78,3.28,15.78,3.28V41.29C619.88,34.4,616.18,26,604.1,21.62Z"/></g><g class="cls-20"><path class="cls-5" d="M570.52,33.13a51.36,51.36,0,0,1,25.75,1.35c1.83.57,2.61-2.29.79-2.87a54.59,54.59,0,0,0-27.33-1.35c-1.88.38-1.08,3.25.79,2.87Z"/></g><g class="cls-20"><path class="cls-5" d="M573.55,43.46a81.25,81.25,0,0,1,37,4.59c1.79.66,2.57-2.21.79-2.87a83.3,83.3,0,0,0-37.77-4.69c-1.88.2-1.9,3.18,0,3Z"/></g><g class="cls-20"><path class="cls-5" d="M567.16,58.93a100.64,100.64,0,0,1,44.46,2.54,1.48,1.48,0,0,0,.79-2.86,103.84,103.84,0,0,0-46-2.54c-1.88.32-1.08,3.18.79,2.86Z"/></g><g class="cls-20"><path class="cls-5" d="M567.07,76.27a82.52,82.52,0,0,1,32,.69c1.86.41,2.66-2.45.79-2.86a86.32,86.32,0,0,0-33.59-.7c-1.88.33-1.08,3.2.79,2.87Z"/></g><g class="cls-20"><path class="cls-5" d="M569.52,95.64c14.21-1.25,29.4-2.59,42.84,3.24,1.73.75,3.25-1.81,1.5-2.57-14-6.07-29.5-5-44.34-3.64-1.89.17-1.9,3.14,0,3Z"/></g><g class="cls-20"><path class="cls-5" d="M563.73,112.8a86.54,86.54,0,0,1,35.44.52c1.87.42,2.66-2.44.79-2.86a90,90,0,0,0-37-.52c-1.87.36-1.08,3.23.79,2.86Z"/></g><path class="cls-17" d="M620.88,135.69V40.39A15.91,15.91,0,0,1,636.77,24.5h58.74V135.69Z"/><path class="cls-5" d="M694.52,25.49V134.7H621.87V40.39a14.9,14.9,0,0,1,14.9-14.9h57.75m2-2H636.77a16.9,16.9,0,0,0-16.88,16.88v96.29H696.5V23.51Z"/><path class="cls-18" d="M621.87,130.76s9.53-4.19,33.87-4.19A123.78,123.78,0,0,1,687,130.76V21.56s-16.76-3-28.76-3c-28.8,0-36.32,12.88-36.32,22.72Z"/><polygon class="cls-19" points="686.95 21.55 694.51 25.49 694.51 134.7 686.95 130.76 686.95 21.55"/><g class="cls-20"><path class="cls-19" d="M637.65,21.62V127.48c-11.12,1.23-15.78,3.28-15.78,3.28V41.29C621.87,34.4,625.56,26,637.65,21.62Z"/></g><g class="cls-20"><path class="cls-5" d="M672,30.26a54.59,54.59,0,0,0-27.33,1.35c-1.82.57-1.05,3.44.79,2.87a51.35,51.35,0,0,1,25.75-1.35c1.86.38,2.66-2.49.79-2.87Z"/></g><g class="cls-20"><path class="cls-5" d="M668.19,40.49a83.26,83.26,0,0,0-37.76,4.69c-1.78.66-1,3.54.79,2.87a81.19,81.19,0,0,1,37-4.59c1.9.2,1.89-2.77,0-3Z"/></g><g class="cls-20"><path class="cls-5" d="M675.37,56.07a103.86,103.86,0,0,0-46,2.54,1.48,1.48,0,0,0,.79,2.86,100.64,100.64,0,0,1,44.46-2.54c1.87.32,2.68-2.54.79-2.86Z"/></g><g class="cls-20"><path class="cls-5" d="M675.46,73.4a86.27,86.27,0,0,0-33.58.7c-1.87.41-1.08,3.27.79,2.86a82.46,82.46,0,0,1,32-.69c1.87.33,2.68-2.54.79-2.87Z"/></g><g class="cls-20"><path class="cls-5" d="M672.22,92.67c-14.84-1.31-30.32-2.43-44.33,3.64-1.75.76-.24,3.32,1.5,2.57,13.44-5.83,28.63-4.49,42.83-3.24,1.9.17,1.89-2.8,0-3Z"/></g><g class="cls-20"><path class="cls-5" d="M678.8,109.94a90,90,0,0,0-37,.52c-1.87.42-1.08,3.28.79,2.86A86.54,86.54,0,0,1,678,112.8c1.87.36,2.67-2.5.79-2.86Z"/></g><g class="cls-21"><path class="cls-15" d="M430.72,206.24h0a14.54,14.54,0,0,0,14,18.34H687v16.14H419.79V204.16Z"/></g><g class="cls-22"><path class="cls-15" d="M618.11,161.92l.92.66a13.78,13.78,0,0,1-4.38,24.5H408.13v11.54h246.4L653,154.76Z"/></g><path class="cls-5" d="M446.3,249H564.53a1,1,0,0,0,0-2H446.3a1,1,0,0,0,0,2Z"/><path class="cls-5" d="M604.36,209.24h44.26a1,1,0,0,0,0-2H604.36a1,1,0,0,0,0,2Z"/><path class="cls-5" d="M451.07,186.45h80.26a1,1,0,0,0,0-2H451.07a1,1,0,0,0,0,2Z"/><path class="cls-5" d="M478.53,174.45h80.26a1,1,0,0,0,0-2H478.53a1,1,0,0,0,0,2Z"/><path class="cls-5" d="M571.81,218.89h76.81a1,1,0,0,0,0-2H571.81a1,1,0,0,0,0,2Z"/><path class="cls-5" d="M449.07,265.82H623.76a1,1,0,0,0,0-2H449.07a1,1,0,0,0,0,2Z"/><path class="cls-5" d="M589.51,228.38h59.11a1,1,0,0,0,0-2H589.51a1,1,0,0,0,0,2Z"/><path class="cls-4" d="M754.93,349.44c-20,0-44.95-12.72-55.53-28.36-5.51-8.15-6.82-16.45-3.78-24a3.32,3.32,0,0,1,3.28-2.26c5.09,0,14.2,8.57,18.41,15.79-.62-10,3.17-27.76,11.82-38.15,4.87-5.87,10.66-8.84,17.2-8.84.55,0,1.12,0,1.69.07,20,1.54,33.22,16.53,36.47,41.18,4.72-5.09,10.9-8.57,15.33-8.57a6.12,6.12,0,0,1,4.11,1.38c2.72,2.31,2.64,8.8-.21,16.53C798.91,327.29,783.21,349.44,754.93,349.44Z"/><path class="cls-5" d="M746.33,264.11c.54,0,1.09,0,1.65.07,18.2,1.4,32.9,14.34,36.15,41.83,4.39-5.07,10.91-9.22,15.69-9.22a5.71,5.71,0,0,1,3.79,1.26c7.64,6.51-9,50.89-48.68,50.89-29.17,0-68.8-26.87-58.85-51.69a2.83,2.83,0,0,1,2.82-1.94c5.44,0,16.06,10.63,19.23,18-2.32-12.51,5.63-49.2,28.2-49.2m0-1c-6.7,0-12.61,3-17.59,9-8.33,10-12.15,26.25-12,36.61-4.61-6.94-13-14.43-17.83-14.43a3.85,3.85,0,0,0-3.75,2.57c-3.1,7.73-1.77,16.19,3.84,24.48,10.66,15.76,35.75,28.58,55.94,28.58a49.88,49.88,0,0,0,32.68-12,58.2,58.2,0,0,0,16.58-23.53c3-8.05,3-14.59.07-17.08a6.63,6.63,0,0,0-4.44-1.5c-4.33,0-10.27,3.21-15,8-1.77-12.33-6-22.13-12.46-29.13a36.31,36.31,0,0,0-24.34-11.45c-.57-.05-1.15-.07-1.72-.07Z"/><path class="cls-6" d="M733.6,324.94c-5.17,0-7.78-4.87-7.78-14.47,0-7.78,2-16.1,7.78-16.1,5,0,7.77,5.42,7.77,15.26C741.37,319.93,738.83,324.94,733.6,324.94Z"/><path class="cls-5" d="M733.6,294.87c5.41,0,7.27,6.84,7.27,14.76s-1.51,14.81-7.27,14.81-7.28-6.58-7.28-14,1.86-15.6,7.28-15.6m0-1c-6.11,0-8.28,8.57-8.28,16.6,0,9.94,2.78,15,8.28,15s8.27-5.32,8.27-15.81c0-10.17-2.94-15.76-8.27-15.76Z"/><path class="cls-6" d="M775.47,322.36c-5.22,0-8.73-7.67-8.73-14.84,0-5.7.78-15.27,6-15.27,4.74,0,7.88,9.32,7.88,15.48C780.61,314.25,780.61,322.36,775.47,322.36Z"/><path class="cls-5" d="M772.73,292.75c4.22,0,7.38,8.65,7.38,15s0,14.13-4.64,14.13-8.23-7.05-8.23-14.34,1.27-14.77,5.49-14.77m0-1c-4.18,0-6.49,5.6-6.49,15.77,0,7.41,3.71,15.34,9.23,15.34s5.64-8.39,5.64-15.13c0-6.52-3.26-16-8.38-16Z"/><path class="cls-4" d="M777.77,354.54a2.91,2.91,0,0,1-1.52-.44C769.61,350,761,345,757.56,343a2.92,2.92,0,0,1-1.46-2.58l.45-24.25a1,1,0,0,1,1.78-.62c3.5,4.33,15.44,19.63,22.07,35a2.81,2.81,0,0,1-.22,2.67A2.94,2.94,0,0,1,777.77,354.54Z"/><path class="cls-5" d="M757.56,315.68a.47.47,0,0,1,.38.19c3.32,4.1,15.35,19.48,22,34.88a2.36,2.36,0,0,1-2.17,3.29,2.29,2.29,0,0,1-1.25-.37c-6.69-4.16-15.5-9.26-18.71-11.1a2.44,2.44,0,0,1-1.21-2.14l.45-24.25a.5.5,0,0,1,.51-.5m0-1h0a1.5,1.5,0,0,0-1.51,1.48l-.45,24.25a3.44,3.44,0,0,0,1.71,3c3.42,2,12.07,7,18.68,11.09a3.35,3.35,0,0,0,1.78.52,3.41,3.41,0,0,0,2.82-1.55,3.23,3.23,0,0,0,.26-3.14c-6.65-15.43-18.62-30.77-22.13-35.11a1.48,1.48,0,0,0-1.16-.56Z"/><path class="cls-5" d="M723.84,358.53a27.78,27.78,0,0,0,9.69,3.57,1,1,0,0,0,1.23-.7,1,1,0,0,0-.69-1.23,26.2,26.2,0,0,1-9.22-3.37,1,1,0,0,0-1,1.73Z"/><path class="cls-5" d="M701.33,348.13a44.53,44.53,0,0,0,14.16,14.61,42.15,42.15,0,0,0,5.15,2.82,1,1,0,1,0,1-1.73,42.37,42.37,0,0,1-18.59-16.71,1,1,0,0,0-1.73,1Z"/><path class="cls-5" d="M701.9,367.8A65.1,65.1,0,0,0,722.38,379a63.89,63.89,0,0,0,6.41,1.76c1.25.28,1.79-1.65.53-1.93a62.75,62.75,0,0,1-20.83-8.71,59.7,59.7,0,0,1-5.17-3.75,1,1,0,0,0-1.42,0,1,1,0,0,0,0,1.41Z"/><path class="cls-5" d="M793.13,348.31A24.33,24.33,0,0,1,779,357.75c-1.25.3-.72,2.23.53,1.93a26.44,26.44,0,0,0,15.35-10.36,1,1,0,0,0-.35-1.37,1,1,0,0,0-1.37.36Z"/><path class="cls-5" d="M803.48,360.25a42.12,42.12,0,0,1-26.1,16.07c-1.27.23-.73,2.15.53,1.92a44.13,44.13,0,0,0,22.47-11.5,44.88,44.88,0,0,0,4.83-5.48,1,1,0,1,0-1.73-1Z"/><path class="cls-5" d="M763.49,368.76a33.21,33.21,0,0,0,16.58-1.08c1.22-.4.7-2.34-.53-1.93A31,31,0,0,1,764,366.83c-1.26-.24-1.8,1.69-.53,1.93Z"/><path class="cls-5" d="M736.1,373.51a35.46,35.46,0,0,0,20.58,3.75,1,1,0,1,0,0-2,33.58,33.58,0,0,1-19.57-3.48c-1.14-.59-2.16,1.13-1,1.73Z"/><path class="cls-4" d="M657.31,349.44c-20,0-44.94-12.72-55.52-28.36-5.51-8.15-6.82-16.45-3.79-24a3.33,3.33,0,0,1,3.28-2.26c5.1,0,14.21,8.57,18.42,15.79-.63-10,3.17-27.76,11.81-38.15,4.88-5.87,10.66-8.84,17.2-8.84.56,0,1.12,0,1.69.07,20,1.54,33.23,16.53,36.48,41.18,4.71-5.09,10.9-8.57,15.33-8.57a6.13,6.13,0,0,1,4.11,1.38c2.72,2.31,2.63,8.8-.21,16.53C701.29,327.29,685.59,349.44,657.31,349.44Z"/><path class="cls-5" d="M648.71,264.11c.55,0,1.09,0,1.65.07,18.2,1.4,32.9,14.34,36.16,41.83,4.39-5.07,10.91-9.22,15.69-9.22a5.66,5.66,0,0,1,3.78,1.26c7.65,6.51-8.94,50.89-48.68,50.89-29.16,0-68.8-26.87-58.84-51.69a2.82,2.82,0,0,1,2.81-1.94c5.45,0,16.06,10.63,19.24,18-2.33-12.51,5.62-49.2,28.19-49.2m0-1c-6.69,0-12.61,3-17.58,9-8.33,10-12.16,26.25-12,36.61-4.62-6.94-13-14.43-17.84-14.43a3.83,3.83,0,0,0-3.74,2.57c-3.1,7.73-1.77,16.19,3.83,24.48,10.66,15.76,35.76,28.58,55.94,28.58a49.91,49.91,0,0,0,32.69-12,58.2,58.2,0,0,0,16.58-23.53c3-8.05,3-14.59.06-17.08a6.6,6.6,0,0,0-4.43-1.5c-4.34,0-10.27,3.21-15,8-1.77-12.33-6-22.13-12.45-29.13a36.33,36.33,0,0,0-24.34-11.45c-.58-.05-1.16-.07-1.73-.07Z"/><path class="cls-6" d="M636,324.94c-5.16,0-7.78-4.87-7.78-14.47,0-7.78,2-16.1,7.78-16.1,5,0,7.78,5.42,7.78,15.26C643.76,319.93,641.22,324.94,636,324.94Z"/><path class="cls-5" d="M636,294.87c5.42,0,7.28,6.84,7.28,14.76s-1.52,14.81-7.28,14.81-7.28-6.58-7.28-14,1.87-15.6,7.28-15.6m0-1c-6.1,0-8.28,8.57-8.28,16.6,0,9.94,2.79,15,8.28,15s8.28-5.32,8.28-15.81c0-10.17-2.94-15.76-8.28-15.76Z"/><path class="cls-6" d="M677.86,322.36c-5.22,0-8.73-7.67-8.73-14.84,0-5.7.78-15.27,6-15.27,4.74,0,7.88,9.32,7.88,15.48C683,314.25,683,322.36,677.86,322.36Z"/><path class="cls-5" d="M675.12,292.75c4.22,0,7.38,8.65,7.38,15s0,14.13-4.64,14.13-8.23-7.05-8.23-14.34,1.27-14.77,5.49-14.77m0-1c-4.19,0-6.49,5.6-6.49,15.77,0,7.41,3.71,15.34,9.23,15.34s5.64-8.39,5.64-15.13c0-6.52-3.27-16-8.38-16Z"/><path class="cls-4" d="M680.15,354.54a2.85,2.85,0,0,1-1.51-.44C672,350,663.36,345,660,343a2.92,2.92,0,0,1-1.46-2.58l.45-24.25a1,1,0,0,1,1-1,1,1,0,0,1,.78.37c3.5,4.33,15.43,19.63,22.06,35a2.76,2.76,0,0,1-.22,2.67A2.93,2.93,0,0,1,680.15,354.54Z"/><path class="cls-5" d="M659.94,315.68a.51.51,0,0,1,.39.19c3.31,4.1,15.35,19.48,22,34.88a2.36,2.36,0,0,1-2.17,3.29,2.31,2.31,0,0,1-1.25-.37c-6.68-4.16-15.5-9.26-18.7-11.1a2.4,2.4,0,0,1-1.21-2.14l.45-24.25a.49.49,0,0,1,.5-.5m0-1h0a1.49,1.49,0,0,0-1.5,1.48L658,340.41a3.42,3.42,0,0,0,1.71,3c3.41,2,12.07,7,18.68,11.09a3.32,3.32,0,0,0,1.77.52,3.42,3.42,0,0,0,2.83-1.55,3.25,3.25,0,0,0,.26-3.14c-6.66-15.43-18.62-30.77-22.13-35.11a1.5,1.5,0,0,0-1.17-.56Z"/><path class="cls-5" d="M626.22,358.53a27.9,27.9,0,0,0,9.7,3.57,1,1,0,0,0,1.23-.7,1,1,0,0,0-.7-1.23,26.27,26.27,0,0,1-9.22-3.37,1,1,0,0,0-1,1.73Z"/><path class="cls-5" d="M603.72,348.13a44.34,44.34,0,0,0,14.16,14.61,42.15,42.15,0,0,0,5.15,2.82,1,1,0,0,0,1-1.73,42.26,42.26,0,0,1-18.59-16.71,1,1,0,0,0-1.73,1Z"/><path class="cls-5" d="M604.29,367.8a64.52,64.52,0,0,0,26.88,13c1.26.28,1.79-1.65.53-1.93a62.7,62.7,0,0,1-20.82-8.71,61.44,61.44,0,0,1-5.18-3.75,1,1,0,0,0-1.41,0,1,1,0,0,0,0,1.41Z"/><path class="cls-5" d="M695.51,348.31a24.3,24.3,0,0,1-14.16,9.44c-1.25.3-.72,2.23.54,1.93a26.47,26.47,0,0,0,15.35-10.36,1,1,0,0,0-.36-1.37,1,1,0,0,0-1.37.36Z"/><path class="cls-5" d="M705.86,360.25a42.06,42.06,0,0,1-26.1,16.07c-1.26.23-.72,2.15.54,1.92a44.13,44.13,0,0,0,22.47-11.5,44.8,44.8,0,0,0,4.82-5.48,1,1,0,1,0-1.73-1Z"/><path class="cls-5" d="M665.87,368.76a33.24,33.24,0,0,0,16.59-1.08c1.21-.4.69-2.34-.53-1.93a31,31,0,0,1-15.53,1.08c-1.25-.24-1.79,1.69-.53,1.93Z"/><path class="cls-5" d="M638.48,373.51a35.51,35.51,0,0,0,20.59,3.75,1,1,0,0,0,0-2,33.61,33.61,0,0,1-19.58-3.48c-1.14-.59-2.15,1.13-1,1.73Z"/><path class="cls-4" d="M558.13,349.44c-20,0-45-12.72-55.52-28.36-5.51-8.15-6.82-16.45-3.79-24a3.33,3.33,0,0,1,3.28-2.26c5.1,0,14.21,8.57,18.41,15.79-.62-10,3.18-27.76,11.82-38.15,4.87-5.87,10.66-8.84,17.2-8.84.56,0,1.12,0,1.69.07,20,1.54,33.23,16.53,36.48,41.18,4.71-5.09,10.89-8.57,15.33-8.57a6.13,6.13,0,0,1,4.11,1.38c2.71,2.31,2.63,8.8-.21,16.53C602.11,327.29,586.41,349.44,558.13,349.44Z"/><path class="cls-5" d="M549.53,264.11c.54,0,1.09,0,1.65.07,18.2,1.4,32.9,14.34,36.16,41.83,4.39-5.07,10.91-9.22,15.69-9.22a5.66,5.66,0,0,1,3.78,1.26c7.65,6.51-8.94,50.89-48.68,50.89-29.17,0-68.8-26.87-58.85-51.69a2.84,2.84,0,0,1,2.82-1.94c5.44,0,16.06,10.63,19.24,18-2.33-12.51,5.62-49.2,28.19-49.2m0-1c-6.69,0-12.61,3-17.58,9-8.33,10-12.16,26.25-12,36.61-4.61-6.94-13-14.43-17.83-14.43a3.83,3.83,0,0,0-3.74,2.57c-3.1,7.73-1.78,16.19,3.83,24.48,10.66,15.76,35.76,28.58,55.94,28.58a49.93,49.93,0,0,0,32.69-12,58.29,58.29,0,0,0,16.58-23.53c3-8.05,3-14.59.06-17.08a6.6,6.6,0,0,0-4.43-1.5c-4.34,0-10.27,3.21-15,8-1.77-12.33-5.95-22.13-12.45-29.13a36.33,36.33,0,0,0-24.34-11.45c-.58-.05-1.16-.07-1.73-.07Z"/><path class="cls-6" d="M536.8,324.94c-5.16,0-7.78-4.87-7.78-14.47,0-7.78,2-16.1,7.78-16.1,5,0,7.78,5.42,7.78,15.26C544.58,319.93,542,324.94,536.8,324.94Z"/><path class="cls-5" d="M536.8,294.87c5.41,0,7.28,6.84,7.28,14.76s-1.52,14.81-7.28,14.81-7.28-6.58-7.28-14,1.86-15.6,7.28-15.6m0-1c-6.1,0-8.28,8.57-8.28,16.6,0,9.94,2.79,15,8.28,15s8.28-5.32,8.28-15.81c0-10.17-2.94-15.76-8.28-15.76Z"/><path class="cls-6" d="M578.68,322.36c-5.22,0-8.73-7.67-8.73-14.84,0-5.7.78-15.27,6-15.27,4.74,0,7.89,9.32,7.89,15.48C583.82,314.25,583.82,322.36,578.68,322.36Z"/><path class="cls-5" d="M575.93,292.75c4.22,0,7.39,8.65,7.39,15s0,14.13-4.64,14.13-8.23-7.05-8.23-14.34,1.27-14.77,5.48-14.77m0-1c-4.18,0-6.48,5.6-6.48,15.77,0,7.41,3.71,15.34,9.23,15.34s5.64-8.39,5.64-15.13c0-6.52-3.27-16-8.39-16Z"/><path class="cls-4" d="M581,354.54a2.85,2.85,0,0,1-1.51-.44C572.82,350,564.17,345,560.77,343a2.92,2.92,0,0,1-1.46-2.58l.44-24.25a1,1,0,0,1,1.78-.62c3.5,4.33,15.44,19.63,22.07,35a2.76,2.76,0,0,1-.22,2.67A2.93,2.93,0,0,1,581,354.54Z"/><path class="cls-5" d="M560.76,315.68a.51.51,0,0,1,.39.19c3.31,4.1,15.35,19.48,22,34.88A2.36,2.36,0,0,1,581,354a2.31,2.31,0,0,1-1.25-.37c-6.69-4.16-15.5-9.26-18.71-11.1a2.41,2.41,0,0,1-1.2-2.14l.44-24.25a.51.51,0,0,1,.51-.5m0-1h0a1.5,1.5,0,0,0-1.51,1.48l-.44,24.25a3.4,3.4,0,0,0,1.71,3c3.41,2,12.06,7,18.67,11.09A3.38,3.38,0,0,0,581,355a3.42,3.42,0,0,0,2.83-1.55,3.28,3.28,0,0,0,.26-3.14c-6.66-15.43-18.63-30.77-22.14-35.11a1.46,1.46,0,0,0-1.16-.56Z"/><path class="cls-5" d="M527,358.53a27.9,27.9,0,0,0,9.7,3.57,1,1,0,0,0,1.23-.7,1,1,0,0,0-.7-1.23,26.2,26.2,0,0,1-9.22-3.37,1,1,0,0,0-1,1.73Z"/><path class="cls-5" d="M504.54,348.13a44.4,44.4,0,0,0,14.15,14.61,42.91,42.91,0,0,0,5.15,2.82,1,1,0,0,0,1.37-.36,1,1,0,0,0-.36-1.37,42.37,42.37,0,0,1-18.59-16.71,1,1,0,0,0-1.72,1Z"/><path class="cls-5" d="M505.11,367.8a64.52,64.52,0,0,0,26.88,13c1.26.28,1.79-1.65.53-1.93a62.84,62.84,0,0,1-26-12.46,1,1,0,0,0-1.41,0,1,1,0,0,0,0,1.41Z"/><path class="cls-5" d="M596.33,348.31a24.33,24.33,0,0,1-14.16,9.44c-1.25.3-.72,2.23.53,1.93a26.46,26.46,0,0,0,15.36-10.36,1,1,0,0,0-.36-1.37,1,1,0,0,0-1.37.36Z"/><path class="cls-5" d="M606.68,360.25a42.06,42.06,0,0,1-26.1,16.07c-1.26.23-.73,2.15.53,1.92a43.85,43.85,0,0,0,27.3-17,1,1,0,1,0-1.73-1Z"/><path class="cls-5" d="M566.69,368.76a33.24,33.24,0,0,0,16.59-1.08c1.21-.4.69-2.34-.53-1.93a31,31,0,0,1-15.53,1.08c-1.25-.24-1.79,1.69-.53,1.93Z"/><path class="cls-5" d="M539.3,373.51a35.48,35.48,0,0,0,20.59,3.75,1,1,0,0,0,1-1,1,1,0,0,0-1-1,33.61,33.61,0,0,1-19.58-3.48c-1.14-.59-2.15,1.13-1,1.73Z"/><path class="cls-6" d="M973,274.61c-18.44,0-37.58-5.35-56.88-15.88a7.64,7.64,0,0,1-3.7-4.67c-3.54-13.17-20-80.87,2.9-120.14,7.91-13.55,19.76-22.44,35.21-26.42a40.81,40.81,0,0,1,10.15-1.28c12.31,0,22.83,5.41,29.5,10a60.92,60.92,0,0,0,14.44,7.3c6.85,2.36,15.55,6.45,18.09,12.55,3.11,7.48.18,14.47-2.41,20.63a54.85,54.85,0,0,0-2.48,6.67c-1.89,7-4.78,58.11,2.58,94.4a4.67,4.67,0,0,1-2.27,5A89.91,89.91,0,0,1,973,274.61Z"/><path class="cls-5" d="M960.72,106.72c12.32,0,22.86,5.53,29.21,9.86a61.16,61.16,0,0,0,14.56,7.37c6.63,2.28,15.31,6.3,17.79,12.26,4.17,10-2.79,19.1-4.91,27-2.06,7.67-4.62,59.2,2.57,94.63a4.2,4.2,0,0,1-2,4.45A90,90,0,0,1,973,274.11c-16.89,0-35.92-4.51-56.64-15.82a7.06,7.06,0,0,1-3.46-4.36c-5.15-19.18-31.17-128.21,37.76-145.94a39.8,39.8,0,0,1,10-1.27m0-1v0h0a41.26,41.26,0,0,0-10.28,1.3c-15.59,4-27.54,13-35.52,26.65-9.73,16.66-13.61,40.07-11.54,69.57A284.21,284.21,0,0,0,912,254.19a8.15,8.15,0,0,0,3.95,5c19.38,10.57,38.59,15.94,57.12,15.94a90.38,90.38,0,0,0,45.38-12,5.17,5.17,0,0,0,2.51-5.51c-7.35-36.22-4.47-87.16-2.58-94.17a55,55,0,0,1,2.45-6.61c2.63-6.25,5.6-13.34,2.41-21-2.61-6.27-11.44-10.44-18.39-12.83a60.33,60.33,0,0,1-14.32-7.25c-6.72-4.57-17.34-10-29.77-10Z"/><polygon class="cls-23" points="1014.7 236.51 982.76 220.51 982.76 162.89 1014.7 178.89 1014.7 236.51"/><polygon class="cls-23" points="1014.7 236.51 1058.7 223.23 1058.7 165.61 1014.7 178.89 1014.7 236.51"/><polygon class="cls-23" points="1058.7 165.61 1014.7 178.89 982.76 162.89 1024.5 151.86 1058.7 165.61"/><polygon class="cls-24" points="1036.7 184.98 1041.7 193.37 1052.86 191.15 1044.78 201.81 1046.69 212.27 1036.7 210.46 1026.72 219.14 1028.63 207.37 1020.55 202.28 1031.71 196.81 1036.7 184.98"/><path class="cls-4" d="M970.74,274.58c-17.74-.42-36.14-5.77-54.69-15.9a7.5,7.5,0,0,1-3.61-4.62c-.73-2.73-1.85-7.12-3.05-12.73-2.38-.15-5.95-.35-10.08-.51-4.92-.19-9.58-.28-13.86-.28-5.16,0-9.75.14-13.67.41h-.25a3.66,3.66,0,0,1-3.08-5.59c5.33-8.61,16.25-24.24,29.43-32.33a39.41,39.41,0,0,1,5.8-3c-2-36.29,4.48-81.65,46.89-92.55a40.31,40.31,0,0,1,10.16-1.29c12.29,0,22.82,5.41,29.48,10a61.45,61.45,0,0,0,14.43,7.31c6.86,2.35,15.56,6.44,18.09,12.54l.09.21-.1.21c-5.59,11.05-15.25,13.37-26.44,16.05-9.52,2.28-20.31,4.87-30.08,13.7-17.81,16.1-18.75,33.79-18.77,37,2-.2,4.43-.49,7.21-.82,8-1,17.87-2.14,26.19-2.14,8.76,0,13.84,1.34,15.55,4.1a5.61,5.61,0,0,1,.21,5c-2.9,8-19.11,19.63-30.51,23.78,5.34,3.26,7.61,9.42,6.22,17.1-.18,1-.39,2.08-.6,3.12-1.11,5.49-2.26,11.16-.46,20.63l.12.6Z"/><path class="cls-5" d="M960.73,106.72c12.32,0,22.85,5.54,29.2,9.86a61.28,61.28,0,0,0,14.55,7.37c6.64,2.28,15.32,6.3,17.79,12.26-10.32,20.42-35.36,10.59-56.41,29.61-17.37,15.7-19.22,33.69-18.92,37.92,7.59-.71,22.42-3,33.89-3,7.35,0,13.32.94,15.12,3.86,4.62,7.46-17.5,23.94-31.09,28.44,6.64,3.38,8.15,10.46,6.95,17.12s-3.22,12.57-1.06,23.93c-16.34-.38-34.62-5-54.46-15.84a7,7,0,0,1-3.36-4.31c-.74-2.73-1.89-7.26-3.13-13.08-2.4-.15-6.1-.36-10.47-.53-4.19-.16-9-.28-13.88-.28-4.67,0-9.4.11-13.7.41h-.22a3.16,3.16,0,0,1-2.66-4.83c5.14-8.29,16.06-24.06,29.27-32.16a38.4,38.4,0,0,1,6.06-3.08C902,162.92,909,118.72,950.69,108a39.93,39.93,0,0,1,10-1.27m0-1v0a41.4,41.4,0,0,0-10.29,1.3c-42.59,11-49.27,56.3-47.28,92.71a41.52,41.52,0,0,0-5.55,2.89c-13.26,8.14-24.23,23.84-29.59,32.48a4.17,4.17,0,0,0,3.51,6.36h.29c3.9-.27,8.48-.41,13.63-.41,4.28,0,8.93.09,13.84.28,3.91.15,7.32.34,9.69.48,1.18,5.45,2.26,9.72,3,12.39a8,8,0,0,0,3.85,4.93c18.62,10.17,37.09,15.54,54.92,16l1.23,0-.23-1.22c-1.78-9.37-.64-15,.46-20.43.2-1,.42-2.08.61-3.13,1.32-7.37-.77-13.59-5.63-17.07,11.61-4.5,27-15.69,29.89-23.73a6.06,6.06,0,0,0-.26-5.47c-1.83-2.95-6.9-4.33-16-4.33-8.35,0-18.27,1.19-26.25,2.14-2.52.31-4.75.57-6.64.77.13-4.25,1.75-20.86,18.59-36.08,9.68-8.74,20.41-11.31,29.87-13.58,10.84-2.6,21.07-5.06,26.76-16.32l.21-.41-.18-.42c-2.59-6.28-11.43-10.44-18.38-12.83a59.77,59.77,0,0,1-14.32-7.25c-6.72-4.57-17.34-10-29.76-10Z"/><path class="cls-6" d="M923.84,215.08c-7.4,0-8.26-15.64-8.26-27.39,0-11.53,4.89-23.87,12.18-23.87,7.83,0,8.84,12.75,8.84,23.87C936.6,201.32,932.65,215.08,923.84,215.08Z"/><path class="cls-5" d="M927.76,164.32c7,0,8.34,11,8.34,23.36s-3.39,26.9-12.25,26.9c-6.89,0-7.77-15.5-7.77-26.9s4.73-23.36,11.68-23.36m0-1c-7.83,0-12.68,12.65-12.68,24.36,0,12,.91,27.9,8.77,27.9,9.78,0,13.25-15,13.25-27.9,0-11.34-1.07-24.36-9.34-24.36Z"/><circle class="cls-6" cx="948.17" cy="143.28" r="13.49"/><circle class="cls-4" cx="949.29" cy="142.39" r="10.76"/><circle class="cls-6" cx="950.72" cy="139.3" r="4.75"/><circle class="cls-6" cx="947.92" cy="147.48" r="2.74"/><path class="cls-5" d="M1036.5,257.66c-.09,4.2-.46,8.6-2.37,12.43a13.09,13.09,0,0,1-7.45,6.92c-1.22.4-.7,2.33.54,1.93a15.07,15.07,0,0,0,8.56-7.68c2.14-4.19,2.62-9,2.72-13.6a1,1,0,0,0-2,0Z"/><path class="cls-5" d="M1038.16,286.32a18.82,18.82,0,0,1-11.38,6,1,1,0,0,0-.7,1.23,1,1,0,0,0,1.23.69,20.43,20.43,0,0,0,12.27-6.5c.86-1-.55-2.37-1.42-1.41Z"/><path class="cls-5" d="M1068.06,291.88a70.73,70.73,0,0,1-17.55,19.69,73.44,73.44,0,0,1-23.46,12.1,69.28,69.28,0,0,1-14.61,2.77c-1.27.1-1.28,2.1,0,2a73.1,73.1,0,0,0,26.3-7.24,74.84,74.84,0,0,0,21.78-16,71.17,71.17,0,0,0,9.27-12.28,1,1,0,0,0-1.73-1Z"/><path class="cls-5" d="M926.26,296.77a41.73,41.73,0,0,0,20.86,6.84c1.29.07,1.28-1.93,0-2A39.69,39.69,0,0,1,927.27,295c-1.08-.71-2.08,1-1,1.73Z"/><path class="cls-5" d="M893.83,265.86a21.9,21.9,0,0,0,8.21,17.2,1,1,0,0,0,1.42,0,1,1,0,0,0,0-1.41,20,20,0,0,1-7.63-15.79,1,1,0,0,0-2,0Z"/><path class="cls-5" d="M1004,309.39a111.7,111.7,0,0,1-25.37,5.39,110.82,110.82,0,0,1-40.23-3.56,1,1,0,0,0-.54,1.93,114,114,0,0,0,52.33,2,110.91,110.91,0,0,0,14.34-3.8c1.21-.41.69-2.34-.53-1.93Z"/><path class="cls-5" d="M893.12,286.2a23,23,0,0,0,10,8.91,1,1,0,0,0,1.37-.36,1,1,0,0,0-.36-1.36,21.3,21.3,0,0,1-9.26-8.19c-.67-1.1-2.4-.1-1.72,1Z"/><path class="cls-5" d="M911.45,315.32a83.18,83.18,0,0,0,31.46,9.9,81.77,81.77,0,0,0,9.39.45,1,1,0,0,0,0-2,80.21,80.21,0,0,1-39.84-10.08c-1.13-.63-2.14,1.1-1,1.73Z"/><path class="cls-5" d="M1006.37,285.83a84.55,84.55,0,0,1-26.55,5.25q-3.84.12-7.67-.1c-1.29-.07-1.28,1.93,0,2a86.29,86.29,0,0,0,27.33-2.84c2.51-.68,5-1.48,7.42-2.38,1.2-.45.68-2.38-.53-1.93Z"/></g></svg>