<svg xmlns="http://www.w3.org/2000/svg" xmlns:xlink="http://www.w3.org/1999/xlink" viewBox="0 0 1129.06 375.04"><defs><style>.cls-1{fill:none;}.cls-2{isolation:isolate;}.cls-3{clip-path:url(#clip-path);}.cls-4{fill:#1c1d20;}.cls-5{fill:#24242b;}.cls-6{fill:#2e0091;}.cls-7{clip-path:url(#clip-path-2);}.cls-8{fill:#383838;opacity:0.2;mix-blend-mode:multiply;}.cls-9{fill:#fff;}.cls-10{fill:#cad5e1;}.cls-11{clip-path:url(#clip-path-3);}.cls-12{fill:#edb4a3;}.cls-13{fill:#dd8068;}.cls-14{fill:#020202;}</style><clipPath id="clip-path"><rect class="cls-1" x="-0.81" width="1130.68" height="375.04"/></clipPath><clipPath id="clip-path-2"><path class="cls-1" d="M534.05,378s105.84-73.59,70.14-123.71c-4.76-6.68-19.94-22.89-52.77-8,0,0-12.07-12.77-22.23-9.38-10.51,3.5-2,19.92-2,19.92s-24.65,7.2-41,19.25c-13.79,10.15-58.95,33.78-58.95,33.78l19.88,72.3Z"/></clipPath><clipPath id="clip-path-3"><path class="cls-1" d="M462.74,235.08s27.16,12,27.16,35.84a16.15,16.15,0,0,1-1.06,5.55s-13.45,14.8-48.71,14.8c-44.63,0-80.13-14.41-108.64-32.26C315,248.65,305,236.48,298.16,229.58a7.19,7.19,0,0,0-9.84-.32c-18.9,16.63-33.43,53-35.68,82.89a9.29,9.29,0,0,0,6.57,9.59c15,4.51,50.62,19.14,67.18,59.28l.72,1.8-184,3.6,1.24-11c-26-7.3-63.17-10-83.39-11a8.91,8.91,0,0,1-7-13.76c27-41.38,77-62.17,101.07-70.16,8.17-2.71,13.34-3.94,13.62-4h0c12.48-91.61,53.17-214,181.45-214,88.82,0,123.92,55.18,136.23,84.16a141.85,141.85,0,0,0,15.62,27.52,45.8,45.8,0,0,1,9,27C510.93,222.64,462.74,235.08,462.74,235.08Z"/></clipPath></defs><title>画板 1 副本 7</title><g class="cls-2"><g id="图层_1" data-name="图层 1"><g class="cls-3"><rect class="cls-4" x="-0.81" width="1130.68" height="375.04"/><path class="cls-5" d="M425.41,309.07l1.07-.56c.45-.24,45.22-23.69,58.76-33.66,14.13-10.4,34-17.12,39.82-19-1.37-3.17-3.93-10.29-1.84-15.43a8.52,8.52,0,0,1,5.5-5,12.94,12.94,0,0,1,4.1-.65c8.28,0,16.44,7.25,18.93,9.66,8.76-3.85,17-5.8,24.43-5.8,16.29,0,25.31,9.24,29.23,14.74,6.65,9.34,9,20.11,6.9,32-7.81,44.95-74.57,91.82-77.41,93.8l-.35.24-88.62,4.22Z"/><path class="cls-6" d="M532.82,236.31c9.19,0,18.6,10,18.6,10,9.75-4.42,17.93-6.1,24.76-6.1,16.16,0,24.66,9.42,28,14.11C639.89,304.4,534.05,378,534.05,378l-87,4.15-19.88-72.3s45.16-23.63,58.95-33.78c16.37-12.05,41-19.25,41-19.25s-8.47-16.42,2-19.92a11.34,11.34,0,0,1,3.63-.58m0-3v0a14.55,14.55,0,0,0-4.58.73,10.11,10.11,0,0,0-6.41,5.85c-2,4.94-.25,11.26,1.22,15.06-7.35,2.41-25.47,8.95-38.69,18.69-13.46,9.91-58.12,33.31-58.57,33.54l-2.15,1.12.64,2.33,19.89,72.3.64,2.32,2.4-.12,87-4.14.86,0,.71-.49a328.88,328.88,0,0,0,35.84-29.9c24.65-23.8,38.84-45.63,42.19-64.87,2.14-12.33-.27-23.48-7.16-33.15-4.09-5.74-13.48-15.37-30.45-15.37-7.4,0-15.51,1.86-24.12,5.54-3.24-3-11.13-9.4-19.24-9.4Z"/><g class="cls-7"><path class="cls-8" d="M459.36,309.22s53.4,18,74.69,68.77L464,389.4l-36.86-83.93Z"/></g><path class="cls-9" d="M424.13,383.56c-88,0-258.32-7-260-7.1l-1.35,0-.08-1.36a569.91,569.91,0,0,1,5-99.94c7-50.67,24.36-120.61,67.21-166.1,30.08-31.94,69-48.13,115.58-48.13,39.13,0,72,10.62,97.76,31.55A139.62,139.62,0,0,1,488.08,146a140.82,140.82,0,0,0,15.45,27.23A47.46,47.46,0,0,1,512.86,201c0,19-34.07,30.89-45.62,34.37,7.54,4.21,24.58,15.9,24.58,35.44,0,17-29,38.72-67,52.83,9-2.14,17.42-4.52,22.25-6.8l.9-.42.74.66c16,14.29,24.75,32.65,29.27,61.39a2,2,0,0,1-.47,1.59C476.52,381.31,474.59,383.56,424.13,383.56Z"/><path class="cls-6" d="M350.46,62.38c88.82,0,123.93,55.19,136.24,84.16a141.7,141.7,0,0,0,15.62,27.53,45.84,45.84,0,0,1,9,27c0,21.52-48.2,34-48.2,34s27.16,12,27.16,35.84c0,20.5-47.56,50.66-101.75,61.66,0,0,44.79-7.5,59.18-14.27,15.27,13.64,24.2,31.33,28.79,60.51.38,2.42-20.86,3.31-52.42,3.31-89,0-260-7.1-260-7.1S145.46,62.38,350.46,62.38m0-3c-47,0-86.29,16.35-116.67,48.6-19.08,20.26-34.77,47-46.63,79.34-9.44,25.8-16.5,55.27-21,87.58a572.25,572.25,0,0,0-5,100.24l.16,2.71L164,378c1.71.07,172.07,7.1,260.08,7.1,51.17,0,53.13-2.3,54.57-4a3.48,3.48,0,0,0,.81-2.8C474.92,349.16,466,330.54,449.75,316l-1.2-1.07c4.48-2.27,8.76-4.66,12.79-7.13,20.62-12.69,32-25.81,32-36.95,0-18.06-13.9-29.62-22.45-35a147.49,147.49,0,0,0,17.69-7c17.12-8.25,25.8-17.59,25.8-27.76a49,49,0,0,0-9.61-28.73,138.9,138.9,0,0,1-15.29-26.94,141.13,141.13,0,0,0-40.29-54.1c-26-21.16-59.23-31.89-98.71-31.89Z"/><path class="cls-10" d="M283.68,332.47S333,343,351.34,385.06l-57.24,1.36Z"/><path class="cls-5" d="M142.69,376.49c-25.93-7-62.28-9.65-81.83-10.59a10.42,10.42,0,0,1-8.23-16.08c26.73-41,75.29-61.94,101.86-70.76,6.13-2,10.66-3.27,12.75-3.8,8-58.06,24-105.49,47.4-141C246.77,85.63,292.32,61,350,61c39.12,0,72,10.61,97.75,31.55A139.6,139.6,0,0,1,487.65,146a140.65,140.65,0,0,0,15.46,27.23,47.4,47.4,0,0,1,9.32,27.85c0,19-34.06,30.9-45.61,34.37,7.54,4.22,24.58,15.91,24.58,35.44a17.81,17.81,0,0,1-1.15,6.07l-.1.27-.2.22c-.57.62-14.3,15.29-49.82,15.29-38.72,0-74.52-10.63-109.44-32.49-13.6-8.52-22.74-18.21-29.41-25.28-1.5-1.58-2.91-3.08-4.18-4.36a5.69,5.69,0,0,0-7.79-.25c-17.71,15.58-32.83,50.78-35.17,81.87a7.81,7.81,0,0,0,5.5,8c14.87,4.47,51.28,19.28,68.14,60.15l.73,1.82.79,2L141.4,388Z"/><path class="cls-6" d="M350,62.46c88.82,0,123.92,55.18,136.23,84.16a141.85,141.85,0,0,0,15.62,27.52,45.8,45.8,0,0,1,9,27c0,21.53-48.19,34-48.19,34s27.16,12,27.16,35.84a16.15,16.15,0,0,1-1.06,5.55s-13.45,14.8-48.71,14.8c-44.63,0-80.13-14.41-108.64-32.26C315,248.65,305,236.48,298.16,229.58a7.2,7.2,0,0,0-9.84-.32c-18.9,16.63-33.43,53-35.68,82.89a9.29,9.29,0,0,0,6.57,9.59c15,4.51,50.62,19.14,67.18,59.28l.72,1.8-184,3.6,1.24-11c-26-7.3-63.17-10-83.39-11a8.91,8.91,0,0,1-7-13.76c27-41.38,77-62.17,101.07-70.16,8.17-2.71,13.34-3.94,13.62-4h0c12.48-91.61,53.17-214,181.45-214m0-3c-58.25,0-104.23,24.9-136.65,74-23.43,35.47-39.4,82.77-47.5,140.6-2.38.63-6.52,1.8-11.87,3.57A253.88,253.88,0,0,0,104,300.47C81.08,314.24,63.39,330.57,51.38,349a11.91,11.91,0,0,0,9.41,18.4c19.18.92,54.57,3.46,80.26,10.2l-1,8.49-.38,3.4,3.42-.07,184-3.6,4.31-.08-1.58-4-.48-1.2-.24-.61c-17.12-41.49-54-56.51-69.11-61a6.32,6.32,0,0,1-4.44-6.49c2.31-30.75,17.22-65.51,34.67-80.87a4.21,4.21,0,0,1,2.77-1,4.12,4.12,0,0,1,3,1.23c1.26,1.26,2.67,2.75,4.16,4.33,6.73,7.13,15.94,16.9,29.71,25.52,35.16,22,71.22,32.72,110.23,32.72,36.17,0,50.35-15.14,50.93-15.78l.4-.44.2-.55a19.25,19.25,0,0,0,1.24-6.58c0-18.05-13.9-29.61-22.45-35a144.83,144.83,0,0,0,17.69-7c17.11-8.24,25.79-17.58,25.79-27.76a48.88,48.88,0,0,0-9.61-28.73A139.19,139.19,0,0,1,489,145.45a141,141,0,0,0-40.29-54.1c-26-21.16-59.22-31.89-98.7-31.89Z"/><g class="cls-11"><path class="cls-12" d="M386.5,290.34l-90-41.71L306,238.15c2.76-1.17,25.81-10.5,59-10.5,18.54,0,33.72,3.27,47.11,6.16,11.05,2.39,21.49,4.64,32,4.64a92.59,92.59,0,0,0,19-1.91h.08l.08,0c.13,0,12.75-4.27,24-4.27s16.77,4,16.77,12.22c0,1.13.08,2.92.18,5.19.54,12,1.79,39.95-6,47.15L451.34,303Z"/><path class="cls-6" d="M365,229.15c18.38,0,33.47,3.26,46.79,6.13C423,237.68,433.47,240,444.1,240A94,94,0,0,0,463.38,238l.17,0,.15-.05c.13,0,12.5-4.19,23.48-4.19,13.69,0,15.27,6.12,15.27,10.72,0,1.16.08,3,.18,5.25a230.45,230.45,0,0,1,.06,26.1c-.9,12.26-3.27,17.43-5.3,19.57l-46,6.12L387,288.91,299,248.12l7.92-8.72c3.73-1.55,26.1-10.25,58.1-10.25m0-3c-36,0-59.88,10.75-59.88,10.75L294,249.13l92,42.65,65.26,12.75,47.44-6.31c10.28-8.48,6.72-46.44,6.72-53.77,0-10.77-8.71-13.72-18.27-13.72-11.6,0-24.44,4.35-24.44,4.35A91.59,91.59,0,0,1,444.1,237c-22.89,0-45-10.8-79.07-10.8Z"/></g><path class="cls-13" d="M440.13,292.77c-38.72,0-74.52-10.63-109.44-32.49-2.49-1.56-5-3.25-7.34-5l-2.55-1.89,3.07-.77a118.13,118.13,0,0,1,27.34-3.28c13.27,0,25,2.51,34.66,7.35l2.22-.58a109.35,109.35,0,0,1,25.55-2.77c19.48,0,47.44,4.66,70,26.85l1.37,1.35-1.64,1C475.67,287.21,462,292.77,440.13,292.77Z"/><path class="cls-6" d="M351.21,250.84c14.89,0,32.81,3.16,46,15.5a40.13,40.13,0,0,0-8.76-8.78,108.73,108.73,0,0,1,25.17-2.72c19.51,0,46.86,4.7,68.91,26.42-7.09,4.32-20.57,10-42.42,10-44.63,0-80.13-14.41-108.64-32.26-2.57-1.61-5-3.27-7.25-4.94a116.37,116.37,0,0,1,27-3.23m0-3a119.8,119.8,0,0,0-27.7,3.32l-6.16,1.55,5.11,3.77c2.41,1.78,4.91,3.49,7.44,5.07,35.16,22,71.22,32.72,110.23,32.72,22.18,0,36.16-5.68,44-10.45l3.28-2-2.73-2.7c-22.89-22.54-51.26-27.28-71-27.28a110.39,110.39,0,0,0-25.93,2.82l-1.68.44c-9.76-4.78-21.54-7.26-34.82-7.26Z"/><path class="cls-9" d="M209.71,294.71a13,13,0,0,1-3.93-.6c-4.44-1.41-7.93-4.64-10.37-9.6-7.35-14.94-3.47-41.42,1.63-55.46,5.33-14.64,17.07-39.21,35.89-39.21a22,22,0,0,1,2.9.2,17.2,17.2,0,0,1,12.81,8.21C257.33,212.08,252,239,248,251.3,243.06,266.45,225.55,294.71,209.71,294.71Z"/><path class="cls-6" d="M232.93,191.34a20.87,20.87,0,0,1,2.7.18c23.34,3.14,16,43.83,11,59.32s-22.14,42.37-36.87,42.37a11.48,11.48,0,0,1-3.48-.53c-18.15-5.77-14.7-44.1-7.78-63.12,5.18-14.24,16.71-38.22,34.48-38.22m0-3h0c-19.73,0-31.84,25.19-37.3,40.2-5.19,14.28-9.11,41.3-1.56,56.64,2.62,5.33,6.41,8.82,11.25,10.36a14.74,14.74,0,0,0,4.39.67c16.78,0,34.51-28.49,39.72-44.44,4.09-12.54,9.46-40,.48-54.32a18.63,18.63,0,0,0-13.88-8.9,23.29,23.29,0,0,0-3.1-.21Z"/><ellipse class="cls-9" cx="294.1" cy="153.32" rx="29.14" ry="34.2"/><ellipse class="cls-14" cx="300.04" cy="151.3" rx="23.21" ry="25.55"/><circle class="cls-9" cx="301.66" cy="141.03" r="9.68"/><circle class="cls-9" cx="294.04" cy="160.43" r="6"/><path class="cls-9" d="M324.22,243.36a1.44,1.44,0,0,1-1.05-.45l-6.34-6.47a1.5,1.5,0,0,1,.69-2.5l7.65-2a1.32,1.32,0,0,1,.39-.06,1.52,1.52,0,0,1,1.14.53,1.49,1.49,0,0,1,.33,1.2l-1.32,8.49a1.49,1.49,0,0,1-1.49,1.27Z"/><path class="cls-6" d="M325.56,232.87a.54.54,0,0,1,.38.18.52.52,0,0,1,.11.4l-1.32,8.48a.52.52,0,0,1-.51.43.46.46,0,0,1-.34-.15l-6.34-6.47a.47.47,0,0,1-.12-.48.46.46,0,0,1,.35-.35l7.66-2,.13,0m0-2a2.41,2.41,0,0,0-.64.09l-7.66,2a2.51,2.51,0,0,0-1.15,4.17l6.34,6.47a2.5,2.5,0,0,0,4.25-1.37l1.32-8.48a2.5,2.5,0,0,0-2.46-2.89Z"/><path class="cls-9" d="M348.91,239.21a1.46,1.46,0,0,1-1.19-.6L342,231.06a1.48,1.48,0,0,1-.18-1.5,1.46,1.46,0,0,1,1.22-.89l8.36-.84h.16a1.48,1.48,0,0,1,1.41,1.95l-2.66,8.38a1.48,1.48,0,0,1-1.43,1.05Z"/><path class="cls-6" d="M351.58,228.83a.51.51,0,0,1,.4.2.49.49,0,0,1,.07.45l-2.66,8.38a.5.5,0,0,1-.48.35.47.47,0,0,1-.39-.2l-5.7-7.56a.45.45,0,0,1-.05-.49.44.44,0,0,1,.4-.3l8.36-.83h.05m0-2h-.25l-8.36.83a2.49,2.49,0,0,0-1.74,4l5.69,7.55a2.46,2.46,0,0,0,2,1,2.49,2.49,0,0,0,2.39-1.75l2.66-8.38a2.5,2.5,0,0,0-2.38-3.25Z"/><path class="cls-9" d="M376.1,238.75a1.46,1.46,0,0,1-1.33-.82l-4.11-8.16a1.46,1.46,0,0,1,.06-1.46,1.5,1.5,0,0,1,1.27-.71l7.62.39a1.49,1.49,0,0,1,1.29,2.1l-3.42,7.77a1.47,1.47,0,0,1-1.38.89Z"/><path class="cls-6" d="M372,228.6h0l7.54.39a.5.5,0,0,1,.4.23.53.53,0,0,1,0,.47l-3.43,7.77a.48.48,0,0,1-.46.29.46.46,0,0,1-.44-.27l-4.11-8.16a.49.49,0,0,1,0-.48.5.5,0,0,1,.42-.24m0-2a2.5,2.5,0,0,0-2.22,3.62l4.11,8.16a2.45,2.45,0,0,0,2.22,1.37,2.47,2.47,0,0,0,2.29-1.49l3.43-7.77a2.5,2.5,0,0,0-2.16-3.5l-7.53-.39Z"/><path class="cls-9" d="M406.49,242.55a1.45,1.45,0,0,1-1.36-.89l-3.48-7.79a1.47,1.47,0,0,1,.11-1.42,1.5,1.5,0,0,1,1.25-.69l.27,0,6.57,1.16a1.5,1.5,0,0,1,1.1,2.11l-3.1,6.64a1.46,1.46,0,0,1-1.36.86Z"/><path class="cls-6" d="M403,232.76h.1l6.57,1.15a.48.48,0,0,1,.35.26.45.45,0,0,1,0,.44l-3.1,6.64a.46.46,0,0,1-.45.29.47.47,0,0,1-.45-.3l-3.47-7.79a.47.47,0,0,1,0-.47.51.51,0,0,1,.41-.23m0-2a2.5,2.5,0,0,0-2.27,3.51l3.47,7.8a2.5,2.5,0,0,0,4.55,0l3.1-6.64A2.51,2.51,0,0,0,410,232l-6.58-1.15a2.25,2.25,0,0,0-.44,0Z"/><path class="cls-9" d="M495.4,230.19a1.43,1.43,0,0,1-1.34-.86l-1.54-3.26a1.5,1.5,0,0,1,.6-1.93l2.63-1.55a1.42,1.42,0,0,1,.76-.22,1.56,1.56,0,0,1,1.19.58,1.45,1.45,0,0,1,.27,1.26l-1.1,4.82A1.45,1.45,0,0,1,495.4,230.19Z"/><path class="cls-6" d="M496.51,223.37a.54.54,0,0,1,.41.21.45.45,0,0,1,.08.4l-1.1,4.83a.48.48,0,0,1-.5.38.45.45,0,0,1-.44-.28l-1.53-3.27a.48.48,0,0,1,.2-.63l2.63-1.56a.43.43,0,0,1,.25-.08m0-2a2.54,2.54,0,0,0-1.27.35l-2.63,1.56a2.5,2.5,0,0,0-1,3.22l1.53,3.26a2.5,2.5,0,0,0,4.7-.51l1.1-4.82a2.5,2.5,0,0,0-2.44-3.06Z"/><path class="cls-9" d="M475.28,240.42a1.44,1.44,0,0,1-1.3-.77l-2.43-4.38a1.46,1.46,0,0,1-.1-1.24,1.47,1.47,0,0,1,.88-.88l3.74-1.41a1.71,1.71,0,0,1,.53-.1,1.5,1.5,0,0,1,1.17.58,1.42,1.42,0,0,1,.29,1.25l-1.31,5.79A1.48,1.48,0,0,1,475.28,240.42Z"/><path class="cls-6" d="M476.61,232.64a.52.52,0,0,1,.38.2.42.42,0,0,1,.09.41L475.77,239a.5.5,0,0,1-.92.13l-2.43-4.38a.47.47,0,0,1,0-.41.52.52,0,0,1,.29-.3l3.74-1.4a.46.46,0,0,1,.19,0m0-2a2.38,2.38,0,0,0-.89.17l-3.74,1.4a2.5,2.5,0,0,0-1.31,3.55l2.44,4.38a2.49,2.49,0,0,0,4.61-.66l1.31-5.79a2.5,2.5,0,0,0-2.42-3.05Z"/><path class="cls-9" d="M456.12,245.56a1.46,1.46,0,0,1-1.36-.89l-2.21-4.92a1.5,1.5,0,0,1,1.21-2.1l4.05-.41H458a1.5,1.5,0,0,1,1.41,2l-1.84,5.33a1.47,1.47,0,0,1-1.42,1Z"/><path class="cls-6" d="M458,238.23a.49.49,0,0,1,.46.66l-1.84,5.33a.49.49,0,0,1-.92,0l-2.21-4.92a.49.49,0,0,1,0-.45.46.46,0,0,1,.38-.24l4-.42H458m0-2h-.26l-4,.42a2.49,2.49,0,0,0-2,3.5l2.21,4.92a2.49,2.49,0,0,0,4.63-.21l1.84-5.33a2.49,2.49,0,0,0-2.35-3.31Z"/><path class="cls-9" d="M434.39,246.68a1.47,1.47,0,0,1-1.37-.88l-3.12-6.91a1.44,1.44,0,0,1,.1-1.42,1.49,1.49,0,0,1,1.25-.69h.17l6.43.71a1.49,1.49,0,0,1,1.15,2.19l-3.29,6.19A1.48,1.48,0,0,1,434.39,246.68Z"/><path class="cls-6" d="M431.25,237.78h.06l6.43.71a.47.47,0,0,1,.38.26.48.48,0,0,1,0,.47l-3.29,6.19a.47.47,0,0,1-.44.27.48.48,0,0,1-.46-.29l-3.12-6.91a.44.44,0,0,1,0-.47.47.47,0,0,1,.41-.23m0-2a2.5,2.5,0,0,0-2.27,3.53l3.13,6.9a2.49,2.49,0,0,0,4.48.14l3.3-6.19A2.5,2.5,0,0,0,438,236.5l-6.43-.71Z"/><path class="cls-9" d="M337.64,263.31a1.48,1.48,0,0,1-.77-.22L332,260.16a1.44,1.44,0,0,1-.68-1,1.49,1.49,0,0,1,.21-1.16l3.16-4.7a1.44,1.44,0,0,1,1.23-.66,1.5,1.5,0,0,1,1.48,1.17l1.7,7.63a1.49,1.49,0,0,1-.28,1.26A1.55,1.55,0,0,1,337.64,263.31Z"/><path class="cls-6" d="M335.93,253.68a.49.49,0,0,1,.5.39l1.7,7.63a.47.47,0,0,1-.08.41.56.56,0,0,1-.41.2.5.5,0,0,1-.25-.07l-4.86-2.94a.49.49,0,0,1-.23-.31.54.54,0,0,1,.07-.39l3.16-4.7a.44.44,0,0,1,.4-.22m0-2a2.46,2.46,0,0,0-2.06,1.1l-3.16,4.71a2.51,2.51,0,0,0,.79,3.53l4.86,2.93a2.46,2.46,0,0,0,1.28.36,2.5,2.5,0,0,0,2.44-3l-1.7-7.64a2.48,2.48,0,0,0-2.45-1.95Z"/><path class="cls-9" d="M363.5,276.49a1.49,1.49,0,0,1-.61-.13l-6.89-3a1.49,1.49,0,0,1-.71-2.08l3.44-6.43A1.45,1.45,0,0,1,360,264a1.47,1.47,0,0,1,1.42,1l3.44,9.48a1.47,1.47,0,0,1-.17,1.36A1.51,1.51,0,0,1,363.5,276.49Z"/><path class="cls-6" d="M360,265a.49.49,0,0,1,.48.33l3.44,9.48a.45.45,0,0,1,0,.44.53.53,0,0,1-.41.23.43.43,0,0,1-.21-.05l-6.88-3a.48.48,0,0,1-.27-.3.42.42,0,0,1,0-.39l3.44-6.44A.46.46,0,0,1,360,265m0-2a2.48,2.48,0,0,0-2.19,1.32l-3.45,6.44a2.51,2.51,0,0,0,1.2,3.47l6.88,3a2.54,2.54,0,0,0,1,.22,2.5,2.5,0,0,0,2.34-3.35l-3.44-9.48A2.49,2.49,0,0,0,360,263Z"/><path class="cls-9" d="M386.93,284.86a1.41,1.41,0,0,1-.45-.07l-7.57-2.3a1.51,1.51,0,0,1-.85-2.21l4.73-7.84a1.49,1.49,0,0,1,2.72.36L388.36,283a1.46,1.46,0,0,1-.25,1.3A1.48,1.48,0,0,1,386.93,284.86Z"/><path class="cls-6" d="M384.06,272.71a.48.48,0,0,1,.49.36l2.84,10.16a.46.46,0,0,1-.07.43.54.54,0,0,1-.39.2l-.16,0-7.57-2.31a.5.5,0,0,1-.28-.73l4.72-7.85a.47.47,0,0,1,.42-.24m0-2a2.46,2.46,0,0,0-2.13,1.21l-4.72,7.85a2.49,2.49,0,0,0,1.41,3.67l7.57,2.31a2.42,2.42,0,0,0,.74.11,2.5,2.5,0,0,0,2.39-3.17l-2.85-10.16a2.47,2.47,0,0,0-2.41-1.82Z"/><path class="cls-9" d="M411.1,290.07l-.26,0-8-1.35a1.49,1.49,0,0,1-1-2.31l4-6a1.46,1.46,0,0,1,1.24-.66,1.48,1.48,0,0,1,1.32.78l4,7.35a1.5,1.5,0,0,1-1.3,2.21Z"/><path class="cls-6" d="M407.11,280.73a.47.47,0,0,1,.44.26l4,7.35a.44.44,0,0,1,0,.48.46.46,0,0,1-.41.25H411l-8-1.34a.47.47,0,0,1-.37-.3.48.48,0,0,1,0-.47l4.05-6a.48.48,0,0,1,.41-.22m0-2a2.48,2.48,0,0,0-2.07,1.1l-4,6a2.49,2.49,0,0,0,1.65,3.86l8,1.35.43,0a2.49,2.49,0,0,0,2.18-3.68l-4-7.35a2.47,2.47,0,0,0-2.2-1.31Z"/><path class="cls-9" d="M426.54,292.36a1.49,1.49,0,0,1-1.38-2.08l3.66-8.52a1.49,1.49,0,0,1,1.38-.9,1.47,1.47,0,0,1,1.26.69l5.4,8.52a1.5,1.5,0,0,1-1.27,2.29Z"/><path class="cls-6" d="M430.2,281.86a.48.48,0,0,1,.42.23L436,290.6a.49.49,0,0,1,0,.51.5.5,0,0,1-.44.25h-9a.48.48,0,0,1-.42-.22.47.47,0,0,1,0-.47l3.66-8.51a.48.48,0,0,1,.46-.3m0-2a2.48,2.48,0,0,0-2.3,1.51l-3.66,8.51a2.49,2.49,0,0,0,2.3,3.48h9a2.5,2.5,0,0,0,2.11-3.83L432.3,281a2.46,2.46,0,0,0-2.1-1.16Z"/><path class="cls-9" d="M452.56,291.55a1.49,1.49,0,0,1-1.48-1.66l.63-5.7a1.49,1.49,0,0,1,1.51-1.34,1.42,1.42,0,0,1,1.19.63l3.67,5.09a1.47,1.47,0,0,1,.16,1.46,1.45,1.45,0,0,1-1.16.89l-4.31.61A.75.75,0,0,1,452.56,291.55Z"/><path class="cls-6" d="M453.22,283.85a.45.45,0,0,1,.38.21l3.67,5.09a.5.5,0,0,1,.05.49.48.48,0,0,1-.39.29l-4.3.61h-.07a.48.48,0,0,1-.37-.17.46.46,0,0,1-.12-.38l.64-5.7a.5.5,0,0,1,.51-.45m0-2a2.48,2.48,0,0,0-2.5,2.23l-.64,5.7a2.5,2.5,0,0,0,2.48,2.77l.35,0,4.31-.61a2.49,2.49,0,0,0,1.67-3.93l-3.66-5.09a2.47,2.47,0,0,0-2-1Z"/><path class="cls-9" d="M475,285.77a1.52,1.52,0,0,1-1.17-.57,1.45,1.45,0,0,1-.29-1.24l1.79-8.39a1.49,1.49,0,0,1,1.48-1.18,1.45,1.45,0,0,1,1.24.68l3.87,5.89a1.51,1.51,0,0,1-.66,2.2l-5.65,2.48A1.49,1.49,0,0,1,475,285.77Z"/><path class="cls-6" d="M476.77,275.39h0a.44.44,0,0,1,.4.23l3.87,5.89a.51.51,0,0,1,.06.42.48.48,0,0,1-.28.31l-5.66,2.48a.37.37,0,0,1-.2,0,.5.5,0,0,1-.39-.2.46.46,0,0,1-.09-.4l1.79-8.39a.49.49,0,0,1,.5-.39m0-2a2.49,2.49,0,0,0-2.46,2l-1.79,8.38a2.5,2.5,0,0,0,2.44,3,2.65,2.65,0,0,0,1-.21l5.66-2.49a2.5,2.5,0,0,0,1.08-3.66l-3.87-5.89a2.44,2.44,0,0,0-2.07-1.13Z"/><path class="cls-8" d="M212.44,385.06s-5.14-13.85-3.74-26.49c0,0,8.07,23,13.63,26.49Z"/><path class="cls-10" d="M452.22,322.54c-34.65,11.19-76.46,12.09-76.46,12.09,4.22-.55,8.53-1.28,12.84-2.13h0c1.83-.31,45-7.63,59.12-14.26Q450.08,320.33,452.22,322.54Z"/></g></g></g></svg>