<?xml version="1.0" encoding="utf-8"?>
<!-- Generator: Adobe Illustrator 23.1.1, SVG Export Plug-In . SVG Version: 6.00 Build 0)  -->
<svg version="1.1" id="图层_1" xmlns="http://www.w3.org/2000/svg" xmlns:xlink="http://www.w3.org/1999/xlink" x="0px" y="0px"
	 viewBox="0 0 436 395" style="enable-background:new 0 0 436 395;" xml:space="preserve">
<style type="text/css">
	.st0{fill:#FF6666;}
</style>
<path class="st0" d="M24,3v389c0,1.1-0.9,2-2,2H3c-1.1,0-2-0.9-2-2V3c0-1.1,0.9-2,2-2h19C23.1,1,24,1.9,24,3z M433,1H307.6
	c-1.1,0-2,0.9-2,2v19c0,1.1,0.9,2,2,2H433c1.1,0,2-0.9,2-2V3C435,1.9,434.1,1,433,1z M433,371H307.6c-1.1,0-2,0.9-2,2v19
	c0,1.1,0.9,2,2,2H433c1.1,0,2-0.9,2-2v-19C435,371.9,434.1,371,433,371z M425.5,255.5c2.2,0,4-1.8,4-4v-108c0-2.2-1.8-4-4-4H291V5
	c0-2.2-1.8-4-4-4H179c-2.2,0-4,1.8-4,4v134.5H40.5c-2.2,0-4,1.8-4,4v108c0,2.2,1.8,4,4,4H175V390c0,2.2,1.8,4,4,4h108
	c2.2,0,4-1.8,4-4V255.5H425.5z"/>
</svg>
